{"glyphs":{"0":{"ha":1017,"x_min":41,"x_max":975,"o":"m 592 1525 q 844 1394 707 1516 q 975 1153 960 1264 l 975 974 q 869 746 975 890 q 766 526 766 671 l 766 494 q 744 420 766 452 l 744 361 q 755 323 755 330 q 749 296 755 317 q 758 274 758 282 l 758 269 q 755 244 758 259 q 766 217 766 225 l 766 212 q 758 182 766 203 q 766 160 766 180 l 766 157 q 739 114 766 134 q 633 33 707 33 l 606 33 q 584 0 587 0 l 451 0 q 432 33 443 0 l 405 33 q 288 98 345 33 q 286 114 288 100 q 291 136 291 134 q 280 165 280 152 l 280 171 q 286 198 280 176 q 275 222 279 198 q 283 252 275 229 q 275 282 275 265 q 291 323 275 284 l 291 404 q 267 570 275 446 q 172 719 228 680 q 41 974 50 860 l 41 1142 q 177 1402 49 1256 q 421 1525 307 1511 l 592 1525 m 82 1061 q 242 722 82 869 q 326 461 326 631 q 340 439 334 439 l 671 439 q 714 483 714 439 l 714 513 q 814 762 714 690 q 934 1058 934 897 q 728 1421 934 1282 q 505 1484 622 1484 q 144 1280 288 1484 q 82 1061 82 1167 m 418 1215 l 616 1215 q 660 1172 660 1208 l 660 689 q 616 646 653 646 l 418 646 q 375 689 375 652 l 375 1172 q 418 1215 382 1215 m 470 1120 l 470 846 l 473 846 l 543 1120 l 470 1120 m 562 1001 q 494 741 562 992 l 565 741 l 565 1001 l 562 1001 m 342 388 l 342 331 l 454 358 q 470 345 465 355 l 470 334 q 364 298 470 318 q 315 279 319 286 l 315 277 q 321 271 316 271 l 692 366 l 692 388 l 342 388 m 315 225 l 315 222 q 323 217 315 217 q 714 317 356 222 l 717 323 q 711 328 717 328 l 709 328 q 318 231 695 328 l 315 225 m 318 168 q 323 163 319 163 q 720 263 345 163 l 720 269 q 711 274 720 274 q 321 174 664 263 l 318 168 m 326 109 q 334 106 329 109 q 728 209 712 201 l 728 212 q 720 220 728 216 q 326 117 366 130 l 326 109 m 410 81 q 546 84 505 84 l 576 84 l 570 92 l 570 95 q 646 130 570 120 q 728 157 724 150 q 720 163 728 163 q 410 84 644 146 l 410 81 m 619 87 l 619 81 q 663 95 661 85 l 660 95 l 619 87 z "},"1":{"ha":1014,"x_min":40,"x_max":973,"o":"m 591 1525 q 843 1394 706 1516 q 973 1153 958 1264 l 973 974 q 867 746 973 890 q 764 526 764 671 l 764 494 q 743 420 764 452 l 743 361 q 753 323 753 330 q 748 296 753 317 q 756 274 756 282 l 756 269 q 753 244 756 259 q 764 217 764 225 l 764 212 q 756 182 764 203 q 764 160 764 180 l 764 157 q 737 114 764 134 q 631 33 705 33 l 604 33 q 583 0 586 0 l 450 0 q 431 33 441 0 l 404 33 q 287 98 343 33 q 284 114 287 100 q 290 136 290 134 q 279 165 279 152 l 279 171 q 284 198 279 176 q 273 222 277 198 q 281 252 273 229 q 273 282 273 265 q 290 323 273 284 l 290 404 q 265 570 273 446 q 170 719 227 680 q 40 974 49 860 l 40 1142 q 176 1402 47 1256 q 420 1525 306 1511 l 591 1525 m 81 1061 q 241 722 81 869 q 325 461 325 631 q 338 439 333 439 l 669 439 q 713 483 713 439 l 713 513 q 813 762 713 690 q 932 1058 932 897 q 726 1421 932 1282 q 504 1484 621 1484 q 143 1280 286 1484 q 81 1061 81 1167 m 412 1215 l 553 1215 q 596 1172 596 1208 l 596 651 q 591 646 596 646 l 507 646 q 501 651 501 646 l 501 1120 l 412 1120 q 406 1126 406 1120 l 406 1210 q 412 1215 407 1215 m 341 388 l 341 331 l 452 358 q 469 345 464 355 l 469 334 q 363 298 469 318 q 314 279 318 286 l 314 277 q 319 271 315 271 l 691 366 l 691 388 l 341 388 m 314 225 l 314 222 q 322 217 314 217 q 713 317 355 222 l 715 323 q 710 328 715 328 l 707 328 q 317 231 694 328 l 314 225 m 317 168 q 322 163 317 163 q 718 263 344 163 l 718 269 q 710 274 718 274 q 319 174 663 263 l 317 168 m 325 109 q 333 106 328 109 q 726 209 711 201 l 726 212 q 718 220 726 216 q 325 117 365 130 l 325 109 m 409 81 q 545 84 503 84 l 574 84 l 569 92 l 569 95 q 645 130 569 120 q 726 157 723 150 q 718 163 726 163 q 409 84 643 146 l 409 81 m 618 87 l 618 81 q 661 95 659 85 l 659 95 l 618 87 z "},"2":{"ha":1014,"x_min":40,"x_max":973,"o":"m 591 1525 q 843 1394 706 1516 q 973 1153 958 1264 l 973 974 q 867 746 973 890 q 764 526 764 671 l 764 494 q 743 420 764 452 l 743 361 q 753 323 753 330 q 748 296 753 317 q 756 274 756 282 l 756 269 q 753 244 756 259 q 764 217 764 225 l 764 212 q 756 182 764 203 q 764 160 764 180 l 764 157 q 737 114 764 134 q 631 33 705 33 l 604 33 q 583 0 586 0 l 450 0 q 431 33 441 0 l 404 33 q 287 98 343 33 q 284 114 287 100 q 290 136 290 134 q 279 165 279 152 l 279 171 q 284 198 279 176 q 273 222 277 198 q 281 252 273 229 q 273 282 273 265 q 290 323 273 284 l 290 404 q 265 570 273 446 q 170 719 227 680 q 40 974 49 860 l 40 1142 q 176 1402 47 1256 q 420 1525 306 1511 l 591 1525 m 81 1061 q 241 722 81 869 q 325 461 325 631 q 338 439 333 439 l 669 439 q 713 483 713 439 l 713 513 q 813 762 713 690 q 932 1058 932 897 q 726 1421 932 1282 q 504 1484 621 1484 q 143 1280 286 1484 q 81 1061 81 1167 m 417 1215 l 615 1215 q 659 1172 659 1208 l 659 974 q 615 930 652 930 l 469 930 l 469 741 l 653 741 q 659 735 659 740 l 659 689 q 615 646 652 646 l 417 646 q 374 689 374 652 l 374 982 q 417 1025 380 1025 l 564 1025 l 564 1120 l 379 1120 q 374 1126 374 1120 l 374 1172 q 417 1215 380 1215 m 341 388 l 341 331 l 452 358 q 469 345 464 355 l 469 334 q 363 298 469 318 q 314 279 318 286 l 314 277 q 319 271 315 271 l 691 366 l 691 388 l 341 388 m 314 225 l 314 222 q 322 217 314 217 q 713 317 355 222 l 715 323 q 710 328 715 328 l 707 328 q 317 231 694 328 l 314 225 m 317 168 q 322 163 317 163 q 718 263 344 163 l 718 269 q 710 274 718 274 q 319 174 663 263 l 317 168 m 325 109 q 333 106 328 109 q 726 209 711 201 l 726 212 q 718 220 726 216 q 325 117 365 130 l 325 109 m 409 81 q 545 84 503 84 l 574 84 l 569 92 l 569 95 q 645 130 569 120 q 726 157 723 150 q 718 163 726 163 q 409 84 643 146 l 409 81 m 618 87 l 618 81 q 661 95 659 85 l 659 95 l 618 87 z "},"3":{"ha":1014,"x_min":40,"x_max":973,"o":"m 591 1525 q 843 1394 706 1516 q 973 1153 958 1264 l 973 974 q 867 746 973 890 q 764 526 764 671 l 764 494 q 743 420 764 452 l 743 361 q 753 323 753 330 q 748 296 753 317 q 756 274 756 282 l 756 269 q 753 244 756 259 q 764 217 764 225 l 764 212 q 756 182 764 203 q 764 160 764 180 l 764 157 q 737 114 764 134 q 631 33 705 33 l 604 33 q 583 0 586 0 l 450 0 q 431 33 441 0 l 404 33 q 287 98 343 33 q 284 114 287 100 q 290 136 290 134 q 279 165 279 152 l 279 171 q 284 198 279 176 q 273 222 277 198 q 281 252 273 229 q 273 282 273 265 q 290 323 273 284 l 290 404 q 265 570 273 446 q 170 719 227 680 q 40 974 49 860 l 40 1142 q 176 1402 47 1256 q 420 1525 306 1511 l 591 1525 m 81 1061 q 241 722 81 869 q 325 461 325 631 q 338 439 333 439 l 669 439 q 713 483 713 439 l 713 513 q 813 762 713 690 q 932 1058 932 897 q 726 1421 932 1282 q 504 1484 621 1484 q 143 1280 286 1484 q 81 1061 81 1167 m 379 1215 l 615 1215 q 659 1172 659 1208 l 659 1017 q 623 979 659 992 l 623 977 q 659 939 659 964 l 659 689 q 615 646 652 646 l 379 646 q 374 651 374 646 l 374 735 q 379 741 374 741 l 564 741 l 564 930 l 474 930 q 469 936 469 930 l 469 1020 q 474 1025 469 1025 l 564 1025 l 564 1120 l 379 1120 q 374 1126 374 1120 l 374 1210 q 379 1215 374 1215 m 341 388 l 341 331 l 452 358 q 469 345 464 355 l 469 334 q 363 298 469 318 q 314 279 318 286 l 314 277 q 319 271 315 271 l 691 366 l 691 388 l 341 388 m 314 225 l 314 222 q 322 217 314 217 q 713 317 355 222 l 715 323 q 710 328 715 328 l 707 328 q 317 231 694 328 l 314 225 m 317 168 q 322 163 317 163 q 718 263 344 163 l 718 269 q 710 274 718 274 q 319 174 663 263 l 317 168 m 325 109 q 333 106 328 109 q 726 209 711 201 l 726 212 q 718 220 726 216 q 325 117 365 130 l 325 109 m 409 81 q 545 84 503 84 l 574 84 l 569 92 l 569 95 q 645 130 569 120 q 726 157 723 150 q 718 163 726 163 q 409 84 643 146 l 409 81 m 618 87 l 618 81 q 661 95 659 85 l 659 95 l 618 87 z "},"4":{"ha":1014,"x_min":40,"x_max":973,"o":"m 591 1525 q 843 1394 706 1516 q 973 1153 958 1264 l 973 974 q 867 746 973 890 q 764 526 764 671 l 764 494 q 743 420 764 452 l 743 361 q 753 323 753 330 q 748 296 753 317 q 756 274 756 282 l 756 269 q 753 244 756 259 q 764 217 764 225 l 764 212 q 756 182 764 203 q 764 160 764 180 l 764 157 q 737 114 764 134 q 631 33 705 33 l 604 33 q 583 0 586 0 l 450 0 q 431 33 441 0 l 404 33 q 287 98 343 33 q 284 114 287 100 q 290 136 290 134 q 279 165 279 152 l 279 171 q 284 198 279 176 q 273 222 277 198 q 281 252 273 229 q 273 282 273 265 q 290 323 273 284 l 290 404 q 265 570 273 446 q 170 719 227 680 q 40 974 49 860 l 40 1142 q 176 1402 47 1256 q 420 1525 306 1511 l 591 1525 m 81 1061 q 241 722 81 869 q 325 461 325 631 q 338 439 333 439 l 669 439 q 713 483 713 439 l 713 513 q 813 762 713 690 q 932 1058 932 897 q 726 1421 932 1282 q 504 1484 621 1484 q 143 1280 286 1484 q 81 1061 81 1167 m 379 1215 l 463 1215 q 469 1210 469 1215 l 469 930 l 564 930 l 564 1210 q 569 1215 564 1215 l 653 1215 q 659 1210 659 1215 l 659 651 q 653 646 659 646 l 569 646 q 564 651 564 646 l 564 836 l 379 836 q 374 841 374 836 l 374 1210 q 379 1215 374 1215 m 341 388 l 341 331 l 452 358 q 469 345 464 355 l 469 334 q 363 298 469 318 q 314 279 318 286 l 314 277 q 319 271 315 271 l 691 366 l 691 388 l 341 388 m 314 225 l 314 222 q 322 217 314 217 q 713 317 355 222 l 715 323 q 710 328 715 328 l 707 328 q 317 231 694 328 l 314 225 m 317 168 q 322 163 317 163 q 718 263 344 163 l 718 269 q 710 274 718 274 q 319 174 663 263 l 317 168 m 325 109 q 333 106 328 109 q 726 209 711 201 l 726 212 q 718 220 726 216 q 325 117 365 130 l 325 109 m 409 81 q 545 84 503 84 l 574 84 l 569 92 l 569 95 q 645 130 569 120 q 726 157 723 150 q 718 163 726 163 q 409 84 643 146 l 409 81 m 618 87 l 618 81 q 661 95 659 85 l 659 95 l 618 87 z "},"5":{"ha":1014,"x_min":40,"x_max":973,"o":"m 591 1525 q 843 1394 706 1516 q 973 1153 958 1264 l 973 974 q 867 746 973 890 q 764 526 764 671 l 764 494 q 743 420 764 452 l 743 361 q 753 323 753 330 q 748 296 753 317 q 756 274 756 282 l 756 269 q 753 244 756 259 q 764 217 764 225 l 764 212 q 756 182 764 203 q 764 160 764 180 l 764 157 q 737 114 764 134 q 631 33 705 33 l 604 33 q 583 0 586 0 l 450 0 q 431 33 441 0 l 404 33 q 287 98 343 33 q 284 114 287 100 q 290 136 290 134 q 279 165 279 152 l 279 171 q 284 198 279 176 q 273 222 277 198 q 281 252 273 229 q 273 282 273 265 q 290 323 273 284 l 290 404 q 265 570 273 446 q 170 719 227 680 q 40 974 49 860 l 40 1142 q 176 1402 47 1256 q 420 1525 306 1511 l 591 1525 m 81 1061 q 241 722 81 869 q 325 461 325 631 q 338 439 333 439 l 669 439 q 713 483 713 439 l 713 513 q 813 762 713 690 q 932 1058 932 897 q 726 1421 932 1282 q 504 1484 621 1484 q 143 1280 286 1484 q 81 1061 81 1167 m 417 1215 l 615 1215 q 659 1172 659 1208 l 659 1126 q 653 1120 659 1120 l 469 1120 l 469 1025 l 615 1025 q 659 982 659 1019 l 659 689 q 615 646 652 646 l 417 646 q 374 689 374 652 l 374 735 q 379 741 374 741 l 564 741 l 564 930 l 417 930 q 374 974 374 937 l 374 1172 q 417 1215 380 1215 m 341 388 l 341 331 l 452 358 q 469 345 464 355 l 469 334 q 363 298 469 318 q 314 279 318 286 l 314 277 q 319 271 315 271 l 691 366 l 691 388 l 341 388 m 314 225 l 314 222 q 322 217 314 217 q 713 317 355 222 l 715 323 q 710 328 715 328 l 707 328 q 317 231 694 328 l 314 225 m 317 168 q 322 163 317 163 q 718 263 344 163 l 718 269 q 710 274 718 274 q 319 174 663 263 l 317 168 m 325 109 q 333 106 328 109 q 726 209 711 201 l 726 212 q 718 220 726 216 q 325 117 365 130 l 325 109 m 409 81 q 545 84 503 84 l 574 84 l 569 92 l 569 95 q 645 130 569 120 q 726 157 723 150 q 718 163 726 163 q 409 84 643 146 l 409 81 m 618 87 l 618 81 q 661 95 659 85 l 659 95 l 618 87 z "},"6":{"ha":1014,"x_min":40,"x_max":973,"o":"m 591 1525 q 843 1394 706 1516 q 973 1153 958 1264 l 973 974 q 867 746 973 890 q 764 526 764 671 l 764 494 q 743 420 764 452 l 743 361 q 753 323 753 330 q 748 296 753 317 q 756 274 756 282 l 756 269 q 753 244 756 259 q 764 217 764 225 l 764 212 q 756 182 764 203 q 764 160 764 180 l 764 157 q 737 114 764 134 q 631 33 705 33 l 604 33 q 583 0 586 0 l 450 0 q 431 33 441 0 l 404 33 q 287 98 343 33 q 284 114 287 100 q 290 136 290 134 q 279 165 279 152 l 279 171 q 284 198 279 176 q 273 222 277 198 q 281 252 273 229 q 273 282 273 265 q 290 323 273 284 l 290 404 q 265 570 273 446 q 170 719 227 680 q 40 974 49 860 l 40 1142 q 176 1402 47 1256 q 420 1525 306 1511 l 591 1525 m 81 1061 q 241 722 81 869 q 325 461 325 631 q 338 439 333 439 l 669 439 q 713 483 713 439 l 713 513 q 813 762 713 690 q 932 1058 932 897 q 726 1421 932 1282 q 504 1484 621 1484 q 143 1280 286 1484 q 81 1061 81 1167 m 417 1215 l 653 1215 q 659 1210 659 1215 l 659 1126 q 653 1120 659 1120 l 469 1120 l 469 1025 l 615 1025 q 659 982 659 1019 l 659 689 q 615 646 652 646 l 417 646 q 374 689 374 652 l 374 1172 q 417 1215 380 1215 m 469 930 l 469 741 l 564 741 l 564 930 l 469 930 m 341 388 l 341 331 l 452 358 q 469 345 464 355 l 469 334 q 363 298 469 318 q 314 279 318 286 l 314 277 q 319 271 315 271 l 691 366 l 691 388 l 341 388 m 314 225 l 314 222 q 322 217 314 217 q 713 317 355 222 l 715 323 q 710 328 715 328 l 707 328 q 317 231 694 328 l 314 225 m 317 168 q 322 163 317 163 q 718 263 344 163 l 718 269 q 710 274 718 274 q 319 174 663 263 l 317 168 m 325 109 q 333 106 328 109 q 726 209 711 201 l 726 212 q 718 220 726 216 q 325 117 365 130 l 325 109 m 409 81 q 545 84 503 84 l 574 84 l 569 92 l 569 95 q 645 130 569 120 q 726 157 723 150 q 718 163 726 163 q 409 84 643 146 l 409 81 m 618 87 l 618 81 q 661 95 659 85 l 659 95 l 618 87 z "},"7":{"ha":1014,"x_min":40,"x_max":973,"o":"m 591 1525 q 843 1394 706 1516 q 973 1153 958 1264 l 973 974 q 867 746 973 890 q 764 526 764 671 l 764 494 q 743 420 764 452 l 743 361 q 753 323 753 330 q 748 296 753 317 q 756 274 756 282 l 756 269 q 753 244 756 259 q 764 217 764 225 l 764 212 q 756 182 764 203 q 764 160 764 180 l 764 157 q 737 114 764 134 q 631 33 705 33 l 604 33 q 583 0 586 0 l 450 0 q 431 33 441 0 l 404 33 q 287 98 343 33 q 284 114 287 100 q 290 136 290 134 q 279 165 279 152 l 279 171 q 284 198 279 176 q 273 222 277 198 q 281 252 273 229 q 273 282 273 265 q 290 323 273 284 l 290 404 q 265 570 273 446 q 170 719 227 680 q 40 974 49 860 l 40 1142 q 176 1402 47 1256 q 420 1525 306 1511 l 591 1525 m 81 1061 q 241 722 81 869 q 325 461 325 631 q 338 439 333 439 l 669 439 q 713 483 713 439 l 713 513 q 813 762 713 690 q 932 1058 932 897 q 726 1421 932 1282 q 504 1484 621 1484 q 143 1280 286 1484 q 81 1061 81 1167 m 379 1215 l 615 1215 q 659 1172 659 1208 l 659 651 q 653 646 659 646 l 569 646 q 564 651 564 646 l 564 1120 l 379 1120 q 374 1126 374 1120 l 374 1210 q 379 1215 374 1215 m 341 388 l 341 331 l 452 358 q 469 345 464 355 l 469 334 q 363 298 469 318 q 314 279 318 286 l 314 277 q 319 271 315 271 l 691 366 l 691 388 l 341 388 m 314 225 l 314 222 q 322 217 314 217 q 713 317 355 222 l 715 323 q 710 328 715 328 l 707 328 q 317 231 694 328 l 314 225 m 317 168 q 322 163 317 163 q 718 263 344 163 l 718 269 q 710 274 718 274 q 319 174 663 263 l 317 168 m 325 109 q 333 106 328 109 q 726 209 711 201 l 726 212 q 718 220 726 216 q 325 117 365 130 l 325 109 m 409 81 q 545 84 503 84 l 574 84 l 569 92 l 569 95 q 645 130 569 120 q 726 157 723 150 q 718 163 726 163 q 409 84 643 146 l 409 81 m 618 87 l 618 81 q 661 95 659 85 l 659 95 l 618 87 z "},"8":{"ha":1014,"x_min":40,"x_max":973,"o":"m 591 1525 q 843 1394 706 1516 q 973 1153 958 1264 l 973 974 q 867 746 973 890 q 764 526 764 671 l 764 494 q 743 420 764 452 l 743 361 q 753 323 753 330 q 748 296 753 317 q 756 274 756 282 l 756 269 q 753 244 756 259 q 764 217 764 225 l 764 212 q 756 182 764 203 q 764 160 764 180 l 764 157 q 737 114 764 134 q 631 33 705 33 l 604 33 q 583 0 586 0 l 450 0 q 431 33 441 0 l 404 33 q 287 98 343 33 q 284 114 287 100 q 290 136 290 134 q 279 165 279 152 l 279 171 q 284 198 279 176 q 273 222 277 198 q 281 252 273 229 q 273 282 273 265 q 290 323 273 284 l 290 404 q 265 570 273 446 q 170 719 227 680 q 40 974 49 860 l 40 1142 q 176 1402 47 1256 q 420 1525 306 1511 l 591 1525 m 81 1061 q 241 722 81 869 q 325 461 325 631 q 338 439 333 439 l 669 439 q 713 483 713 439 l 713 513 q 813 762 713 690 q 932 1058 932 897 q 726 1421 932 1282 q 504 1484 621 1484 q 143 1280 286 1484 q 81 1061 81 1167 m 412 1215 l 612 1215 q 656 1172 656 1208 q 659 1096 656 1132 q 656 1015 656 1059 q 621 979 656 993 l 621 977 q 656 939 656 964 l 656 689 q 612 646 649 646 l 412 646 q 371 692 380 646 l 371 933 q 409 977 379 977 l 409 979 q 371 1023 379 979 q 368 1093 371 1063 q 371 1172 371 1124 q 412 1215 382 1215 m 469 1120 l 469 1025 l 561 1025 l 561 1120 l 469 1120 m 469 930 l 469 741 l 561 741 l 561 930 l 469 930 m 341 388 l 341 331 l 452 358 q 469 345 464 355 l 469 334 q 363 298 469 318 q 314 279 318 286 l 314 277 q 319 271 315 271 l 691 366 l 691 388 l 341 388 m 314 225 l 314 222 q 322 217 314 217 q 713 317 355 222 l 715 323 q 710 328 715 328 l 707 328 q 317 231 694 328 l 314 225 m 317 168 q 322 163 317 163 q 718 263 344 163 l 718 269 q 710 274 718 274 q 319 174 663 263 l 317 168 m 325 109 q 333 106 328 109 q 726 209 711 201 l 726 212 q 718 220 726 216 q 325 117 365 130 l 325 109 m 409 81 q 545 84 503 84 l 574 84 l 569 92 l 569 95 q 645 130 569 120 q 726 157 723 150 q 718 163 726 163 q 409 84 643 146 l 409 81 m 618 87 l 618 81 q 661 95 659 85 l 659 95 l 618 87 z "},"9":{"ha":1014,"x_min":40,"x_max":973,"o":"m 591 1525 q 843 1394 706 1516 q 973 1153 958 1264 l 973 974 q 867 746 973 890 q 764 526 764 671 l 764 494 q 743 420 764 452 l 743 361 q 753 323 753 330 q 748 296 753 317 q 756 274 756 282 l 756 269 q 753 244 756 259 q 764 217 764 225 l 764 212 q 756 182 764 203 q 764 160 764 180 l 764 157 q 737 114 764 134 q 631 33 705 33 l 604 33 q 583 0 586 0 l 450 0 q 431 33 441 0 l 404 33 q 287 98 343 33 q 284 114 287 100 q 290 136 290 134 q 279 165 279 152 l 279 171 q 284 198 279 176 q 273 222 277 198 q 281 252 273 229 q 273 282 273 265 q 290 323 273 284 l 290 404 q 265 570 273 446 q 170 719 227 680 q 40 974 49 860 l 40 1142 q 176 1402 47 1256 q 420 1525 306 1511 l 591 1525 m 81 1061 q 241 722 81 869 q 325 461 325 631 q 338 439 333 439 l 669 439 q 713 483 713 439 l 713 513 q 813 762 713 690 q 932 1058 932 897 q 726 1421 932 1282 q 504 1484 621 1484 q 143 1280 286 1484 q 81 1061 81 1167 m 422 1207 l 607 1207 q 656 1161 656 1200 l 656 689 q 607 643 656 650 l 379 643 q 374 648 374 643 l 374 732 q 379 738 374 738 l 561 738 l 561 830 l 422 830 q 374 876 374 838 l 374 1161 q 422 1207 374 1200 m 469 1112 l 469 925 l 561 925 l 561 1112 l 469 1112 m 341 388 l 341 331 l 452 358 q 469 345 464 355 l 469 334 q 363 298 469 318 q 314 279 318 286 l 314 277 q 319 271 315 271 l 691 366 l 691 388 l 341 388 m 314 225 l 314 222 q 322 217 314 217 q 713 317 355 222 l 715 323 q 710 328 715 328 l 707 328 q 317 231 694 328 l 314 225 m 317 168 q 322 163 317 163 q 718 263 344 163 l 718 269 q 710 274 718 274 q 319 174 663 263 l 317 168 m 325 109 q 333 106 328 109 q 726 209 711 201 l 726 212 q 718 220 726 216 q 325 117 365 130 l 325 109 m 409 81 q 545 84 503 84 l 574 84 l 569 92 l 569 95 q 645 130 569 120 q 726 157 723 150 q 718 163 726 163 q 409 84 643 146 l 409 81 m 618 87 l 618 81 q 661 95 659 85 l 659 95 l 618 87 z "}," ":{"ha":1017,"x_min":41,"x_max":975,"o":"m 592 1525 q 844 1394 707 1516 q 975 1153 960 1264 l 975 974 q 869 746 975 890 q 766 526 766 671 l 766 494 q 744 420 766 452 l 744 361 q 755 323 755 330 q 749 296 755 317 q 758 274 758 282 l 758 269 q 755 244 758 259 q 766 217 766 225 l 766 212 q 758 182 766 203 q 766 160 766 180 l 766 157 q 739 114 766 134 q 633 33 707 33 l 606 33 q 584 0 587 0 l 451 0 q 432 33 443 0 l 405 33 q 288 98 345 33 q 286 114 288 100 q 291 136 291 134 q 280 165 280 152 l 280 171 q 286 198 280 176 q 275 222 279 198 q 283 252 275 229 q 275 282 275 265 q 291 323 275 284 l 291 404 q 267 570 275 446 q 172 719 228 680 q 41 974 50 860 l 41 1142 q 177 1402 49 1256 q 421 1525 307 1511 l 592 1525 m 82 1061 q 242 722 82 869 q 326 461 326 631 q 340 439 334 439 l 671 439 q 714 483 714 439 l 714 513 q 814 762 714 690 q 934 1058 934 897 q 728 1421 934 1282 q 505 1484 622 1484 q 144 1280 288 1484 q 82 1061 82 1167 m 342 388 l 342 331 l 454 358 q 470 345 465 355 l 470 334 q 364 298 470 318 q 315 279 319 286 l 315 277 q 321 271 316 271 l 692 366 l 692 388 l 342 388 m 315 225 l 315 222 q 323 217 315 217 q 714 317 356 222 l 717 323 q 711 328 717 328 l 709 328 q 318 231 695 328 l 315 225 m 318 168 q 323 163 319 163 q 720 263 345 163 l 720 269 q 711 274 720 274 q 321 174 664 263 l 318 168 m 326 109 q 334 106 329 109 q 728 209 712 201 l 728 212 q 720 220 728 216 q 326 117 366 130 l 326 109 m 410 81 q 546 84 505 84 l 576 84 l 570 92 l 570 95 q 646 130 570 120 q 728 157 724 150 q 720 163 728 163 q 410 84 644 146 l 410 81 m 619 87 l 619 81 q 663 95 661 85 l 660 95 l 619 87 z "},"!":{"ha":456,"x_min":0,"x_max":0,"o":""},"\"":{"ha":456,"x_min":0,"x_max":0,"o":""},"#":{"ha":906,"x_min":0,"x_max":0,"o":""},"$":{"ha":688,"x_min":0,"x_max":0,"o":""},"%":{"ha":1092,"x_min":0,"x_max":0,"o":""},"&":{"ha":1141,"x_min":0,"x_max":0,"o":""},"'":{"ha":235,"x_min":0,"x_max":0,"o":""},"(":{"ha":514,"x_min":0,"x_max":0,"o":""},")":{"ha":514,"x_min":0,"x_max":0,"o":""},"*":{"ha":694,"x_min":0,"x_max":0,"o":""},"+":{"ha":688,"x_min":0,"x_max":0,"o":""},",":{"ha":1017,"x_min":41,"x_max":975,"o":"m 592 1525 q 844 1394 707 1516 q 975 1153 960 1264 l 975 974 q 869 746 975 890 q 766 526 766 671 l 766 494 q 744 420 766 452 l 744 361 q 755 323 755 330 q 749 296 755 317 q 758 274 758 282 l 758 269 q 755 244 758 259 q 766 217 766 225 l 766 212 q 758 182 766 203 q 766 160 766 180 l 766 157 q 739 114 766 134 q 633 33 707 33 l 606 33 q 584 0 587 0 l 451 0 q 432 33 443 0 l 405 33 q 288 98 345 33 q 286 114 288 100 q 291 136 291 134 q 280 165 280 152 l 280 171 q 286 198 280 176 q 275 222 279 198 q 283 252 275 229 q 275 282 275 265 q 291 323 275 284 l 291 404 q 267 570 275 446 q 172 719 228 680 q 41 974 50 860 l 41 1142 q 177 1402 49 1256 q 421 1525 307 1511 l 592 1525 m 82 1061 q 242 722 82 869 q 326 461 326 631 q 340 439 334 439 l 671 439 q 714 483 714 439 l 714 513 q 814 762 714 690 q 934 1058 934 897 q 728 1421 934 1282 q 505 1484 622 1484 q 144 1280 288 1484 q 82 1061 82 1167 m 508 743 l 595 743 q 600 738 600 743 l 600 646 q 475 548 600 644 l 408 548 l 408 551 q 503 646 409 551 l 503 738 q 508 743 503 743 m 342 388 l 342 331 l 454 358 q 470 345 465 355 l 470 334 q 364 298 470 318 q 315 279 319 286 l 315 277 q 321 271 316 271 l 692 366 l 692 388 l 342 388 m 315 225 l 315 222 q 323 217 315 217 q 714 317 356 222 l 717 323 q 711 328 717 328 l 709 328 q 318 231 695 328 l 315 225 m 318 168 q 323 163 319 163 q 720 263 345 163 l 720 269 q 711 274 720 274 q 321 174 664 263 l 318 168 m 326 109 q 334 106 329 109 q 728 209 712 201 l 728 212 q 720 220 728 216 q 326 117 366 130 l 326 109 m 410 81 q 546 84 505 84 l 576 84 l 570 92 l 570 95 q 646 130 570 120 q 728 157 724 150 q 720 163 728 163 q 410 84 644 146 l 410 81 m 619 87 l 619 81 q 663 95 661 85 l 660 95 l 619 87 z "},"-":{"ha":454,"x_min":0,"x_max":0,"o":""},".":{"ha":1023,"x_min":45,"x_max":978,"o":"m 595 1525 q 848 1394 711 1516 q 978 1153 963 1264 l 978 974 q 872 746 978 890 q 769 526 769 671 l 769 494 q 747 420 769 452 l 747 361 q 758 323 758 330 q 753 296 758 317 q 761 274 761 282 l 761 269 q 758 244 761 259 q 769 217 769 225 l 769 212 q 761 182 769 203 q 769 160 769 180 l 769 157 q 742 114 769 134 q 636 33 710 33 l 609 33 q 587 0 591 0 l 454 0 q 435 33 446 0 l 408 33 q 292 98 348 33 q 289 114 292 100 q 294 136 294 134 q 283 165 283 152 l 283 171 q 289 198 283 176 q 278 222 282 198 q 286 252 278 229 q 278 282 278 265 q 294 323 278 284 l 294 404 q 270 570 278 446 q 175 719 231 680 q 45 974 54 860 l 45 1142 q 180 1402 52 1256 q 425 1525 311 1511 l 595 1525 m 85 1061 q 245 722 85 869 q 330 461 330 631 q 343 439 338 439 l 674 439 q 718 483 718 439 l 718 513 q 818 762 718 690 q 937 1058 937 897 q 731 1421 937 1282 q 509 1484 625 1484 q 148 1280 291 1484 q 85 1061 85 1167 m 484 743 l 571 743 q 576 738 576 743 l 576 651 q 571 646 576 646 l 484 646 q 479 651 479 646 l 479 738 q 484 743 479 743 m 346 388 l 346 331 l 457 358 q 473 345 469 355 l 473 334 q 368 298 473 318 q 319 279 323 286 l 319 277 q 324 271 319 271 l 696 366 l 696 388 l 346 388 m 319 225 l 319 222 q 327 217 319 217 q 718 317 359 222 l 720 323 q 715 328 720 328 l 712 328 q 321 231 699 328 l 319 225 m 321 168 q 327 163 322 163 q 723 263 349 163 l 723 269 q 715 274 723 274 q 324 174 667 263 l 321 168 m 330 109 q 338 106 332 109 q 731 209 715 201 l 731 212 q 723 220 731 216 q 330 117 370 130 l 330 109 m 414 81 q 549 84 508 84 l 579 84 l 574 92 l 574 95 q 650 130 574 120 q 731 157 728 150 q 723 163 731 163 q 414 84 648 146 l 414 81 m 623 87 l 623 81 q 666 95 664 85 l 663 95 l 623 87 z "},"/":{"ha":386,"x_min":0,"x_max":0,"o":""},":":{"ha":1014,"x_min":40,"x_max":973,"o":"m 591 1525 q 843 1394 706 1516 q 973 1153 958 1264 l 973 974 q 867 746 973 890 q 764 526 764 671 l 764 494 q 743 420 764 452 l 743 361 q 753 323 753 330 q 748 296 753 317 q 756 274 756 282 l 756 269 q 753 244 756 259 q 764 217 764 225 l 764 212 q 756 182 764 203 q 764 160 764 180 l 764 157 q 737 114 764 134 q 631 33 705 33 l 604 33 q 583 0 586 0 l 450 0 q 431 33 441 0 l 404 33 q 287 98 343 33 q 284 114 287 100 q 290 136 290 134 q 279 165 279 152 l 279 171 q 284 198 279 176 q 273 222 277 198 q 281 252 273 229 q 273 282 273 265 q 290 323 273 284 l 290 404 q 265 570 273 446 q 170 719 227 680 q 40 974 49 860 l 40 1142 q 176 1402 47 1256 q 420 1525 306 1511 l 591 1525 m 81 1061 q 241 722 81 869 q 325 461 325 631 q 338 439 333 439 l 669 439 q 713 483 713 439 l 713 513 q 813 762 713 690 q 932 1058 932 897 q 726 1421 932 1282 q 504 1484 621 1484 q 143 1280 286 1484 q 81 1061 81 1167 m 479 1101 l 566 1101 q 572 1096 572 1101 l 572 1009 q 566 1004 572 1004 l 479 1004 q 474 1009 474 1004 l 474 1096 q 479 1101 475 1101 m 479 743 l 566 743 q 572 738 572 743 l 572 651 q 566 646 572 646 l 479 646 q 474 651 474 646 l 474 738 q 479 743 475 743 m 341 388 l 341 331 l 452 358 q 469 345 464 355 l 469 334 q 363 298 469 318 q 314 279 318 286 l 314 277 q 319 271 315 271 l 691 366 l 691 388 l 341 388 m 314 225 l 314 222 q 322 217 314 217 q 713 317 355 222 l 715 323 q 710 328 715 328 l 707 328 q 317 231 694 328 l 314 225 m 317 168 q 322 163 317 163 q 718 263 344 163 l 718 269 q 710 274 718 274 q 319 174 663 263 l 317 168 m 325 109 q 333 106 328 109 q 726 209 711 201 l 726 212 q 718 220 726 216 q 325 117 365 130 l 325 109 m 409 81 q 545 84 503 84 l 574 84 l 569 92 l 569 95 q 645 130 569 120 q 726 157 723 150 q 718 163 726 163 q 409 84 643 146 l 409 81 m 618 87 l 618 81 q 661 95 659 85 l 659 95 l 618 87 z "},";":{"ha":1017,"x_min":41,"x_max":975,"o":"m 592 1525 q 844 1394 707 1516 q 975 1153 960 1264 l 975 974 q 869 746 975 890 q 766 526 766 671 l 766 494 q 744 420 766 452 l 744 361 q 755 323 755 330 q 749 296 755 317 q 758 274 758 282 l 758 269 q 755 244 758 259 q 766 217 766 225 l 766 212 q 758 182 766 203 q 766 160 766 180 l 766 157 q 739 114 766 134 q 633 33 707 33 l 606 33 q 584 0 587 0 l 451 0 q 432 33 443 0 l 405 33 q 288 98 345 33 q 286 114 288 100 q 291 136 291 134 q 280 165 280 152 l 280 171 q 286 198 280 176 q 275 222 279 198 q 283 252 275 229 q 275 282 275 265 q 291 323 275 284 l 291 404 q 267 570 275 446 q 172 719 228 680 q 41 974 50 860 l 41 1142 q 177 1402 49 1256 q 421 1525 307 1511 l 592 1525 m 82 1061 q 242 722 82 869 q 326 461 326 631 q 340 439 334 439 l 671 439 q 714 483 714 439 l 714 513 q 814 762 714 690 q 934 1058 934 897 q 728 1421 934 1282 q 505 1484 622 1484 q 144 1280 288 1484 q 82 1061 82 1167 m 508 1101 l 595 1101 q 600 1096 600 1101 l 600 1009 q 595 1004 600 1004 l 508 1004 q 503 1009 503 1004 l 503 1096 q 508 1101 503 1101 m 508 743 l 595 743 q 600 738 600 743 l 600 646 q 475 548 600 644 l 408 548 l 408 551 q 503 646 409 551 l 503 738 q 508 743 503 743 m 342 388 l 342 331 l 454 358 q 470 345 465 355 l 470 334 q 364 298 470 318 q 315 279 319 286 l 315 277 q 321 271 316 271 l 692 366 l 692 388 l 342 388 m 315 225 l 315 222 q 323 217 315 217 q 714 317 356 222 l 717 323 q 711 328 717 328 l 709 328 q 318 231 695 328 l 315 225 m 318 168 q 323 163 319 163 q 720 263 345 163 l 720 269 q 711 274 720 274 q 321 174 664 263 l 318 168 m 326 109 q 334 106 329 109 q 728 209 712 201 l 728 212 q 720 220 728 216 q 326 117 366 130 l 326 109 m 410 81 q 546 84 505 84 l 576 84 l 570 92 l 570 95 q 646 130 570 120 q 728 157 724 150 q 720 163 728 163 q 410 84 644 146 l 410 81 m 619 87 l 619 81 q 663 95 661 85 l 660 95 l 619 87 z "},"<":{"ha":688,"x_min":0,"x_max":0,"o":""},"=":{"ha":688,"x_min":0,"x_max":0,"o":""},">":{"ha":688,"x_min":0,"x_max":0,"o":""},"?":{"ha":507,"x_min":0,"x_max":0,"o":""},"@":{"ha":1369,"x_min":0,"x_max":0,"o":""},"A":{"ha":1014,"x_min":40,"x_max":973,"o":"m 591 1525 q 843 1394 706 1516 q 973 1153 958 1264 l 973 974 q 867 746 973 890 q 764 526 764 671 l 764 494 q 743 420 764 452 l 743 361 q 753 323 753 330 q 748 296 753 317 q 756 274 756 282 l 756 269 q 753 244 756 259 q 764 217 764 225 l 764 212 q 756 182 764 203 q 764 160 764 180 l 764 157 q 737 114 764 134 q 631 33 705 33 l 604 33 q 583 0 586 0 l 450 0 q 431 33 441 0 l 404 33 q 287 98 343 33 q 284 114 287 100 q 290 136 290 134 q 279 165 279 152 l 279 171 q 284 198 279 176 q 273 222 277 198 q 281 252 273 229 q 273 282 273 265 q 290 323 273 284 l 290 404 q 265 570 273 446 q 170 719 227 680 q 40 974 49 860 l 40 1142 q 176 1402 47 1256 q 420 1525 306 1511 l 591 1525 m 81 1061 q 241 722 81 869 q 325 461 325 631 q 338 439 333 439 l 669 439 q 713 483 713 439 l 713 513 q 813 762 713 690 q 932 1058 932 897 q 726 1421 932 1282 q 504 1484 621 1484 q 143 1280 286 1484 q 81 1061 81 1167 m 417 1215 l 615 1215 q 659 1172 659 1208 l 659 651 q 653 646 659 646 l 569 646 q 564 651 564 646 l 564 836 l 469 836 l 469 651 q 463 646 469 646 l 379 646 q 374 651 374 646 l 374 1172 q 417 1215 380 1215 m 469 1120 l 469 930 l 564 930 l 564 1120 l 469 1120 m 341 388 l 341 331 l 452 358 q 469 345 464 355 l 469 334 q 363 298 469 318 q 314 279 318 286 l 314 277 q 319 271 315 271 l 691 366 l 691 388 l 341 388 m 314 225 l 314 222 q 322 217 314 217 q 713 317 355 222 l 715 323 q 710 328 715 328 l 707 328 q 317 231 694 328 l 314 225 m 317 168 q 322 163 317 163 q 718 263 344 163 l 718 269 q 710 274 718 274 q 319 174 663 263 l 317 168 m 325 109 q 333 106 328 109 q 726 209 711 201 l 726 212 q 718 220 726 216 q 325 117 365 130 l 325 109 m 409 81 q 545 84 503 84 l 574 84 l 569 92 l 569 95 q 645 130 569 120 q 726 157 723 150 q 718 163 726 163 q 409 84 643 146 l 409 81 m 618 87 l 618 81 q 661 95 659 85 l 659 95 l 618 87 z "},"B":{"ha":1014,"x_min":40,"x_max":973,"o":"m 591 1525 q 843 1394 706 1516 q 973 1153 958 1264 l 973 974 q 867 746 973 890 q 764 526 764 671 l 764 494 q 743 420 764 452 l 743 361 q 753 323 753 330 q 748 296 753 317 q 756 274 756 282 l 756 269 q 753 244 756 259 q 764 217 764 225 l 764 212 q 756 182 764 203 q 764 160 764 180 l 764 157 q 737 114 764 134 q 631 33 705 33 l 604 33 q 583 0 586 0 l 450 0 q 431 33 441 0 l 404 33 q 287 98 343 33 q 284 114 287 100 q 290 136 290 134 q 279 165 279 152 l 279 171 q 284 198 279 176 q 273 222 277 198 q 281 252 273 229 q 273 282 273 265 q 290 323 273 284 l 290 404 q 265 570 273 446 q 170 719 227 680 q 40 974 49 860 l 40 1142 q 176 1402 47 1256 q 420 1525 306 1511 l 591 1525 m 81 1061 q 241 722 81 869 q 325 461 325 631 q 338 439 333 439 l 669 439 q 713 483 713 439 l 713 513 q 813 762 713 690 q 932 1058 932 897 q 726 1421 932 1282 q 504 1484 621 1484 q 143 1280 286 1484 q 81 1061 81 1167 m 382 1215 l 618 1215 q 661 1172 661 1208 l 661 1017 q 631 982 661 994 l 631 977 q 661 941 661 964 l 661 689 q 618 646 654 646 l 382 646 q 376 651 376 646 l 376 1210 q 382 1215 377 1215 m 471 1120 l 471 1025 l 566 1025 l 566 1120 l 471 1120 m 471 930 l 471 741 l 566 741 l 566 930 l 471 930 m 341 388 l 341 331 l 452 358 q 469 345 464 355 l 469 334 q 363 298 469 318 q 314 279 318 286 l 314 277 q 319 271 315 271 l 691 366 l 691 388 l 341 388 m 314 225 l 314 222 q 322 217 314 217 q 713 317 355 222 l 715 323 q 710 328 715 328 l 707 328 q 317 231 694 328 l 314 225 m 317 168 q 322 163 317 163 q 718 263 344 163 l 718 269 q 710 274 718 274 q 319 174 663 263 l 317 168 m 325 109 q 333 106 328 109 q 726 209 711 201 l 726 212 q 718 220 726 216 q 325 117 365 130 l 325 109 m 409 81 q 545 84 503 84 l 574 84 l 569 92 l 569 95 q 645 130 569 120 q 726 157 723 150 q 718 163 726 163 q 409 84 643 146 l 409 81 m 618 87 l 618 81 q 661 95 659 85 l 659 95 l 618 87 z "},"C":{"ha":1014,"x_min":40,"x_max":973,"o":"m 591 1525 q 843 1394 706 1516 q 973 1153 958 1264 l 973 974 q 867 746 973 890 q 764 526 764 671 l 764 494 q 743 420 764 452 l 743 361 q 753 323 753 330 q 748 296 753 317 q 756 274 756 282 l 756 269 q 753 244 756 259 q 764 217 764 225 l 764 212 q 756 182 764 203 q 764 160 764 180 l 764 157 q 737 114 764 134 q 631 33 705 33 l 604 33 q 583 0 586 0 l 450 0 q 431 33 441 0 l 404 33 q 287 98 343 33 q 284 114 287 100 q 290 136 290 134 q 279 165 279 152 l 279 171 q 284 198 279 176 q 273 222 277 198 q 281 252 273 229 q 273 282 273 265 q 290 323 273 284 l 290 404 q 265 570 273 446 q 170 719 227 680 q 40 974 49 860 l 40 1142 q 176 1402 47 1256 q 420 1525 306 1511 l 591 1525 m 81 1061 q 241 722 81 869 q 325 461 325 631 q 338 439 333 439 l 669 439 q 713 483 713 439 l 713 513 q 813 762 713 690 q 932 1058 932 897 q 726 1421 932 1282 q 504 1484 621 1484 q 143 1280 286 1484 q 81 1061 81 1167 m 417 1215 l 653 1215 q 659 1210 659 1215 l 659 1126 q 653 1120 659 1120 l 469 1120 l 469 741 l 653 741 q 659 735 659 740 l 659 651 q 653 646 659 646 l 417 646 q 374 689 374 652 l 374 1172 q 417 1215 380 1215 m 341 388 l 341 331 l 452 358 q 469 345 464 355 l 469 334 q 363 298 469 318 q 314 279 318 286 l 314 277 q 319 271 315 271 l 691 366 l 691 388 l 341 388 m 314 225 l 314 222 q 322 217 314 217 q 713 317 355 222 l 715 323 q 710 328 715 328 l 707 328 q 317 231 694 328 l 314 225 m 317 168 q 322 163 317 163 q 718 263 344 163 l 718 269 q 710 274 718 274 q 319 174 663 263 l 317 168 m 325 109 q 333 106 328 109 q 726 209 711 201 l 726 212 q 718 220 726 216 q 325 117 365 130 l 325 109 m 409 81 q 545 84 503 84 l 574 84 l 569 92 l 569 95 q 645 130 569 120 q 726 157 723 150 q 718 163 726 163 q 409 84 643 146 l 409 81 m 618 87 l 618 81 q 661 95 659 85 l 659 95 l 618 87 z "},"D":{"ha":1014,"x_min":40,"x_max":973,"o":"m 591 1525 q 843 1394 706 1516 q 973 1153 958 1264 l 973 974 q 867 746 973 890 q 764 526 764 671 l 764 494 q 743 420 764 452 l 743 361 q 753 323 753 330 q 748 296 753 317 q 756 274 756 282 l 756 269 q 753 244 756 259 q 764 217 764 225 l 764 212 q 756 182 764 203 q 764 160 764 180 l 764 157 q 737 114 764 134 q 631 33 705 33 l 604 33 q 583 0 586 0 l 450 0 q 431 33 441 0 l 404 33 q 287 98 343 33 q 284 114 287 100 q 290 136 290 134 q 279 165 279 152 l 279 171 q 284 198 279 176 q 273 222 277 198 q 281 252 273 229 q 273 282 273 265 q 290 323 273 284 l 290 404 q 265 570 273 446 q 170 719 227 680 q 40 974 49 860 l 40 1142 q 176 1402 47 1256 q 420 1525 306 1511 l 591 1525 m 81 1061 q 241 722 81 869 q 325 461 325 631 q 338 439 333 439 l 669 439 q 713 483 713 439 l 713 513 q 813 762 713 690 q 932 1058 932 897 q 726 1421 932 1282 q 504 1484 621 1484 q 143 1280 286 1484 q 81 1061 81 1167 m 379 1215 l 615 1215 q 659 1172 659 1208 l 659 689 q 615 646 652 646 l 379 646 q 374 651 374 646 l 374 1210 q 379 1215 374 1215 m 469 1120 l 469 741 l 564 741 l 564 1120 l 469 1120 m 341 388 l 341 331 l 452 358 q 469 345 464 355 l 469 334 q 363 298 469 318 q 314 279 318 286 l 314 277 q 319 271 315 271 l 691 366 l 691 388 l 341 388 m 314 225 l 314 222 q 322 217 314 217 q 713 317 355 222 l 715 323 q 710 328 715 328 l 707 328 q 317 231 694 328 l 314 225 m 317 168 q 322 163 317 163 q 718 263 344 163 l 718 269 q 710 274 718 274 q 319 174 663 263 l 317 168 m 325 109 q 333 106 328 109 q 726 209 711 201 l 726 212 q 718 220 726 216 q 325 117 365 130 l 325 109 m 409 81 q 545 84 503 84 l 574 84 l 569 92 l 569 95 q 645 130 569 120 q 726 157 723 150 q 718 163 726 163 q 409 84 643 146 l 409 81 m 618 87 l 618 81 q 661 95 659 85 l 659 95 l 618 87 z "},"E":{"ha":1014,"x_min":40,"x_max":973,"o":"m 591 1525 q 843 1394 706 1516 q 973 1153 958 1264 l 973 974 q 867 746 973 890 q 764 526 764 671 l 764 494 q 743 420 764 452 l 743 361 q 753 323 753 330 q 748 296 753 317 q 756 274 756 282 l 756 269 q 753 244 756 259 q 764 217 764 225 l 764 212 q 756 182 764 203 q 764 160 764 180 l 764 157 q 737 114 764 134 q 631 33 705 33 l 604 33 q 583 0 586 0 l 450 0 q 431 33 441 0 l 404 33 q 287 98 343 33 q 284 114 287 100 q 290 136 290 134 q 279 165 279 152 l 279 171 q 284 198 279 176 q 273 222 277 198 q 281 252 273 229 q 273 282 273 265 q 290 323 273 284 l 290 404 q 265 570 273 446 q 170 719 227 680 q 40 974 49 860 l 40 1142 q 176 1402 47 1256 q 420 1525 306 1511 l 591 1525 m 81 1061 q 241 722 81 869 q 325 461 325 631 q 338 439 333 439 l 669 439 q 713 483 713 439 l 713 513 q 813 762 713 690 q 932 1058 932 897 q 726 1421 932 1282 q 504 1484 621 1484 q 143 1280 286 1484 q 81 1061 81 1167 m 379 1215 l 653 1215 q 659 1210 659 1215 l 659 1126 q 653 1120 659 1120 l 469 1120 l 469 1025 l 653 1025 q 659 1020 659 1025 l 659 936 q 653 930 659 930 l 469 930 l 469 741 l 653 741 q 659 735 659 740 l 659 651 q 653 646 659 646 l 379 646 q 374 651 374 646 l 374 1210 q 379 1215 374 1215 m 341 388 l 341 331 l 452 358 q 469 345 464 355 l 469 334 q 363 298 469 318 q 314 279 318 286 l 314 277 q 319 271 315 271 l 691 366 l 691 388 l 341 388 m 314 225 l 314 222 q 322 217 314 217 q 713 317 355 222 l 715 323 q 710 328 715 328 l 707 328 q 317 231 694 328 l 314 225 m 317 168 q 322 163 317 163 q 718 263 344 163 l 718 269 q 710 274 718 274 q 319 174 663 263 l 317 168 m 325 109 q 333 106 328 109 q 726 209 711 201 l 726 212 q 718 220 726 216 q 325 117 365 130 l 325 109 m 409 81 q 545 84 503 84 l 574 84 l 569 92 l 569 95 q 645 130 569 120 q 726 157 723 150 q 718 163 726 163 q 409 84 643 146 l 409 81 m 618 87 l 618 81 q 661 95 659 85 l 659 95 l 618 87 z "},"F":{"ha":1014,"x_min":40,"x_max":973,"o":"m 591 1525 q 843 1394 706 1516 q 973 1153 958 1264 l 973 974 q 867 746 973 890 q 764 526 764 671 l 764 494 q 743 420 764 452 l 743 361 q 753 323 753 330 q 748 296 753 317 q 756 274 756 282 l 756 269 q 753 244 756 259 q 764 217 764 225 l 764 212 q 756 182 764 203 q 764 160 764 180 l 764 157 q 737 114 764 134 q 631 33 705 33 l 604 33 q 583 0 586 0 l 450 0 q 431 33 441 0 l 404 33 q 287 98 343 33 q 284 114 287 100 q 290 136 290 134 q 279 165 279 152 l 279 171 q 284 198 279 176 q 273 222 277 198 q 281 252 273 229 q 273 282 273 265 q 290 323 273 284 l 290 404 q 265 570 273 446 q 170 719 227 680 q 40 974 49 860 l 40 1142 q 176 1402 47 1256 q 420 1525 306 1511 l 591 1525 m 81 1061 q 241 722 81 869 q 325 461 325 631 q 338 439 333 439 l 669 439 q 713 483 713 439 l 713 513 q 813 762 713 690 q 932 1058 932 897 q 726 1421 932 1282 q 504 1484 621 1484 q 143 1280 286 1484 q 81 1061 81 1167 m 379 1215 l 653 1215 q 659 1210 659 1215 l 659 1126 q 653 1120 659 1120 l 469 1120 l 469 1025 l 653 1025 q 659 1020 659 1025 l 659 936 q 653 930 659 930 l 469 930 l 469 651 q 463 646 469 646 l 379 646 q 374 651 374 646 l 374 1210 q 379 1215 374 1215 m 341 388 l 341 331 l 452 358 q 469 345 464 355 l 469 334 q 363 298 469 318 q 314 279 318 286 l 314 277 q 319 271 315 271 l 691 366 l 691 388 l 341 388 m 314 225 l 314 222 q 322 217 314 217 q 713 317 355 222 l 715 323 q 710 328 715 328 l 707 328 q 317 231 694 328 l 314 225 m 317 168 q 322 163 317 163 q 718 263 344 163 l 718 269 q 710 274 718 274 q 319 174 663 263 l 317 168 m 325 109 q 333 106 328 109 q 726 209 711 201 l 726 212 q 718 220 726 216 q 325 117 365 130 l 325 109 m 409 81 q 545 84 503 84 l 574 84 l 569 92 l 569 95 q 645 130 569 120 q 726 157 723 150 q 718 163 726 163 q 409 84 643 146 l 409 81 m 618 87 l 618 81 q 661 95 659 85 l 659 95 l 618 87 z "},"G":{"ha":1014,"x_min":40,"x_max":973,"o":"m 591 1525 q 843 1394 706 1516 q 973 1153 958 1264 l 973 974 q 867 746 973 890 q 764 526 764 671 l 764 494 q 743 420 764 452 l 743 361 q 753 323 753 330 q 748 296 753 317 q 756 274 756 282 l 756 269 q 753 244 756 259 q 764 217 764 225 l 764 212 q 756 182 764 203 q 764 160 764 180 l 764 157 q 737 114 764 134 q 631 33 705 33 l 604 33 q 583 0 586 0 l 450 0 q 431 33 441 0 l 404 33 q 287 98 343 33 q 284 114 287 100 q 290 136 290 134 q 279 165 279 152 l 279 171 q 284 198 279 176 q 273 222 277 198 q 281 252 273 229 q 273 282 273 265 q 290 323 273 284 l 290 404 q 265 570 273 446 q 170 719 227 680 q 40 974 49 860 l 40 1142 q 176 1402 47 1256 q 420 1525 306 1511 l 591 1525 m 81 1061 q 241 722 81 869 q 325 461 325 631 q 338 439 333 439 l 669 439 q 713 483 713 439 l 713 513 q 813 762 713 690 q 932 1058 932 897 q 726 1421 932 1282 q 504 1484 621 1484 q 143 1280 286 1484 q 81 1061 81 1167 m 420 1215 l 656 1215 q 661 1210 661 1215 l 661 1126 q 656 1120 661 1120 l 471 1120 l 471 741 l 566 741 l 566 836 l 523 836 q 517 841 517 836 l 517 925 q 523 930 518 930 l 618 930 q 661 887 661 924 l 661 689 q 618 646 654 646 l 420 646 q 376 689 376 652 l 376 1172 q 420 1215 383 1215 m 341 388 l 341 331 l 452 358 q 469 345 464 355 l 469 334 q 363 298 469 318 q 314 279 318 286 l 314 277 q 319 271 315 271 l 691 366 l 691 388 l 341 388 m 314 225 l 314 222 q 322 217 314 217 q 713 317 355 222 l 715 323 q 710 328 715 328 l 707 328 q 317 231 694 328 l 314 225 m 317 168 q 322 163 317 163 q 718 263 344 163 l 718 269 q 710 274 718 274 q 319 174 663 263 l 317 168 m 325 109 q 333 106 328 109 q 726 209 711 201 l 726 212 q 718 220 726 216 q 325 117 365 130 l 325 109 m 409 81 q 545 84 503 84 l 574 84 l 569 92 l 569 95 q 645 130 569 120 q 726 157 723 150 q 718 163 726 163 q 409 84 643 146 l 409 81 m 618 87 l 618 81 q 661 95 659 85 l 659 95 l 618 87 z "},"H":{"ha":1014,"x_min":40,"x_max":973,"o":"m 591 1525 q 843 1394 706 1516 q 973 1153 958 1264 l 973 974 q 867 746 973 890 q 764 526 764 671 l 764 494 q 743 420 764 452 l 743 361 q 753 323 753 330 q 748 296 753 317 q 756 274 756 282 l 756 269 q 753 244 756 259 q 764 217 764 225 l 764 212 q 756 182 764 203 q 764 160 764 180 l 764 157 q 737 114 764 134 q 631 33 705 33 l 604 33 q 583 0 586 0 l 450 0 q 431 33 441 0 l 404 33 q 287 98 343 33 q 284 114 287 100 q 290 136 290 134 q 279 165 279 152 l 279 171 q 284 198 279 176 q 273 222 277 198 q 281 252 273 229 q 273 282 273 265 q 290 323 273 284 l 290 404 q 265 570 273 446 q 170 719 227 680 q 40 974 49 860 l 40 1142 q 176 1402 47 1256 q 420 1525 306 1511 l 591 1525 m 81 1061 q 241 722 81 869 q 325 461 325 631 q 338 439 333 439 l 669 439 q 713 483 713 439 l 713 513 q 813 762 713 690 q 932 1058 932 897 q 726 1421 932 1282 q 504 1484 621 1484 q 143 1280 286 1484 q 81 1061 81 1167 m 379 1215 l 463 1215 q 469 1210 469 1215 l 469 979 l 564 979 l 564 1210 q 569 1215 564 1215 l 653 1215 q 659 1210 659 1215 l 659 651 q 653 646 659 646 l 569 646 q 564 651 564 646 l 564 882 l 469 882 l 469 651 q 463 646 469 646 l 379 646 q 374 651 374 646 l 374 1210 q 379 1215 374 1215 m 341 388 l 341 331 l 452 358 q 469 345 464 355 l 469 334 q 363 298 469 318 q 314 279 318 286 l 314 277 q 319 271 315 271 l 691 366 l 691 388 l 341 388 m 314 225 l 314 222 q 322 217 314 217 q 713 317 355 222 l 715 323 q 710 328 715 328 l 707 328 q 317 231 694 328 l 314 225 m 317 168 q 322 163 317 163 q 718 263 344 163 l 718 269 q 710 274 718 274 q 319 174 663 263 l 317 168 m 325 109 q 333 106 328 109 q 726 209 711 201 l 726 212 q 718 220 726 216 q 325 117 365 130 l 325 109 m 409 81 q 545 84 503 84 l 574 84 l 569 92 l 569 95 q 645 130 569 120 q 726 157 723 150 q 718 163 726 163 q 409 84 643 146 l 409 81 m 618 87 l 618 81 q 661 95 659 85 l 659 95 l 618 87 z "},"I":{"ha":1014,"x_min":40,"x_max":973,"o":"m 591 1525 q 843 1394 706 1516 q 973 1153 958 1264 l 973 974 q 867 746 973 890 q 764 526 764 671 l 764 494 q 743 420 764 452 l 743 361 q 753 323 753 330 q 748 296 753 317 q 756 274 756 282 l 756 269 q 753 244 756 259 q 764 217 764 225 l 764 212 q 756 182 764 203 q 764 160 764 180 l 764 157 q 737 114 764 134 q 631 33 705 33 l 604 33 q 583 0 586 0 l 450 0 q 431 33 441 0 l 404 33 q 287 98 343 33 q 284 114 287 100 q 290 136 290 134 q 279 165 279 152 l 279 171 q 284 198 279 176 q 273 222 277 198 q 281 252 273 229 q 273 282 273 265 q 290 323 273 284 l 290 404 q 265 570 273 446 q 170 719 227 680 q 40 974 49 860 l 40 1142 q 176 1402 47 1256 q 420 1525 306 1511 l 591 1525 m 81 1061 q 241 722 81 869 q 325 461 325 631 q 338 439 333 439 l 669 439 q 713 483 713 439 l 713 513 q 813 762 713 690 q 932 1058 932 897 q 726 1421 932 1282 q 504 1484 621 1484 q 143 1280 286 1484 q 81 1061 81 1167 m 474 1215 l 558 1215 q 564 1210 564 1215 l 564 651 q 558 646 564 646 l 474 646 q 469 651 469 646 l 469 1210 q 474 1215 469 1215 m 341 388 l 341 331 l 452 358 q 469 345 464 355 l 469 334 q 363 298 469 318 q 314 279 318 286 l 314 277 q 319 271 315 271 l 691 366 l 691 388 l 341 388 m 314 225 l 314 222 q 322 217 314 217 q 713 317 355 222 l 715 323 q 710 328 715 328 l 707 328 q 317 231 694 328 l 314 225 m 317 168 q 322 163 317 163 q 718 263 344 163 l 718 269 q 710 274 718 274 q 319 174 663 263 l 317 168 m 325 109 q 333 106 328 109 q 726 209 711 201 l 726 212 q 718 220 726 216 q 325 117 365 130 l 325 109 m 409 81 q 545 84 503 84 l 574 84 l 569 92 l 569 95 q 645 130 569 120 q 726 157 723 150 q 718 163 726 163 q 409 84 643 146 l 409 81 m 618 87 l 618 81 q 661 95 659 85 l 659 95 l 618 87 z "},"J":{"ha":1014,"x_min":40,"x_max":973,"o":"m 591 1525 q 843 1394 706 1516 q 973 1153 958 1264 l 973 974 q 867 746 973 890 q 764 526 764 671 l 764 494 q 743 420 764 452 l 743 361 q 753 323 753 330 q 748 296 753 317 q 756 274 756 282 l 756 269 q 753 244 756 259 q 764 217 764 225 l 764 212 q 756 182 764 203 q 764 160 764 180 l 764 157 q 737 114 764 134 q 631 33 705 33 l 604 33 q 583 0 586 0 l 450 0 q 431 33 441 0 l 404 33 q 287 98 343 33 q 284 114 287 100 q 290 136 290 134 q 279 165 279 152 l 279 171 q 284 198 279 176 q 273 222 277 198 q 281 252 273 229 q 273 282 273 265 q 290 323 273 284 l 290 404 q 265 570 273 446 q 170 719 227 680 q 40 974 49 860 l 40 1142 q 176 1402 47 1256 q 420 1525 306 1511 l 591 1525 m 81 1061 q 241 722 81 869 q 325 461 325 631 q 338 439 333 439 l 669 439 q 713 483 713 439 l 713 513 q 813 762 713 690 q 932 1058 932 897 q 726 1421 932 1282 q 504 1484 621 1484 q 143 1280 286 1484 q 81 1061 81 1167 m 569 1215 l 653 1215 q 659 1210 659 1215 l 659 689 q 615 646 652 646 l 417 646 q 374 689 374 652 l 374 879 q 379 884 374 884 l 463 884 q 469 879 469 884 l 469 741 l 564 741 l 564 1210 q 569 1215 564 1215 m 341 388 l 341 331 l 452 358 q 469 345 464 355 l 469 334 q 363 298 469 318 q 314 279 318 286 l 314 277 q 319 271 315 271 l 691 366 l 691 388 l 341 388 m 314 225 l 314 222 q 322 217 314 217 q 713 317 355 222 l 715 323 q 710 328 715 328 l 707 328 q 317 231 694 328 l 314 225 m 317 168 q 322 163 317 163 q 718 263 344 163 l 718 269 q 710 274 718 274 q 319 174 663 263 l 317 168 m 325 109 q 333 106 328 109 q 726 209 711 201 l 726 212 q 718 220 726 216 q 325 117 365 130 l 325 109 m 409 81 q 545 84 503 84 l 574 84 l 569 92 l 569 95 q 645 130 569 120 q 726 157 723 150 q 718 163 726 163 q 409 84 643 146 l 409 81 m 618 87 l 618 81 q 661 95 659 85 l 659 95 l 618 87 z "},"K":{"ha":1014,"x_min":40,"x_max":973,"o":"m 591 1525 q 843 1394 706 1516 q 973 1153 958 1264 l 973 974 q 867 746 973 890 q 764 526 764 671 l 764 494 q 743 420 764 452 l 743 361 q 753 323 753 330 q 748 296 753 317 q 756 274 756 282 l 756 269 q 753 244 756 259 q 764 217 764 225 l 764 212 q 756 182 764 203 q 764 160 764 180 l 764 157 q 737 114 764 134 q 631 33 705 33 l 604 33 q 583 0 586 0 l 450 0 q 431 33 441 0 l 404 33 q 287 98 343 33 q 284 114 287 100 q 290 136 290 134 q 279 165 279 152 l 279 171 q 284 198 279 176 q 273 222 277 198 q 281 252 273 229 q 273 282 273 265 q 290 323 273 284 l 290 404 q 265 570 273 446 q 170 719 227 680 q 40 974 49 860 l 40 1142 q 176 1402 47 1256 q 420 1525 306 1511 l 591 1525 m 81 1061 q 241 722 81 869 q 325 461 325 631 q 338 439 333 439 l 669 439 q 713 483 713 439 l 713 513 q 813 762 713 690 q 932 1058 932 897 q 726 1421 932 1282 q 504 1484 621 1484 q 143 1280 286 1484 q 81 1061 81 1167 m 379 1215 l 463 1215 q 469 1210 469 1215 l 469 1031 l 471 1031 q 566 1215 559 1215 l 653 1215 l 659 1213 q 566 1023 566 1031 l 659 648 l 653 646 l 566 646 q 471 1015 559 646 l 469 1015 l 469 651 q 463 646 469 646 l 379 646 q 374 651 374 646 l 374 1210 q 379 1215 374 1215 m 341 388 l 341 331 l 452 358 q 469 345 464 355 l 469 334 q 363 298 469 318 q 314 279 318 286 l 314 277 q 319 271 315 271 l 691 366 l 691 388 l 341 388 m 314 225 l 314 222 q 322 217 314 217 q 713 317 355 222 l 715 323 q 710 328 715 328 l 707 328 q 317 231 694 328 l 314 225 m 317 168 q 322 163 317 163 q 718 263 344 163 l 718 269 q 710 274 718 274 q 319 174 663 263 l 317 168 m 325 109 q 333 106 328 109 q 726 209 711 201 l 726 212 q 718 220 726 216 q 325 117 365 130 l 325 109 m 409 81 q 545 84 503 84 l 574 84 l 569 92 l 569 95 q 645 130 569 120 q 726 157 723 150 q 718 163 726 163 q 409 84 643 146 l 409 81 m 618 87 l 618 81 q 661 95 659 85 l 659 95 l 618 87 z "},"L":{"ha":1014,"x_min":40,"x_max":973,"o":"m 591 1525 q 843 1394 706 1516 q 973 1153 958 1264 l 973 974 q 867 746 973 890 q 764 526 764 671 l 764 494 q 743 420 764 452 l 743 361 q 753 323 753 330 q 748 296 753 317 q 756 274 756 282 l 756 269 q 753 244 756 259 q 764 217 764 225 l 764 212 q 756 182 764 203 q 764 160 764 180 l 764 157 q 737 114 764 134 q 631 33 705 33 l 604 33 q 583 0 586 0 l 450 0 q 431 33 441 0 l 404 33 q 287 98 343 33 q 284 114 287 100 q 290 136 290 134 q 279 165 279 152 l 279 171 q 284 198 279 176 q 273 222 277 198 q 281 252 273 229 q 273 282 273 265 q 290 323 273 284 l 290 404 q 265 570 273 446 q 170 719 227 680 q 40 974 49 860 l 40 1142 q 176 1402 47 1256 q 420 1525 306 1511 l 591 1525 m 81 1061 q 241 722 81 869 q 325 461 325 631 q 338 439 333 439 l 669 439 q 713 483 713 439 l 713 513 q 813 762 713 690 q 932 1058 932 897 q 726 1421 932 1282 q 504 1484 621 1484 q 143 1280 286 1484 q 81 1061 81 1167 m 379 1215 l 463 1215 q 469 1210 469 1215 l 469 741 l 653 741 q 659 735 659 740 l 659 651 q 653 646 659 646 l 379 646 q 374 651 374 646 l 374 1210 q 379 1215 374 1215 m 341 388 l 341 331 l 452 358 q 469 345 464 355 l 469 334 q 363 298 469 318 q 314 279 318 286 l 314 277 q 319 271 315 271 l 691 366 l 691 388 l 341 388 m 314 225 l 314 222 q 322 217 314 217 q 713 317 355 222 l 715 323 q 710 328 715 328 l 707 328 q 317 231 694 328 l 314 225 m 317 168 q 322 163 317 163 q 718 263 344 163 l 718 269 q 710 274 718 274 q 319 174 663 263 l 317 168 m 325 109 q 333 106 328 109 q 726 209 711 201 l 726 212 q 718 220 726 216 q 325 117 365 130 l 325 109 m 409 81 q 545 84 503 84 l 574 84 l 569 92 l 569 95 q 645 130 569 120 q 726 157 723 150 q 718 163 726 163 q 409 84 643 146 l 409 81 m 618 87 l 618 81 q 661 95 659 85 l 659 95 l 618 87 z "},"M":{"ha":1014,"x_min":40,"x_max":973,"o":"m 591 1525 q 843 1394 706 1516 q 973 1153 958 1264 l 973 974 q 867 746 973 890 q 764 526 764 671 l 764 494 q 743 420 764 452 l 743 361 q 753 323 753 330 q 748 296 753 317 q 756 274 756 282 l 756 269 q 753 244 756 259 q 764 217 764 225 l 764 212 q 756 182 764 203 q 764 160 764 180 l 764 157 q 737 114 764 134 q 631 33 705 33 l 604 33 q 583 0 586 0 l 450 0 q 431 33 441 0 l 404 33 q 287 98 343 33 q 284 114 287 100 q 290 136 290 134 q 279 165 279 152 l 279 171 q 284 198 279 176 q 273 222 277 198 q 281 252 273 229 q 273 282 273 265 q 290 323 273 284 l 290 404 q 265 570 273 446 q 170 719 227 680 q 40 974 49 860 l 40 1142 q 176 1402 47 1256 q 420 1525 306 1511 l 591 1525 m 81 1061 q 238 724 81 870 q 271 684 269 684 l 271 1210 q 276 1215 271 1215 l 363 1215 q 507 792 370 1215 l 509 792 q 653 1215 646 1215 l 740 1215 q 745 1210 745 1215 l 745 684 l 748 684 q 848 803 748 701 q 932 1058 932 928 q 726 1421 932 1282 q 504 1484 621 1484 q 143 1280 286 1484 q 81 1061 81 1167 m 366 922 l 366 651 q 360 646 366 646 l 292 646 l 292 643 q 325 461 325 578 q 338 439 333 439 l 669 439 q 713 483 713 439 l 713 513 q 729 646 713 586 l 656 646 q 650 651 650 646 l 650 922 l 648 922 q 553 646 560 646 l 463 646 q 368 922 456 646 l 366 922 m 341 388 l 341 331 l 452 358 q 469 345 464 355 l 469 334 q 363 298 469 318 q 314 279 318 286 l 314 277 q 319 271 315 271 l 691 366 l 691 388 l 341 388 m 314 225 l 314 222 q 322 217 314 217 q 713 317 355 222 l 715 323 q 710 328 715 328 l 707 328 q 317 231 694 328 l 314 225 m 317 168 q 322 163 317 163 q 718 263 344 163 l 718 269 q 710 274 718 274 q 319 174 663 263 l 317 168 m 325 109 q 333 106 328 109 q 726 209 711 201 l 726 212 q 718 220 726 216 q 325 117 365 130 l 325 109 m 409 81 q 545 84 503 84 l 574 84 l 569 92 l 569 95 q 645 130 569 120 q 726 157 723 150 q 718 163 726 163 q 409 84 643 146 l 409 81 m 618 87 l 618 81 q 661 95 659 85 l 659 95 l 618 87 z "},"N":{"ha":1014,"x_min":40,"x_max":973,"o":"m 591 1525 q 843 1394 706 1516 q 973 1153 958 1264 l 973 974 q 867 746 973 890 q 764 526 764 671 l 764 494 q 743 420 764 452 l 743 361 q 753 323 753 330 q 748 296 753 317 q 756 274 756 282 l 756 269 q 753 244 756 259 q 764 217 764 225 l 764 212 q 756 182 764 203 q 764 160 764 180 l 764 157 q 737 114 764 134 q 631 33 705 33 l 604 33 q 583 0 586 0 l 450 0 q 431 33 441 0 l 404 33 q 287 98 343 33 q 284 114 287 100 q 290 136 290 134 q 279 165 279 152 l 279 171 q 284 198 279 176 q 273 222 277 198 q 281 252 273 229 q 273 282 273 265 q 290 323 273 284 l 290 404 q 265 570 273 446 q 170 719 227 680 q 40 974 49 860 l 40 1142 q 176 1402 47 1256 q 420 1525 306 1511 l 591 1525 m 81 1061 q 241 722 81 869 q 325 461 325 631 q 338 439 333 439 l 669 439 q 713 483 713 439 l 713 513 q 813 762 713 690 q 932 1058 932 897 q 726 1421 932 1282 q 504 1484 621 1484 q 143 1280 286 1484 q 81 1061 81 1167 m 382 1215 l 469 1215 q 564 939 476 1215 l 566 939 l 566 1210 q 572 1215 567 1215 l 656 1215 q 661 1210 661 1215 l 661 651 q 656 646 661 646 l 569 646 q 474 922 562 646 l 471 922 l 471 651 q 466 646 471 646 l 382 646 q 376 651 376 646 l 376 1210 q 382 1215 377 1215 m 341 388 l 341 331 l 452 358 q 469 345 464 355 l 469 334 q 363 298 469 318 q 314 279 318 286 l 314 277 q 319 271 315 271 l 691 366 l 691 388 l 341 388 m 314 225 l 314 222 q 322 217 314 217 q 713 317 355 222 l 715 323 q 710 328 715 328 l 707 328 q 317 231 694 328 l 314 225 m 317 168 q 322 163 317 163 q 718 263 344 163 l 718 269 q 710 274 718 274 q 319 174 663 263 l 317 168 m 325 109 q 333 106 328 109 q 726 209 711 201 l 726 212 q 718 220 726 216 q 325 117 365 130 l 325 109 m 409 81 q 545 84 503 84 l 574 84 l 569 92 l 569 95 q 645 130 569 120 q 726 157 723 150 q 718 163 726 163 q 409 84 643 146 l 409 81 m 618 87 l 618 81 q 661 95 659 85 l 659 95 l 618 87 z "},"O":{"ha":1014,"x_min":40,"x_max":973,"o":"m 591 1525 q 843 1394 706 1516 q 973 1153 958 1264 l 973 974 q 867 746 973 890 q 764 526 764 671 l 764 494 q 743 420 764 452 l 743 361 q 753 323 753 330 q 748 296 753 317 q 756 274 756 282 l 756 269 q 753 244 756 259 q 764 217 764 225 l 764 212 q 756 182 764 203 q 764 160 764 180 l 764 157 q 737 114 764 134 q 631 33 705 33 l 604 33 q 583 0 586 0 l 450 0 q 431 33 441 0 l 404 33 q 287 98 343 33 q 284 114 287 100 q 290 136 290 134 q 279 165 279 152 l 279 171 q 284 198 279 176 q 273 222 277 198 q 281 252 273 229 q 273 282 273 265 q 290 323 273 284 l 290 404 q 265 570 273 446 q 170 719 227 680 q 40 974 49 860 l 40 1142 q 176 1402 47 1256 q 420 1525 306 1511 l 591 1525 m 81 1061 q 241 722 81 869 q 325 461 325 631 q 338 439 333 439 l 669 439 q 713 483 713 439 l 713 513 q 813 762 713 690 q 932 1058 932 897 q 726 1421 932 1282 q 504 1484 621 1484 q 143 1280 286 1484 q 81 1061 81 1167 m 417 1215 l 615 1215 q 659 1172 659 1208 l 659 689 q 615 646 652 646 l 417 646 q 374 689 374 652 l 374 1172 q 417 1215 380 1215 m 469 1120 l 469 741 l 564 741 l 564 1120 l 469 1120 m 341 388 l 341 331 l 452 358 q 469 345 464 355 l 469 334 q 363 298 469 318 q 314 279 318 286 l 314 277 q 319 271 315 271 l 691 366 l 691 388 l 341 388 m 314 225 l 314 222 q 322 217 314 217 q 713 317 355 222 l 715 323 q 710 328 715 328 l 707 328 q 317 231 694 328 l 314 225 m 317 168 q 322 163 317 163 q 718 263 344 163 l 718 269 q 710 274 718 274 q 319 174 663 263 l 317 168 m 325 109 q 333 106 328 109 q 726 209 711 201 l 726 212 q 718 220 726 216 q 325 117 365 130 l 325 109 m 409 81 q 545 84 503 84 l 574 84 l 569 92 l 569 95 q 645 130 569 120 q 726 157 723 150 q 718 163 726 163 q 409 84 643 146 l 409 81 m 618 87 l 618 81 q 661 95 659 85 l 659 95 l 618 87 z "},"P":{"ha":1014,"x_min":40,"x_max":973,"o":"m 591 1525 q 843 1394 706 1516 q 973 1153 958 1264 l 973 974 q 867 746 973 890 q 764 526 764 671 l 764 494 q 743 420 764 452 l 743 361 q 753 323 753 330 q 748 296 753 317 q 756 274 756 282 l 756 269 q 753 244 756 259 q 764 217 764 225 l 764 212 q 756 182 764 203 q 764 160 764 180 l 764 157 q 737 114 764 134 q 631 33 705 33 l 604 33 q 583 0 586 0 l 450 0 q 431 33 441 0 l 404 33 q 287 98 343 33 q 284 114 287 100 q 290 136 290 134 q 279 165 279 152 l 279 171 q 284 198 279 176 q 273 222 277 198 q 281 252 273 229 q 273 282 273 265 q 290 323 273 284 l 290 404 q 265 570 273 446 q 170 719 227 680 q 40 974 49 860 l 40 1142 q 176 1402 47 1256 q 420 1525 306 1511 l 591 1525 m 81 1061 q 241 722 81 869 q 325 461 325 631 q 338 439 333 439 l 669 439 q 713 483 713 439 l 713 513 q 813 762 713 690 q 932 1058 932 897 q 726 1421 932 1282 q 504 1484 621 1484 q 143 1280 286 1484 q 81 1061 81 1167 m 379 1215 l 615 1215 q 659 1172 659 1208 l 659 879 q 615 836 652 836 l 469 836 l 469 651 q 463 646 469 646 l 379 646 q 374 651 374 646 l 374 1210 q 379 1215 374 1215 m 469 1120 l 469 930 l 564 930 l 564 1120 l 469 1120 m 341 388 l 341 331 l 452 358 q 469 345 464 355 l 469 334 q 363 298 469 318 q 314 279 318 286 l 314 277 q 319 271 315 271 l 691 366 l 691 388 l 341 388 m 314 225 l 314 222 q 322 217 314 217 q 713 317 355 222 l 715 323 q 710 328 715 328 l 707 328 q 317 231 694 328 l 314 225 m 317 168 q 322 163 317 163 q 718 263 344 163 l 718 269 q 710 274 718 274 q 319 174 663 263 l 317 168 m 325 109 q 333 106 328 109 q 726 209 711 201 l 726 212 q 718 220 726 216 q 325 117 365 130 l 325 109 m 409 81 q 545 84 503 84 l 574 84 l 569 92 l 569 95 q 645 130 569 120 q 726 157 723 150 q 718 163 726 163 q 409 84 643 146 l 409 81 m 618 87 l 618 81 q 661 95 659 85 l 659 95 l 618 87 z "},"Q":{"ha":1014,"x_min":40,"x_max":973,"o":"m 591 1525 q 843 1394 706 1516 q 973 1153 958 1264 l 973 974 q 867 746 973 890 q 764 526 764 671 l 764 494 q 743 420 764 452 l 743 361 q 753 323 753 330 q 748 296 753 317 q 756 274 756 282 l 756 269 q 753 244 756 259 q 764 217 764 225 l 764 212 q 756 182 764 203 q 764 160 764 180 l 764 157 q 737 114 764 134 q 631 33 705 33 l 604 33 q 583 0 586 0 l 450 0 q 431 33 441 0 l 404 33 q 287 98 343 33 q 284 114 287 100 q 290 136 290 134 q 279 165 279 152 l 279 171 q 284 198 279 176 q 273 222 277 198 q 281 252 273 229 q 273 282 273 265 q 290 323 273 284 l 290 404 q 265 570 273 446 q 170 719 227 680 q 40 974 49 860 l 40 1142 q 176 1402 47 1256 q 420 1525 306 1511 l 591 1525 m 81 1061 q 241 722 81 869 q 325 461 325 631 q 338 439 333 439 l 669 439 q 713 483 713 439 l 713 513 q 813 762 713 690 q 932 1058 932 897 q 726 1421 932 1282 q 504 1484 621 1484 q 143 1280 286 1484 q 81 1061 81 1167 m 420 1213 l 618 1213 q 661 1169 661 1206 l 661 686 q 618 643 654 643 l 566 643 l 566 553 q 561 548 566 548 l 477 548 q 471 553 471 548 l 471 643 l 420 643 q 376 686 376 650 l 376 1169 q 420 1213 383 1213 m 471 1118 l 471 738 l 566 738 l 566 1118 l 471 1118 m 341 388 l 341 331 l 452 358 q 469 345 464 355 l 469 334 q 363 298 469 318 q 314 279 318 286 l 314 277 q 319 271 315 271 l 691 366 l 691 388 l 341 388 m 314 225 l 314 222 q 322 217 314 217 q 713 317 355 222 l 715 323 q 710 328 715 328 l 707 328 q 317 231 694 328 l 314 225 m 317 168 q 322 163 317 163 q 718 263 344 163 l 718 269 q 710 274 718 274 q 319 174 663 263 l 317 168 m 325 109 q 333 106 328 109 q 726 209 711 201 l 726 212 q 718 220 726 216 q 325 117 365 130 l 325 109 m 409 81 q 545 84 503 84 l 574 84 l 569 92 l 569 95 q 645 130 569 120 q 726 157 723 150 q 718 163 726 163 q 409 84 643 146 l 409 81 m 618 87 l 618 81 q 661 95 659 85 l 659 95 l 618 87 z "},"R":{"ha":1014,"x_min":40,"x_max":973,"o":"m 591 1525 q 843 1394 706 1516 q 973 1153 958 1264 l 973 974 q 867 746 973 890 q 764 526 764 671 l 764 494 q 743 420 764 452 l 743 361 q 753 323 753 330 q 748 296 753 317 q 756 274 756 282 l 756 269 q 753 244 756 259 q 764 217 764 225 l 764 212 q 756 182 764 203 q 764 160 764 180 l 764 157 q 737 114 764 134 q 631 33 705 33 l 604 33 q 583 0 586 0 l 450 0 q 431 33 441 0 l 404 33 q 287 98 343 33 q 284 114 287 100 q 290 136 290 134 q 279 165 279 152 l 279 171 q 284 198 279 176 q 273 222 277 198 q 281 252 273 229 q 273 282 273 265 q 290 323 273 284 l 290 404 q 265 570 273 446 q 170 719 227 680 q 40 974 49 860 l 40 1142 q 176 1402 47 1256 q 420 1525 306 1511 l 591 1525 m 81 1061 q 241 722 81 869 q 325 461 325 631 q 338 439 333 439 l 669 439 q 713 483 713 439 l 713 513 q 813 762 713 690 q 932 1058 932 897 q 726 1421 932 1282 q 504 1484 621 1484 q 143 1280 286 1484 q 81 1061 81 1167 m 379 1215 l 615 1215 q 659 1172 659 1208 l 659 879 q 615 836 652 836 l 566 836 l 566 833 l 659 648 l 653 646 l 566 646 q 471 830 559 646 l 469 830 l 469 651 q 463 646 469 646 l 379 646 q 374 651 374 646 l 374 1210 q 379 1215 374 1215 m 469 1120 l 469 930 l 564 930 l 564 1120 l 469 1120 m 341 388 l 341 331 l 452 358 q 469 345 464 355 l 469 334 q 363 298 469 318 q 314 279 318 286 l 314 277 q 319 271 315 271 l 691 366 l 691 388 l 341 388 m 314 225 l 314 222 q 322 217 314 217 q 713 317 355 222 l 715 323 q 710 328 715 328 l 707 328 q 317 231 694 328 l 314 225 m 317 168 q 322 163 317 163 q 718 263 344 163 l 718 269 q 710 274 718 274 q 319 174 663 263 l 317 168 m 325 109 q 333 106 328 109 q 726 209 711 201 l 726 212 q 718 220 726 216 q 325 117 365 130 l 325 109 m 409 81 q 545 84 503 84 l 574 84 l 569 92 l 569 95 q 645 130 569 120 q 726 157 723 150 q 718 163 726 163 q 409 84 643 146 l 409 81 m 618 87 l 618 81 q 661 95 659 85 l 659 95 l 618 87 z "},"S":{"ha":1014,"x_min":40,"x_max":973,"o":"m 591 1525 q 843 1394 706 1516 q 973 1153 958 1264 l 973 974 q 867 746 973 890 q 764 526 764 671 l 764 494 q 743 420 764 452 l 743 361 q 753 323 753 330 q 748 296 753 317 q 756 274 756 282 l 756 269 q 753 244 756 259 q 764 217 764 225 l 764 212 q 756 182 764 203 q 764 160 764 180 l 764 157 q 737 114 764 134 q 631 33 705 33 l 604 33 q 583 0 586 0 l 450 0 q 431 33 441 0 l 404 33 q 287 98 343 33 q 284 114 287 100 q 290 136 290 134 q 279 165 279 152 l 279 171 q 284 198 279 176 q 273 222 277 198 q 281 252 273 229 q 273 282 273 265 q 290 323 273 284 l 290 404 q 265 570 273 446 q 170 719 227 680 q 40 974 49 860 l 40 1142 q 176 1402 47 1256 q 420 1525 306 1511 l 591 1525 m 81 1061 q 241 722 81 869 q 325 461 325 631 q 338 439 333 439 l 669 439 q 713 483 713 439 l 713 513 q 813 762 713 690 q 932 1058 932 897 q 726 1421 932 1282 q 504 1484 621 1484 q 143 1280 286 1484 q 81 1061 81 1167 m 417 1215 l 653 1215 q 659 1210 659 1215 l 659 1126 q 653 1120 659 1120 l 469 1120 l 469 1025 l 615 1025 q 659 982 659 1019 l 659 689 q 615 646 652 646 l 379 646 q 374 651 374 646 l 374 735 q 379 741 374 741 l 564 741 l 564 930 l 417 930 q 374 974 374 937 l 374 1172 q 417 1215 380 1215 m 341 388 l 341 331 l 452 358 q 469 345 464 355 l 469 334 q 363 298 469 318 q 314 279 318 286 l 314 277 q 319 271 315 271 l 691 366 l 691 388 l 341 388 m 314 225 l 314 222 q 322 217 314 217 q 713 317 355 222 l 715 323 q 710 328 715 328 l 707 328 q 317 231 694 328 l 314 225 m 317 168 q 322 163 317 163 q 718 263 344 163 l 718 269 q 710 274 718 274 q 319 174 663 263 l 317 168 m 325 109 q 333 106 328 109 q 726 209 711 201 l 726 212 q 718 220 726 216 q 325 117 365 130 l 325 109 m 409 81 q 545 84 503 84 l 574 84 l 569 92 l 569 95 q 645 130 569 120 q 726 157 723 150 q 718 163 726 163 q 409 84 643 146 l 409 81 m 618 87 l 618 81 q 661 95 659 85 l 659 95 l 618 87 z "},"T":{"ha":1014,"x_min":40,"x_max":973,"o":"m 591 1525 q 843 1394 706 1516 q 973 1153 958 1264 l 973 974 q 867 746 973 890 q 764 526 764 671 l 764 494 q 743 420 764 452 l 743 361 q 753 323 753 330 q 748 296 753 317 q 756 274 756 282 l 756 269 q 753 244 756 259 q 764 217 764 225 l 764 212 q 756 182 764 203 q 764 160 764 180 l 764 157 q 737 114 764 134 q 631 33 705 33 l 604 33 q 583 0 586 0 l 450 0 q 431 33 441 0 l 404 33 q 287 98 343 33 q 284 114 287 100 q 290 136 290 134 q 279 165 279 152 l 279 171 q 284 198 279 176 q 273 222 277 198 q 281 252 273 229 q 273 282 273 265 q 290 323 273 284 l 290 404 q 265 570 273 446 q 170 719 227 680 q 40 974 49 860 l 40 1142 q 176 1402 47 1256 q 420 1525 306 1511 l 591 1525 m 81 1061 q 241 722 81 869 q 325 461 325 631 q 338 439 333 439 l 669 439 q 713 483 713 439 l 713 513 q 813 762 713 690 q 932 1058 932 897 q 726 1421 932 1282 q 504 1484 621 1484 q 143 1280 286 1484 q 81 1061 81 1167 m 379 1215 l 653 1215 q 659 1210 659 1215 l 659 1126 q 653 1120 659 1120 l 564 1120 l 564 651 q 558 646 564 646 l 474 646 q 469 651 469 646 l 469 1120 l 379 1120 q 374 1126 374 1120 l 374 1210 q 379 1215 374 1215 m 341 388 l 341 331 l 452 358 q 469 345 464 355 l 469 334 q 363 298 469 318 q 314 279 318 286 l 314 277 q 319 271 315 271 l 691 366 l 691 388 l 341 388 m 314 225 l 314 222 q 322 217 314 217 q 713 317 355 222 l 715 323 q 710 328 715 328 l 707 328 q 317 231 694 328 l 314 225 m 317 168 q 322 163 317 163 q 718 263 344 163 l 718 269 q 710 274 718 274 q 319 174 663 263 l 317 168 m 325 109 q 333 106 328 109 q 726 209 711 201 l 726 212 q 718 220 726 216 q 325 117 365 130 l 325 109 m 409 81 q 545 84 503 84 l 574 84 l 569 92 l 569 95 q 645 130 569 120 q 726 157 723 150 q 718 163 726 163 q 409 84 643 146 l 409 81 m 618 87 l 618 81 q 661 95 659 85 l 659 95 l 618 87 z "},"U":{"ha":1014,"x_min":40,"x_max":973,"o":"m 591 1525 q 843 1394 706 1516 q 973 1153 958 1264 l 973 974 q 867 746 973 890 q 764 526 764 671 l 764 494 q 743 420 764 452 l 743 361 q 753 323 753 330 q 748 296 753 317 q 756 274 756 282 l 756 269 q 753 244 756 259 q 764 217 764 225 l 764 212 q 756 182 764 203 q 764 160 764 180 l 764 157 q 737 114 764 134 q 631 33 705 33 l 604 33 q 583 0 586 0 l 450 0 q 431 33 441 0 l 404 33 q 287 98 343 33 q 284 114 287 100 q 290 136 290 134 q 279 165 279 152 l 279 171 q 284 198 279 176 q 273 222 277 198 q 281 252 273 229 q 273 282 273 265 q 290 323 273 284 l 290 404 q 265 570 273 446 q 170 719 227 680 q 40 974 49 860 l 40 1142 q 176 1402 47 1256 q 420 1525 306 1511 l 591 1525 m 81 1061 q 241 722 81 869 q 325 461 325 631 q 338 439 333 439 l 669 439 q 713 483 713 439 l 713 513 q 813 762 713 690 q 932 1058 932 897 q 726 1421 932 1282 q 504 1484 621 1484 q 143 1280 286 1484 q 81 1061 81 1167 m 379 1215 l 463 1215 q 469 1210 469 1215 l 469 741 l 564 741 l 564 1210 q 569 1215 564 1215 l 653 1215 q 659 1210 659 1215 l 659 689 q 615 646 652 646 l 417 646 q 374 689 374 652 l 374 1210 q 379 1215 374 1215 m 341 388 l 341 331 l 452 358 q 469 345 464 355 l 469 334 q 363 298 469 318 q 314 279 318 286 l 314 277 q 319 271 315 271 l 691 366 l 691 388 l 341 388 m 314 225 l 314 222 q 322 217 314 217 q 713 317 355 222 l 715 323 q 710 328 715 328 l 707 328 q 317 231 694 328 l 314 225 m 317 168 q 322 163 317 163 q 718 263 344 163 l 718 269 q 710 274 718 274 q 319 174 663 263 l 317 168 m 325 109 q 333 106 328 109 q 726 209 711 201 l 726 212 q 718 220 726 216 q 325 117 365 130 l 325 109 m 409 81 q 545 84 503 84 l 574 84 l 569 92 l 569 95 q 645 130 569 120 q 726 157 723 150 q 718 163 726 163 q 409 84 643 146 l 409 81 m 618 87 l 618 81 q 661 95 659 85 l 659 95 l 618 87 z "},"V":{"ha":1014,"x_min":40,"x_max":973,"o":"m 591 1525 q 843 1394 706 1516 q 973 1153 958 1264 l 973 974 q 867 746 973 890 q 764 526 764 671 l 764 494 q 743 420 764 452 l 743 361 q 753 323 753 330 q 748 296 753 317 q 756 274 756 282 l 756 269 q 753 244 756 259 q 764 217 764 225 l 764 212 q 756 182 764 203 q 764 160 764 180 l 764 157 q 737 114 764 134 q 631 33 705 33 l 604 33 q 583 0 586 0 l 450 0 q 431 33 441 0 l 404 33 q 287 98 343 33 q 284 114 287 100 q 290 136 290 134 q 279 165 279 152 l 279 171 q 284 198 279 176 q 273 222 277 198 q 281 252 273 229 q 273 282 273 265 q 290 323 273 284 l 290 404 q 265 570 273 446 q 170 719 227 680 q 40 974 49 860 l 40 1142 q 176 1402 47 1256 q 420 1525 306 1511 l 591 1525 m 81 1061 q 241 722 81 869 q 325 461 325 631 q 338 439 333 439 l 669 439 q 713 483 713 439 l 713 513 q 813 762 713 690 q 932 1058 932 897 q 726 1421 932 1282 q 504 1484 621 1484 q 143 1280 286 1484 q 81 1061 81 1167 m 379 1215 l 466 1215 q 515 939 473 1215 l 517 939 q 566 1215 559 1215 l 653 1215 q 659 1210 659 1215 q 564 646 569 663 l 471 646 q 428 890 464 646 q 374 1213 425 890 l 379 1215 m 341 388 l 341 331 l 452 358 q 469 345 464 355 l 469 334 q 363 298 469 318 q 314 279 318 286 l 314 277 q 319 271 315 271 l 691 366 l 691 388 l 341 388 m 314 225 l 314 222 q 322 217 314 217 q 713 317 355 222 l 715 323 q 710 328 715 328 l 707 328 q 317 231 694 328 l 314 225 m 317 168 q 322 163 317 163 q 718 263 344 163 l 718 269 q 710 274 718 274 q 319 174 663 263 l 317 168 m 325 109 q 333 106 328 109 q 726 209 711 201 l 726 212 q 718 220 726 216 q 325 117 365 130 l 325 109 m 409 81 q 545 84 503 84 l 574 84 l 569 92 l 569 95 q 645 130 569 120 q 726 157 723 150 q 718 163 726 163 q 409 84 643 146 l 409 81 m 618 87 l 618 81 q 661 95 659 85 l 659 95 l 618 87 z "},"W":{"ha":1014,"x_min":40,"x_max":973,"o":"m 591 1525 q 843 1394 706 1516 q 973 1153 958 1264 l 973 974 q 867 746 973 890 q 764 526 764 671 l 764 494 q 743 420 764 452 l 743 361 q 753 323 753 330 q 748 296 753 317 q 756 274 756 282 l 756 269 q 753 244 756 259 q 764 217 764 225 l 764 212 q 756 182 764 203 q 764 160 764 180 l 764 157 q 737 114 764 134 q 631 33 705 33 l 604 33 q 583 0 586 0 l 450 0 q 431 33 441 0 l 404 33 q 287 98 343 33 q 284 114 287 100 q 290 136 290 134 q 279 165 279 152 l 279 171 q 284 198 279 176 q 273 222 277 198 q 281 252 273 229 q 273 282 273 265 q 290 323 273 284 l 290 404 q 265 570 273 446 q 170 719 227 680 q 40 974 49 860 l 40 1142 q 176 1402 47 1256 q 420 1525 306 1511 l 591 1525 m 81 1061 q 241 722 81 869 q 325 461 325 631 q 338 439 333 439 l 669 439 q 713 483 713 439 l 713 513 q 813 762 713 690 q 932 1058 932 897 q 726 1421 932 1282 q 504 1484 621 1484 q 143 1280 286 1484 q 81 1061 81 1167 m 284 1215 l 371 1215 q 420 939 378 1215 l 422 939 q 471 1215 464 1215 l 561 1215 q 610 939 568 1215 l 612 939 q 661 1215 654 1215 l 748 1215 q 753 1210 753 1215 q 659 646 664 663 l 566 646 q 517 922 559 646 l 515 922 q 466 646 473 646 l 376 646 q 333 890 369 646 q 279 1213 330 890 l 284 1215 m 341 388 l 341 331 l 452 358 q 469 345 464 355 l 469 334 q 363 298 469 318 q 314 279 318 286 l 314 277 q 319 271 315 271 l 691 366 l 691 388 l 341 388 m 314 225 l 314 222 q 322 217 314 217 q 713 317 355 222 l 715 323 q 710 328 715 328 l 707 328 q 317 231 694 328 l 314 225 m 317 168 q 322 163 317 163 q 718 263 344 163 l 718 269 q 710 274 718 274 q 319 174 663 263 l 317 168 m 325 109 q 333 106 328 109 q 726 209 711 201 l 726 212 q 718 220 726 216 q 325 117 365 130 l 325 109 m 409 81 q 545 84 503 84 l 574 84 l 569 92 l 569 95 q 645 130 569 120 q 726 157 723 150 q 718 163 726 163 q 409 84 643 146 l 409 81 m 618 87 l 618 81 q 661 95 659 85 l 659 95 l 618 87 z "},"X":{"ha":1014,"x_min":40,"x_max":973,"o":"m 591 1525 q 843 1394 706 1516 q 973 1153 958 1264 l 973 974 q 867 746 973 890 q 764 526 764 671 l 764 494 q 743 420 764 452 l 743 361 q 753 323 753 330 q 748 296 753 317 q 756 274 756 282 l 756 269 q 753 244 756 259 q 764 217 764 225 l 764 212 q 756 182 764 203 q 764 160 764 180 l 764 157 q 737 114 764 134 q 631 33 705 33 l 604 33 q 583 0 586 0 l 450 0 q 431 33 441 0 l 404 33 q 287 98 343 33 q 284 114 287 100 q 290 136 290 134 q 279 165 279 152 l 279 171 q 284 198 279 176 q 273 222 277 198 q 281 252 273 229 q 273 282 273 265 q 290 323 273 284 l 290 404 q 265 570 273 446 q 170 719 227 680 q 40 974 49 860 l 40 1142 q 176 1402 47 1256 q 420 1525 306 1511 l 591 1525 m 81 1061 q 241 722 81 869 q 325 461 325 631 q 338 439 333 439 l 669 439 q 713 483 713 439 l 713 513 q 813 762 713 690 q 932 1058 932 897 q 726 1421 932 1282 q 504 1484 621 1484 q 143 1280 286 1484 q 81 1061 81 1167 m 379 1215 l 466 1215 q 515 1077 473 1215 l 517 1077 q 566 1215 559 1215 l 653 1215 q 659 1210 659 1215 q 566 928 566 939 l 659 648 l 653 646 l 566 646 q 517 784 559 646 l 515 784 q 466 646 473 646 l 379 646 q 374 651 374 646 q 466 933 466 922 l 374 1213 l 379 1215 m 341 388 l 341 331 l 452 358 q 469 345 464 355 l 469 334 q 363 298 469 318 q 314 279 318 286 l 314 277 q 319 271 315 271 l 691 366 l 691 388 l 341 388 m 314 225 l 314 222 q 322 217 314 217 q 713 317 355 222 l 715 323 q 710 328 715 328 l 707 328 q 317 231 694 328 l 314 225 m 317 168 q 322 163 317 163 q 718 263 344 163 l 718 269 q 710 274 718 274 q 319 174 663 263 l 317 168 m 325 109 q 333 106 328 109 q 726 209 711 201 l 726 212 q 718 220 726 216 q 325 117 365 130 l 325 109 m 409 81 q 545 84 503 84 l 574 84 l 569 92 l 569 95 q 645 130 569 120 q 726 157 723 150 q 718 163 726 163 q 409 84 643 146 l 409 81 m 618 87 l 618 81 q 661 95 659 85 l 659 95 l 618 87 z "},"Y":{"ha":1014,"x_min":40,"x_max":973,"o":"m 591 1525 q 843 1394 706 1516 q 973 1153 958 1264 l 973 974 q 867 746 973 890 q 764 526 764 671 l 764 494 q 743 420 764 452 l 743 361 q 753 323 753 330 q 748 296 753 317 q 756 274 756 282 l 756 269 q 753 244 756 259 q 764 217 764 225 l 764 212 q 756 182 764 203 q 764 160 764 180 l 764 157 q 737 114 764 134 q 631 33 705 33 l 604 33 q 583 0 586 0 l 450 0 q 431 33 441 0 l 404 33 q 287 98 343 33 q 284 114 287 100 q 290 136 290 134 q 279 165 279 152 l 279 171 q 284 198 279 176 q 273 222 277 198 q 281 252 273 229 q 273 282 273 265 q 290 323 273 284 l 290 404 q 265 570 273 446 q 170 719 227 680 q 40 974 49 860 l 40 1142 q 176 1402 47 1256 q 420 1525 306 1511 l 591 1525 m 81 1061 q 241 722 81 869 q 325 461 325 631 q 338 439 333 439 l 669 439 q 713 483 713 439 l 713 513 q 813 762 713 690 q 932 1058 932 897 q 726 1421 932 1282 q 504 1484 621 1484 q 143 1280 286 1484 q 81 1061 81 1167 m 379 1215 l 466 1215 q 515 1077 473 1215 l 517 1077 q 566 1215 559 1215 l 653 1215 q 659 1210 659 1215 q 564 920 564 931 l 564 651 q 558 646 564 646 l 474 646 q 469 651 469 646 l 469 920 q 374 1213 469 928 l 379 1215 m 341 388 l 341 331 l 452 358 q 469 345 464 355 l 469 334 q 363 298 469 318 q 314 279 318 286 l 314 277 q 319 271 315 271 l 691 366 l 691 388 l 341 388 m 314 225 l 314 222 q 322 217 314 217 q 713 317 355 222 l 715 323 q 710 328 715 328 l 707 328 q 317 231 694 328 l 314 225 m 317 168 q 322 163 317 163 q 718 263 344 163 l 718 269 q 710 274 718 274 q 319 174 663 263 l 317 168 m 325 109 q 333 106 328 109 q 726 209 711 201 l 726 212 q 718 220 726 216 q 325 117 365 130 l 325 109 m 409 81 q 545 84 503 84 l 574 84 l 569 92 l 569 95 q 645 130 569 120 q 726 157 723 150 q 718 163 726 163 q 409 84 643 146 l 409 81 m 618 87 l 618 81 q 661 95 659 85 l 659 95 l 618 87 z "},"Z":{"ha":1014,"x_min":40,"x_max":973,"o":"m 591 1525 q 843 1394 706 1516 q 973 1153 958 1264 l 973 974 q 867 746 973 890 q 764 526 764 671 l 764 494 q 743 420 764 452 l 743 361 q 753 323 753 330 q 748 296 753 317 q 756 274 756 282 l 756 269 q 753 244 756 259 q 764 217 764 225 l 764 212 q 756 182 764 203 q 764 160 764 180 l 764 157 q 737 114 764 134 q 631 33 705 33 l 604 33 q 583 0 586 0 l 450 0 q 431 33 441 0 l 404 33 q 287 98 343 33 q 284 114 287 100 q 290 136 290 134 q 279 165 279 152 l 279 171 q 284 198 279 176 q 273 222 277 198 q 281 252 273 229 q 273 282 273 265 q 290 323 273 284 l 290 404 q 265 570 273 446 q 170 719 227 680 q 40 974 49 860 l 40 1142 q 176 1402 47 1256 q 420 1525 306 1511 l 591 1525 m 81 1061 q 241 722 81 869 q 325 461 325 631 q 338 439 333 439 l 669 439 q 713 483 713 439 l 713 513 q 813 762 713 690 q 932 1058 932 897 q 726 1421 932 1282 q 504 1484 621 1484 q 143 1280 286 1484 q 81 1061 81 1167 m 382 1215 l 656 1215 q 661 1210 661 1215 l 504 741 l 656 741 q 661 735 661 740 l 661 651 q 656 646 661 646 l 382 646 q 376 651 376 646 l 534 1120 l 382 1120 q 376 1126 376 1120 l 376 1210 q 382 1215 377 1215 m 341 388 l 341 331 l 452 358 q 469 345 464 355 l 469 334 q 363 298 469 318 q 314 279 318 286 l 314 277 q 319 271 315 271 l 691 366 l 691 388 l 341 388 m 314 225 l 314 222 q 322 217 314 217 q 713 317 355 222 l 715 323 q 710 328 715 328 l 707 328 q 317 231 694 328 l 314 225 m 317 168 q 322 163 317 163 q 718 263 344 163 l 718 269 q 710 274 718 274 q 319 174 663 263 l 317 168 m 325 109 q 333 106 328 109 q 726 209 711 201 l 726 212 q 718 220 726 216 q 325 117 365 130 l 325 109 m 409 81 q 545 84 503 84 l 574 84 l 569 92 l 569 95 q 645 130 569 120 q 726 157 723 150 q 718 163 726 163 q 409 84 643 146 l 409 81 m 618 87 l 618 81 q 661 95 659 85 l 659 95 l 618 87 z "},"[":{"ha":514,"x_min":0,"x_max":0,"o":""},"\\":{"ha":386,"x_min":0,"x_max":0,"o":""},"]":{"ha":514,"x_min":0,"x_max":0,"o":""},"^":{"ha":688,"x_min":0,"x_max":0,"o":""},"_":{"ha":694,"x_min":0,"x_max":0,"o":""},"`":{"ha":1080,"x_min":73,"x_max":1006,"o":"m 624 1525 q 876 1394 739 1516 q 1006 1153 991 1264 l 1006 974 q 901 746 1006 890 q 798 526 798 671 l 798 494 q 776 420 798 452 l 776 361 q 787 323 787 330 q 781 296 787 317 q 789 274 789 282 l 789 269 q 787 244 789 259 q 798 217 798 225 l 798 212 q 789 182 798 203 q 798 160 798 180 l 798 157 q 770 114 798 134 q 665 33 739 33 l 637 33 q 616 0 619 0 l 483 0 q 464 33 475 0 l 437 33 q 320 98 376 33 q 317 114 320 100 q 323 136 323 134 q 312 165 312 152 l 312 171 q 317 198 312 176 q 307 222 311 198 q 315 252 307 229 q 307 282 307 265 q 323 323 307 284 l 323 404 q 298 570 307 446 q 203 719 260 680 q 73 974 82 860 l 73 1142 q 209 1402 81 1256 q 453 1525 339 1511 l 624 1525 m 114 1061 q 274 722 114 869 q 358 461 358 631 q 372 439 366 439 l 703 439 q 746 483 746 439 l 746 513 q 846 762 746 690 q 966 1058 966 897 q 760 1421 966 1282 q 537 1484 654 1484 q 176 1280 319 1484 q 114 1061 114 1167 m 656 1215 l 656 1213 l 589 1213 q 467 1305 476 1301 l 467 1310 l 559 1310 l 656 1215 m 374 388 l 374 331 l 486 358 q 502 345 497 355 l 502 334 q 396 298 502 318 q 347 279 351 286 l 347 277 q 353 271 348 271 l 724 366 l 724 388 l 374 388 m 347 225 l 347 222 q 355 217 347 217 q 746 317 388 222 l 749 323 q 743 328 749 328 l 741 328 q 350 231 727 328 l 347 225 m 350 168 q 355 163 351 163 q 751 263 377 163 l 751 269 q 743 274 751 274 q 353 174 696 263 l 350 168 m 358 109 q 366 106 361 109 q 760 209 744 201 l 760 212 q 751 220 760 216 q 358 117 398 130 l 358 109 m 442 81 q 578 84 536 84 l 608 84 l 602 92 l 602 95 q 678 130 602 120 q 760 157 756 150 q 751 163 760 163 q 442 84 676 146 l 442 81 m 651 87 l 651 81 q 694 95 692 85 l 692 95 l 651 87 z "},"a":{"ha":1014,"x_min":40,"x_max":973,"o":"m 591 1525 q 843 1394 706 1516 q 973 1153 958 1264 l 973 974 q 867 746 973 890 q 764 526 764 671 l 764 494 q 743 420 764 452 l 743 361 q 753 323 753 330 q 748 296 753 317 q 756 274 756 282 l 756 269 q 753 244 756 259 q 764 217 764 225 l 764 212 q 756 182 764 203 q 764 160 764 180 l 764 157 q 737 114 764 134 q 631 33 705 33 l 604 33 q 583 0 586 0 l 450 0 q 431 33 441 0 l 404 33 q 287 98 343 33 q 284 114 287 100 q 290 136 290 134 q 279 165 279 152 l 279 171 q 284 198 279 176 q 273 222 277 198 q 281 252 273 229 q 273 282 273 265 q 290 323 273 284 l 290 404 q 265 570 273 446 q 170 719 227 680 q 40 974 49 860 l 40 1142 q 176 1402 47 1256 q 420 1525 306 1511 l 591 1525 m 81 1061 q 241 722 81 869 q 325 461 325 631 q 338 439 333 439 l 669 439 q 713 483 713 439 l 713 513 q 813 762 713 690 q 932 1058 932 897 q 726 1421 932 1282 q 504 1484 621 1484 q 143 1280 286 1484 q 81 1061 81 1167 m 417 1215 l 615 1215 q 659 1172 659 1208 l 659 651 q 653 646 659 646 l 569 646 q 564 651 564 646 l 564 836 l 469 836 l 469 651 q 463 646 469 646 l 379 646 q 374 651 374 646 l 374 1172 q 417 1215 380 1215 m 469 1120 l 469 930 l 564 930 l 564 1120 l 469 1120 m 341 388 l 341 331 l 452 358 q 469 345 464 355 l 469 334 q 363 298 469 318 q 314 279 318 286 l 314 277 q 319 271 315 271 l 691 366 l 691 388 l 341 388 m 314 225 l 314 222 q 322 217 314 217 q 713 317 355 222 l 715 323 q 710 328 715 328 l 707 328 q 317 231 694 328 l 314 225 m 317 168 q 322 163 317 163 q 718 263 344 163 l 718 269 q 710 274 718 274 q 319 174 663 263 l 317 168 m 325 109 q 333 106 328 109 q 726 209 711 201 l 726 212 q 718 220 726 216 q 325 117 365 130 l 325 109 m 409 81 q 545 84 503 84 l 574 84 l 569 92 l 569 95 q 645 130 569 120 q 726 157 723 150 q 718 163 726 163 q 409 84 643 146 l 409 81 m 618 87 l 618 81 q 661 95 659 85 l 659 95 l 618 87 z "},"b":{"ha":1014,"x_min":40,"x_max":973,"o":"m 591 1525 q 843 1394 706 1516 q 973 1153 958 1264 l 973 974 q 867 746 973 890 q 764 526 764 671 l 764 494 q 743 420 764 452 l 743 361 q 753 323 753 330 q 748 296 753 317 q 756 274 756 282 l 756 269 q 753 244 756 259 q 764 217 764 225 l 764 212 q 756 182 764 203 q 764 160 764 180 l 764 157 q 737 114 764 134 q 631 33 705 33 l 604 33 q 583 0 586 0 l 450 0 q 431 33 441 0 l 404 33 q 287 98 343 33 q 284 114 287 100 q 290 136 290 134 q 279 165 279 152 l 279 171 q 284 198 279 176 q 273 222 277 198 q 281 252 273 229 q 273 282 273 265 q 290 323 273 284 l 290 404 q 265 570 273 446 q 170 719 227 680 q 40 974 49 860 l 40 1142 q 176 1402 47 1256 q 420 1525 306 1511 l 591 1525 m 81 1061 q 241 722 81 869 q 325 461 325 631 q 338 439 333 439 l 669 439 q 713 483 713 439 l 713 513 q 813 762 713 690 q 932 1058 932 897 q 726 1421 932 1282 q 504 1484 621 1484 q 143 1280 286 1484 q 81 1061 81 1167 m 382 1215 l 618 1215 q 661 1172 661 1208 l 661 1017 q 631 982 661 994 l 631 977 q 661 941 661 964 l 661 689 q 618 646 654 646 l 382 646 q 376 651 376 646 l 376 1210 q 382 1215 377 1215 m 471 1120 l 471 1025 l 566 1025 l 566 1120 l 471 1120 m 471 930 l 471 741 l 566 741 l 566 930 l 471 930 m 341 388 l 341 331 l 452 358 q 469 345 464 355 l 469 334 q 363 298 469 318 q 314 279 318 286 l 314 277 q 319 271 315 271 l 691 366 l 691 388 l 341 388 m 314 225 l 314 222 q 322 217 314 217 q 713 317 355 222 l 715 323 q 710 328 715 328 l 707 328 q 317 231 694 328 l 314 225 m 317 168 q 322 163 317 163 q 718 263 344 163 l 718 269 q 710 274 718 274 q 319 174 663 263 l 317 168 m 325 109 q 333 106 328 109 q 726 209 711 201 l 726 212 q 718 220 726 216 q 325 117 365 130 l 325 109 m 409 81 q 545 84 503 84 l 574 84 l 569 92 l 569 95 q 645 130 569 120 q 726 157 723 150 q 718 163 726 163 q 409 84 643 146 l 409 81 m 618 87 l 618 81 q 661 95 659 85 l 659 95 l 618 87 z "},"c":{"ha":1014,"x_min":40,"x_max":973,"o":"m 591 1525 q 843 1394 706 1516 q 973 1153 958 1264 l 973 974 q 867 746 973 890 q 764 526 764 671 l 764 494 q 743 420 764 452 l 743 361 q 753 323 753 330 q 748 296 753 317 q 756 274 756 282 l 756 269 q 753 244 756 259 q 764 217 764 225 l 764 212 q 756 182 764 203 q 764 160 764 180 l 764 157 q 737 114 764 134 q 631 33 705 33 l 604 33 q 583 0 586 0 l 450 0 q 431 33 441 0 l 404 33 q 287 98 343 33 q 284 114 287 100 q 290 136 290 134 q 279 165 279 152 l 279 171 q 284 198 279 176 q 273 222 277 198 q 281 252 273 229 q 273 282 273 265 q 290 323 273 284 l 290 404 q 265 570 273 446 q 170 719 227 680 q 40 974 49 860 l 40 1142 q 176 1402 47 1256 q 420 1525 306 1511 l 591 1525 m 81 1061 q 241 722 81 869 q 325 461 325 631 q 338 439 333 439 l 669 439 q 713 483 713 439 l 713 513 q 813 762 713 690 q 932 1058 932 897 q 726 1421 932 1282 q 504 1484 621 1484 q 143 1280 286 1484 q 81 1061 81 1167 m 417 1215 l 653 1215 q 659 1210 659 1215 l 659 1126 q 653 1120 659 1120 l 469 1120 l 469 741 l 653 741 q 659 735 659 740 l 659 651 q 653 646 659 646 l 417 646 q 374 689 374 652 l 374 1172 q 417 1215 380 1215 m 341 388 l 341 331 l 452 358 q 469 345 464 355 l 469 334 q 363 298 469 318 q 314 279 318 286 l 314 277 q 319 271 315 271 l 691 366 l 691 388 l 341 388 m 314 225 l 314 222 q 322 217 314 217 q 713 317 355 222 l 715 323 q 710 328 715 328 l 707 328 q 317 231 694 328 l 314 225 m 317 168 q 322 163 317 163 q 718 263 344 163 l 718 269 q 710 274 718 274 q 319 174 663 263 l 317 168 m 325 109 q 333 106 328 109 q 726 209 711 201 l 726 212 q 718 220 726 216 q 325 117 365 130 l 325 109 m 409 81 q 545 84 503 84 l 574 84 l 569 92 l 569 95 q 645 130 569 120 q 726 157 723 150 q 718 163 726 163 q 409 84 643 146 l 409 81 m 618 87 l 618 81 q 661 95 659 85 l 659 95 l 618 87 z "},"d":{"ha":1014,"x_min":40,"x_max":973,"o":"m 591 1525 q 843 1394 706 1516 q 973 1153 958 1264 l 973 974 q 867 746 973 890 q 764 526 764 671 l 764 494 q 743 420 764 452 l 743 361 q 753 323 753 330 q 748 296 753 317 q 756 274 756 282 l 756 269 q 753 244 756 259 q 764 217 764 225 l 764 212 q 756 182 764 203 q 764 160 764 180 l 764 157 q 737 114 764 134 q 631 33 705 33 l 604 33 q 583 0 586 0 l 450 0 q 431 33 441 0 l 404 33 q 287 98 343 33 q 284 114 287 100 q 290 136 290 134 q 279 165 279 152 l 279 171 q 284 198 279 176 q 273 222 277 198 q 281 252 273 229 q 273 282 273 265 q 290 323 273 284 l 290 404 q 265 570 273 446 q 170 719 227 680 q 40 974 49 860 l 40 1142 q 176 1402 47 1256 q 420 1525 306 1511 l 591 1525 m 81 1061 q 241 722 81 869 q 325 461 325 631 q 338 439 333 439 l 669 439 q 713 483 713 439 l 713 513 q 813 762 713 690 q 932 1058 932 897 q 726 1421 932 1282 q 504 1484 621 1484 q 143 1280 286 1484 q 81 1061 81 1167 m 379 1215 l 615 1215 q 659 1172 659 1208 l 659 689 q 615 646 652 646 l 379 646 q 374 651 374 646 l 374 1210 q 379 1215 374 1215 m 469 1120 l 469 741 l 564 741 l 564 1120 l 469 1120 m 341 388 l 341 331 l 452 358 q 469 345 464 355 l 469 334 q 363 298 469 318 q 314 279 318 286 l 314 277 q 319 271 315 271 l 691 366 l 691 388 l 341 388 m 314 225 l 314 222 q 322 217 314 217 q 713 317 355 222 l 715 323 q 710 328 715 328 l 707 328 q 317 231 694 328 l 314 225 m 317 168 q 322 163 317 163 q 718 263 344 163 l 718 269 q 710 274 718 274 q 319 174 663 263 l 317 168 m 325 109 q 333 106 328 109 q 726 209 711 201 l 726 212 q 718 220 726 216 q 325 117 365 130 l 325 109 m 409 81 q 545 84 503 84 l 574 84 l 569 92 l 569 95 q 645 130 569 120 q 726 157 723 150 q 718 163 726 163 q 409 84 643 146 l 409 81 m 618 87 l 618 81 q 661 95 659 85 l 659 95 l 618 87 z "},"e":{"ha":1014,"x_min":40,"x_max":973,"o":"m 591 1525 q 843 1394 706 1516 q 973 1153 958 1264 l 973 974 q 867 746 973 890 q 764 526 764 671 l 764 494 q 743 420 764 452 l 743 361 q 753 323 753 330 q 748 296 753 317 q 756 274 756 282 l 756 269 q 753 244 756 259 q 764 217 764 225 l 764 212 q 756 182 764 203 q 764 160 764 180 l 764 157 q 737 114 764 134 q 631 33 705 33 l 604 33 q 583 0 586 0 l 450 0 q 431 33 441 0 l 404 33 q 287 98 343 33 q 284 114 287 100 q 290 136 290 134 q 279 165 279 152 l 279 171 q 284 198 279 176 q 273 222 277 198 q 281 252 273 229 q 273 282 273 265 q 290 323 273 284 l 290 404 q 265 570 273 446 q 170 719 227 680 q 40 974 49 860 l 40 1142 q 176 1402 47 1256 q 420 1525 306 1511 l 591 1525 m 81 1061 q 241 722 81 869 q 325 461 325 631 q 338 439 333 439 l 669 439 q 713 483 713 439 l 713 513 q 813 762 713 690 q 932 1058 932 897 q 726 1421 932 1282 q 504 1484 621 1484 q 143 1280 286 1484 q 81 1061 81 1167 m 379 1215 l 653 1215 q 659 1210 659 1215 l 659 1126 q 653 1120 659 1120 l 469 1120 l 469 1025 l 653 1025 q 659 1020 659 1025 l 659 936 q 653 930 659 930 l 469 930 l 469 741 l 653 741 q 659 735 659 740 l 659 651 q 653 646 659 646 l 379 646 q 374 651 374 646 l 374 1210 q 379 1215 374 1215 m 341 388 l 341 331 l 452 358 q 469 345 464 355 l 469 334 q 363 298 469 318 q 314 279 318 286 l 314 277 q 319 271 315 271 l 691 366 l 691 388 l 341 388 m 314 225 l 314 222 q 322 217 314 217 q 713 317 355 222 l 715 323 q 710 328 715 328 l 707 328 q 317 231 694 328 l 314 225 m 317 168 q 322 163 317 163 q 718 263 344 163 l 718 269 q 710 274 718 274 q 319 174 663 263 l 317 168 m 325 109 q 333 106 328 109 q 726 209 711 201 l 726 212 q 718 220 726 216 q 325 117 365 130 l 325 109 m 409 81 q 545 84 503 84 l 574 84 l 569 92 l 569 95 q 645 130 569 120 q 726 157 723 150 q 718 163 726 163 q 409 84 643 146 l 409 81 m 618 87 l 618 81 q 661 95 659 85 l 659 95 l 618 87 z "},"f":{"ha":1014,"x_min":40,"x_max":973,"o":"m 591 1525 q 843 1394 706 1516 q 973 1153 958 1264 l 973 974 q 867 746 973 890 q 764 526 764 671 l 764 494 q 743 420 764 452 l 743 361 q 753 323 753 330 q 748 296 753 317 q 756 274 756 282 l 756 269 q 753 244 756 259 q 764 217 764 225 l 764 212 q 756 182 764 203 q 764 160 764 180 l 764 157 q 737 114 764 134 q 631 33 705 33 l 604 33 q 583 0 586 0 l 450 0 q 431 33 441 0 l 404 33 q 287 98 343 33 q 284 114 287 100 q 290 136 290 134 q 279 165 279 152 l 279 171 q 284 198 279 176 q 273 222 277 198 q 281 252 273 229 q 273 282 273 265 q 290 323 273 284 l 290 404 q 265 570 273 446 q 170 719 227 680 q 40 974 49 860 l 40 1142 q 176 1402 47 1256 q 420 1525 306 1511 l 591 1525 m 81 1061 q 241 722 81 869 q 325 461 325 631 q 338 439 333 439 l 669 439 q 713 483 713 439 l 713 513 q 813 762 713 690 q 932 1058 932 897 q 726 1421 932 1282 q 504 1484 621 1484 q 143 1280 286 1484 q 81 1061 81 1167 m 379 1215 l 653 1215 q 659 1210 659 1215 l 659 1126 q 653 1120 659 1120 l 469 1120 l 469 1025 l 653 1025 q 659 1020 659 1025 l 659 936 q 653 930 659 930 l 469 930 l 469 651 q 463 646 469 646 l 379 646 q 374 651 374 646 l 374 1210 q 379 1215 374 1215 m 341 388 l 341 331 l 452 358 q 469 345 464 355 l 469 334 q 363 298 469 318 q 314 279 318 286 l 314 277 q 319 271 315 271 l 691 366 l 691 388 l 341 388 m 314 225 l 314 222 q 322 217 314 217 q 713 317 355 222 l 715 323 q 710 328 715 328 l 707 328 q 317 231 694 328 l 314 225 m 317 168 q 322 163 317 163 q 718 263 344 163 l 718 269 q 710 274 718 274 q 319 174 663 263 l 317 168 m 325 109 q 333 106 328 109 q 726 209 711 201 l 726 212 q 718 220 726 216 q 325 117 365 130 l 325 109 m 409 81 q 545 84 503 84 l 574 84 l 569 92 l 569 95 q 645 130 569 120 q 726 157 723 150 q 718 163 726 163 q 409 84 643 146 l 409 81 m 618 87 l 618 81 q 661 95 659 85 l 659 95 l 618 87 z "},"g":{"ha":1014,"x_min":40,"x_max":973,"o":"m 591 1525 q 843 1394 706 1516 q 973 1153 958 1264 l 973 974 q 867 746 973 890 q 764 526 764 671 l 764 494 q 743 420 764 452 l 743 361 q 753 323 753 330 q 748 296 753 317 q 756 274 756 282 l 756 269 q 753 244 756 259 q 764 217 764 225 l 764 212 q 756 182 764 203 q 764 160 764 180 l 764 157 q 737 114 764 134 q 631 33 705 33 l 604 33 q 583 0 586 0 l 450 0 q 431 33 441 0 l 404 33 q 287 98 343 33 q 284 114 287 100 q 290 136 290 134 q 279 165 279 152 l 279 171 q 284 198 279 176 q 273 222 277 198 q 281 252 273 229 q 273 282 273 265 q 290 323 273 284 l 290 404 q 265 570 273 446 q 170 719 227 680 q 40 974 49 860 l 40 1142 q 176 1402 47 1256 q 420 1525 306 1511 l 591 1525 m 81 1061 q 241 722 81 869 q 325 461 325 631 q 338 439 333 439 l 669 439 q 713 483 713 439 l 713 513 q 813 762 713 690 q 932 1058 932 897 q 726 1421 932 1282 q 504 1484 621 1484 q 143 1280 286 1484 q 81 1061 81 1167 m 420 1215 l 656 1215 q 661 1210 661 1215 l 661 1126 q 656 1120 661 1120 l 471 1120 l 471 741 l 566 741 l 566 836 l 523 836 q 517 841 517 836 l 517 925 q 523 930 518 930 l 618 930 q 661 887 661 924 l 661 689 q 618 646 654 646 l 420 646 q 376 689 376 652 l 376 1172 q 420 1215 383 1215 m 341 388 l 341 331 l 452 358 q 469 345 464 355 l 469 334 q 363 298 469 318 q 314 279 318 286 l 314 277 q 319 271 315 271 l 691 366 l 691 388 l 341 388 m 314 225 l 314 222 q 322 217 314 217 q 713 317 355 222 l 715 323 q 710 328 715 328 l 707 328 q 317 231 694 328 l 314 225 m 317 168 q 322 163 317 163 q 718 263 344 163 l 718 269 q 710 274 718 274 q 319 174 663 263 l 317 168 m 325 109 q 333 106 328 109 q 726 209 711 201 l 726 212 q 718 220 726 216 q 325 117 365 130 l 325 109 m 409 81 q 545 84 503 84 l 574 84 l 569 92 l 569 95 q 645 130 569 120 q 726 157 723 150 q 718 163 726 163 q 409 84 643 146 l 409 81 m 618 87 l 618 81 q 661 95 659 85 l 659 95 l 618 87 z "},"h":{"ha":1014,"x_min":40,"x_max":973,"o":"m 591 1525 q 843 1394 706 1516 q 973 1153 958 1264 l 973 974 q 867 746 973 890 q 764 526 764 671 l 764 494 q 743 420 764 452 l 743 361 q 753 323 753 330 q 748 296 753 317 q 756 274 756 282 l 756 269 q 753 244 756 259 q 764 217 764 225 l 764 212 q 756 182 764 203 q 764 160 764 180 l 764 157 q 737 114 764 134 q 631 33 705 33 l 604 33 q 583 0 586 0 l 450 0 q 431 33 441 0 l 404 33 q 287 98 343 33 q 284 114 287 100 q 290 136 290 134 q 279 165 279 152 l 279 171 q 284 198 279 176 q 273 222 277 198 q 281 252 273 229 q 273 282 273 265 q 290 323 273 284 l 290 404 q 265 570 273 446 q 170 719 227 680 q 40 974 49 860 l 40 1142 q 176 1402 47 1256 q 420 1525 306 1511 l 591 1525 m 81 1061 q 241 722 81 869 q 325 461 325 631 q 338 439 333 439 l 669 439 q 713 483 713 439 l 713 513 q 813 762 713 690 q 932 1058 932 897 q 726 1421 932 1282 q 504 1484 621 1484 q 143 1280 286 1484 q 81 1061 81 1167 m 379 1215 l 463 1215 q 469 1210 469 1215 l 469 979 l 564 979 l 564 1210 q 569 1215 564 1215 l 653 1215 q 659 1210 659 1215 l 659 651 q 653 646 659 646 l 569 646 q 564 651 564 646 l 564 882 l 469 882 l 469 651 q 463 646 469 646 l 379 646 q 374 651 374 646 l 374 1210 q 379 1215 374 1215 m 341 388 l 341 331 l 452 358 q 469 345 464 355 l 469 334 q 363 298 469 318 q 314 279 318 286 l 314 277 q 319 271 315 271 l 691 366 l 691 388 l 341 388 m 314 225 l 314 222 q 322 217 314 217 q 713 317 355 222 l 715 323 q 710 328 715 328 l 707 328 q 317 231 694 328 l 314 225 m 317 168 q 322 163 317 163 q 718 263 344 163 l 718 269 q 710 274 718 274 q 319 174 663 263 l 317 168 m 325 109 q 333 106 328 109 q 726 209 711 201 l 726 212 q 718 220 726 216 q 325 117 365 130 l 325 109 m 409 81 q 545 84 503 84 l 574 84 l 569 92 l 569 95 q 645 130 569 120 q 726 157 723 150 q 718 163 726 163 q 409 84 643 146 l 409 81 m 618 87 l 618 81 q 661 95 659 85 l 659 95 l 618 87 z "},"i":{"ha":1014,"x_min":40,"x_max":973,"o":"m 591 1525 q 843 1394 706 1516 q 973 1153 958 1264 l 973 974 q 867 746 973 890 q 764 526 764 671 l 764 494 q 743 420 764 452 l 743 361 q 753 323 753 330 q 748 296 753 317 q 756 274 756 282 l 756 269 q 753 244 756 259 q 764 217 764 225 l 764 212 q 756 182 764 203 q 764 160 764 180 l 764 157 q 737 114 764 134 q 631 33 705 33 l 604 33 q 583 0 586 0 l 450 0 q 431 33 441 0 l 404 33 q 287 98 343 33 q 284 114 287 100 q 290 136 290 134 q 279 165 279 152 l 279 171 q 284 198 279 176 q 273 222 277 198 q 281 252 273 229 q 273 282 273 265 q 290 323 273 284 l 290 404 q 265 570 273 446 q 170 719 227 680 q 40 974 49 860 l 40 1142 q 176 1402 47 1256 q 420 1525 306 1511 l 591 1525 m 81 1061 q 241 722 81 869 q 325 461 325 631 q 338 439 333 439 l 669 439 q 713 483 713 439 l 713 513 q 813 762 713 690 q 932 1058 932 897 q 726 1421 932 1282 q 504 1484 621 1484 q 143 1280 286 1484 q 81 1061 81 1167 m 474 1215 l 558 1215 q 564 1210 564 1215 l 564 651 q 558 646 564 646 l 474 646 q 469 651 469 646 l 469 1210 q 474 1215 469 1215 m 341 388 l 341 331 l 452 358 q 469 345 464 355 l 469 334 q 363 298 469 318 q 314 279 318 286 l 314 277 q 319 271 315 271 l 691 366 l 691 388 l 341 388 m 314 225 l 314 222 q 322 217 314 217 q 713 317 355 222 l 715 323 q 710 328 715 328 l 707 328 q 317 231 694 328 l 314 225 m 317 168 q 322 163 317 163 q 718 263 344 163 l 718 269 q 710 274 718 274 q 319 174 663 263 l 317 168 m 325 109 q 333 106 328 109 q 726 209 711 201 l 726 212 q 718 220 726 216 q 325 117 365 130 l 325 109 m 409 81 q 545 84 503 84 l 574 84 l 569 92 l 569 95 q 645 130 569 120 q 726 157 723 150 q 718 163 726 163 q 409 84 643 146 l 409 81 m 618 87 l 618 81 q 661 95 659 85 l 659 95 l 618 87 z "},"j":{"ha":1014,"x_min":40,"x_max":973,"o":"m 591 1525 q 843 1394 706 1516 q 973 1153 958 1264 l 973 974 q 867 746 973 890 q 764 526 764 671 l 764 494 q 743 420 764 452 l 743 361 q 753 323 753 330 q 748 296 753 317 q 756 274 756 282 l 756 269 q 753 244 756 259 q 764 217 764 225 l 764 212 q 756 182 764 203 q 764 160 764 180 l 764 157 q 737 114 764 134 q 631 33 705 33 l 604 33 q 583 0 586 0 l 450 0 q 431 33 441 0 l 404 33 q 287 98 343 33 q 284 114 287 100 q 290 136 290 134 q 279 165 279 152 l 279 171 q 284 198 279 176 q 273 222 277 198 q 281 252 273 229 q 273 282 273 265 q 290 323 273 284 l 290 404 q 265 570 273 446 q 170 719 227 680 q 40 974 49 860 l 40 1142 q 176 1402 47 1256 q 420 1525 306 1511 l 591 1525 m 81 1061 q 241 722 81 869 q 325 461 325 631 q 338 439 333 439 l 669 439 q 713 483 713 439 l 713 513 q 813 762 713 690 q 932 1058 932 897 q 726 1421 932 1282 q 504 1484 621 1484 q 143 1280 286 1484 q 81 1061 81 1167 m 569 1215 l 653 1215 q 659 1210 659 1215 l 659 689 q 615 646 652 646 l 417 646 q 374 689 374 652 l 374 879 q 379 884 374 884 l 463 884 q 469 879 469 884 l 469 741 l 564 741 l 564 1210 q 569 1215 564 1215 m 341 388 l 341 331 l 452 358 q 469 345 464 355 l 469 334 q 363 298 469 318 q 314 279 318 286 l 314 277 q 319 271 315 271 l 691 366 l 691 388 l 341 388 m 314 225 l 314 222 q 322 217 314 217 q 713 317 355 222 l 715 323 q 710 328 715 328 l 707 328 q 317 231 694 328 l 314 225 m 317 168 q 322 163 317 163 q 718 263 344 163 l 718 269 q 710 274 718 274 q 319 174 663 263 l 317 168 m 325 109 q 333 106 328 109 q 726 209 711 201 l 726 212 q 718 220 726 216 q 325 117 365 130 l 325 109 m 409 81 q 545 84 503 84 l 574 84 l 569 92 l 569 95 q 645 130 569 120 q 726 157 723 150 q 718 163 726 163 q 409 84 643 146 l 409 81 m 618 87 l 618 81 q 661 95 659 85 l 659 95 l 618 87 z "},"k":{"ha":1014,"x_min":40,"x_max":973,"o":"m 591 1525 q 843 1394 706 1516 q 973 1153 958 1264 l 973 974 q 867 746 973 890 q 764 526 764 671 l 764 494 q 743 420 764 452 l 743 361 q 753 323 753 330 q 748 296 753 317 q 756 274 756 282 l 756 269 q 753 244 756 259 q 764 217 764 225 l 764 212 q 756 182 764 203 q 764 160 764 180 l 764 157 q 737 114 764 134 q 631 33 705 33 l 604 33 q 583 0 586 0 l 450 0 q 431 33 441 0 l 404 33 q 287 98 343 33 q 284 114 287 100 q 290 136 290 134 q 279 165 279 152 l 279 171 q 284 198 279 176 q 273 222 277 198 q 281 252 273 229 q 273 282 273 265 q 290 323 273 284 l 290 404 q 265 570 273 446 q 170 719 227 680 q 40 974 49 860 l 40 1142 q 176 1402 47 1256 q 420 1525 306 1511 l 591 1525 m 81 1061 q 241 722 81 869 q 325 461 325 631 q 338 439 333 439 l 669 439 q 713 483 713 439 l 713 513 q 813 762 713 690 q 932 1058 932 897 q 726 1421 932 1282 q 504 1484 621 1484 q 143 1280 286 1484 q 81 1061 81 1167 m 379 1215 l 463 1215 q 469 1210 469 1215 l 469 1031 l 471 1031 q 566 1215 559 1215 l 653 1215 l 659 1213 q 566 1023 566 1031 l 659 648 l 653 646 l 566 646 q 471 1015 559 646 l 469 1015 l 469 651 q 463 646 469 646 l 379 646 q 374 651 374 646 l 374 1210 q 379 1215 374 1215 m 341 388 l 341 331 l 452 358 q 469 345 464 355 l 469 334 q 363 298 469 318 q 314 279 318 286 l 314 277 q 319 271 315 271 l 691 366 l 691 388 l 341 388 m 314 225 l 314 222 q 322 217 314 217 q 713 317 355 222 l 715 323 q 710 328 715 328 l 707 328 q 317 231 694 328 l 314 225 m 317 168 q 322 163 317 163 q 718 263 344 163 l 718 269 q 710 274 718 274 q 319 174 663 263 l 317 168 m 325 109 q 333 106 328 109 q 726 209 711 201 l 726 212 q 718 220 726 216 q 325 117 365 130 l 325 109 m 409 81 q 545 84 503 84 l 574 84 l 569 92 l 569 95 q 645 130 569 120 q 726 157 723 150 q 718 163 726 163 q 409 84 643 146 l 409 81 m 618 87 l 618 81 q 661 95 659 85 l 659 95 l 618 87 z "},"l":{"ha":1014,"x_min":40,"x_max":973,"o":"m 591 1525 q 843 1394 706 1516 q 973 1153 958 1264 l 973 974 q 867 746 973 890 q 764 526 764 671 l 764 494 q 743 420 764 452 l 743 361 q 753 323 753 330 q 748 296 753 317 q 756 274 756 282 l 756 269 q 753 244 756 259 q 764 217 764 225 l 764 212 q 756 182 764 203 q 764 160 764 180 l 764 157 q 737 114 764 134 q 631 33 705 33 l 604 33 q 583 0 586 0 l 450 0 q 431 33 441 0 l 404 33 q 287 98 343 33 q 284 114 287 100 q 290 136 290 134 q 279 165 279 152 l 279 171 q 284 198 279 176 q 273 222 277 198 q 281 252 273 229 q 273 282 273 265 q 290 323 273 284 l 290 404 q 265 570 273 446 q 170 719 227 680 q 40 974 49 860 l 40 1142 q 176 1402 47 1256 q 420 1525 306 1511 l 591 1525 m 81 1061 q 241 722 81 869 q 325 461 325 631 q 338 439 333 439 l 669 439 q 713 483 713 439 l 713 513 q 813 762 713 690 q 932 1058 932 897 q 726 1421 932 1282 q 504 1484 621 1484 q 143 1280 286 1484 q 81 1061 81 1167 m 379 1215 l 463 1215 q 469 1210 469 1215 l 469 741 l 653 741 q 659 735 659 740 l 659 651 q 653 646 659 646 l 379 646 q 374 651 374 646 l 374 1210 q 379 1215 374 1215 m 341 388 l 341 331 l 452 358 q 469 345 464 355 l 469 334 q 363 298 469 318 q 314 279 318 286 l 314 277 q 319 271 315 271 l 691 366 l 691 388 l 341 388 m 314 225 l 314 222 q 322 217 314 217 q 713 317 355 222 l 715 323 q 710 328 715 328 l 707 328 q 317 231 694 328 l 314 225 m 317 168 q 322 163 317 163 q 718 263 344 163 l 718 269 q 710 274 718 274 q 319 174 663 263 l 317 168 m 325 109 q 333 106 328 109 q 726 209 711 201 l 726 212 q 718 220 726 216 q 325 117 365 130 l 325 109 m 409 81 q 545 84 503 84 l 574 84 l 569 92 l 569 95 q 645 130 569 120 q 726 157 723 150 q 718 163 726 163 q 409 84 643 146 l 409 81 m 618 87 l 618 81 q 661 95 659 85 l 659 95 l 618 87 z "},"m":{"ha":1014,"x_min":40,"x_max":973,"o":"m 591 1525 q 843 1394 706 1516 q 973 1153 958 1264 l 973 974 q 867 746 973 890 q 764 526 764 671 l 764 494 q 743 420 764 452 l 743 361 q 753 323 753 330 q 748 296 753 317 q 756 274 756 282 l 756 269 q 753 244 756 259 q 764 217 764 225 l 764 212 q 756 182 764 203 q 764 160 764 180 l 764 157 q 737 114 764 134 q 631 33 705 33 l 604 33 q 583 0 586 0 l 450 0 q 431 33 441 0 l 404 33 q 287 98 343 33 q 284 114 287 100 q 290 136 290 134 q 279 165 279 152 l 279 171 q 284 198 279 176 q 273 222 277 198 q 281 252 273 229 q 273 282 273 265 q 290 323 273 284 l 290 404 q 265 570 273 446 q 170 719 227 680 q 40 974 49 860 l 40 1142 q 176 1402 47 1256 q 420 1525 306 1511 l 591 1525 m 81 1061 q 238 724 81 870 q 271 684 269 684 l 271 1210 q 276 1215 271 1215 l 363 1215 q 507 792 370 1215 l 509 792 q 653 1215 646 1215 l 740 1215 q 745 1210 745 1215 l 745 684 l 748 684 q 848 803 748 701 q 932 1058 932 928 q 726 1421 932 1282 q 504 1484 621 1484 q 143 1280 286 1484 q 81 1061 81 1167 m 366 922 l 366 651 q 360 646 366 646 l 292 646 l 292 643 q 325 461 325 578 q 338 439 333 439 l 669 439 q 713 483 713 439 l 713 513 q 729 646 713 586 l 656 646 q 650 651 650 646 l 650 922 l 648 922 q 553 646 560 646 l 463 646 q 368 922 456 646 l 366 922 m 341 388 l 341 331 l 452 358 q 469 345 464 355 l 469 334 q 363 298 469 318 q 314 279 318 286 l 314 277 q 319 271 315 271 l 691 366 l 691 388 l 341 388 m 314 225 l 314 222 q 322 217 314 217 q 713 317 355 222 l 715 323 q 710 328 715 328 l 707 328 q 317 231 694 328 l 314 225 m 317 168 q 322 163 317 163 q 718 263 344 163 l 718 269 q 710 274 718 274 q 319 174 663 263 l 317 168 m 325 109 q 333 106 328 109 q 726 209 711 201 l 726 212 q 718 220 726 216 q 325 117 365 130 l 325 109 m 409 81 q 545 84 503 84 l 574 84 l 569 92 l 569 95 q 645 130 569 120 q 726 157 723 150 q 718 163 726 163 q 409 84 643 146 l 409 81 m 618 87 l 618 81 q 661 95 659 85 l 659 95 l 618 87 z "},"n":{"ha":1014,"x_min":40,"x_max":973,"o":"m 591 1525 q 843 1394 706 1516 q 973 1153 958 1264 l 973 974 q 867 746 973 890 q 764 526 764 671 l 764 494 q 743 420 764 452 l 743 361 q 753 323 753 330 q 748 296 753 317 q 756 274 756 282 l 756 269 q 753 244 756 259 q 764 217 764 225 l 764 212 q 756 182 764 203 q 764 160 764 180 l 764 157 q 737 114 764 134 q 631 33 705 33 l 604 33 q 583 0 586 0 l 450 0 q 431 33 441 0 l 404 33 q 287 98 343 33 q 284 114 287 100 q 290 136 290 134 q 279 165 279 152 l 279 171 q 284 198 279 176 q 273 222 277 198 q 281 252 273 229 q 273 282 273 265 q 290 323 273 284 l 290 404 q 265 570 273 446 q 170 719 227 680 q 40 974 49 860 l 40 1142 q 176 1402 47 1256 q 420 1525 306 1511 l 591 1525 m 81 1061 q 241 722 81 869 q 325 461 325 631 q 338 439 333 439 l 669 439 q 713 483 713 439 l 713 513 q 813 762 713 690 q 932 1058 932 897 q 726 1421 932 1282 q 504 1484 621 1484 q 143 1280 286 1484 q 81 1061 81 1167 m 382 1215 l 469 1215 q 564 939 476 1215 l 566 939 l 566 1210 q 572 1215 567 1215 l 656 1215 q 661 1210 661 1215 l 661 651 q 656 646 661 646 l 569 646 q 474 922 562 646 l 471 922 l 471 651 q 466 646 471 646 l 382 646 q 376 651 376 646 l 376 1210 q 382 1215 377 1215 m 341 388 l 341 331 l 452 358 q 469 345 464 355 l 469 334 q 363 298 469 318 q 314 279 318 286 l 314 277 q 319 271 315 271 l 691 366 l 691 388 l 341 388 m 314 225 l 314 222 q 322 217 314 217 q 713 317 355 222 l 715 323 q 710 328 715 328 l 707 328 q 317 231 694 328 l 314 225 m 317 168 q 322 163 317 163 q 718 263 344 163 l 718 269 q 710 274 718 274 q 319 174 663 263 l 317 168 m 325 109 q 333 106 328 109 q 726 209 711 201 l 726 212 q 718 220 726 216 q 325 117 365 130 l 325 109 m 409 81 q 545 84 503 84 l 574 84 l 569 92 l 569 95 q 645 130 569 120 q 726 157 723 150 q 718 163 726 163 q 409 84 643 146 l 409 81 m 618 87 l 618 81 q 661 95 659 85 l 659 95 l 618 87 z "},"o":{"ha":1014,"x_min":40,"x_max":973,"o":"m 591 1525 q 843 1394 706 1516 q 973 1153 958 1264 l 973 974 q 867 746 973 890 q 764 526 764 671 l 764 494 q 743 420 764 452 l 743 361 q 753 323 753 330 q 748 296 753 317 q 756 274 756 282 l 756 269 q 753 244 756 259 q 764 217 764 225 l 764 212 q 756 182 764 203 q 764 160 764 180 l 764 157 q 737 114 764 134 q 631 33 705 33 l 604 33 q 583 0 586 0 l 450 0 q 431 33 441 0 l 404 33 q 287 98 343 33 q 284 114 287 100 q 290 136 290 134 q 279 165 279 152 l 279 171 q 284 198 279 176 q 273 222 277 198 q 281 252 273 229 q 273 282 273 265 q 290 323 273 284 l 290 404 q 265 570 273 446 q 170 719 227 680 q 40 974 49 860 l 40 1142 q 176 1402 47 1256 q 420 1525 306 1511 l 591 1525 m 81 1061 q 241 722 81 869 q 325 461 325 631 q 338 439 333 439 l 669 439 q 713 483 713 439 l 713 513 q 813 762 713 690 q 932 1058 932 897 q 726 1421 932 1282 q 504 1484 621 1484 q 143 1280 286 1484 q 81 1061 81 1167 m 417 1215 l 615 1215 q 659 1172 659 1208 l 659 689 q 615 646 652 646 l 417 646 q 374 689 374 652 l 374 1172 q 417 1215 380 1215 m 469 1120 l 469 741 l 564 741 l 564 1120 l 469 1120 m 341 388 l 341 331 l 452 358 q 469 345 464 355 l 469 334 q 363 298 469 318 q 314 279 318 286 l 314 277 q 319 271 315 271 l 691 366 l 691 388 l 341 388 m 314 225 l 314 222 q 322 217 314 217 q 713 317 355 222 l 715 323 q 710 328 715 328 l 707 328 q 317 231 694 328 l 314 225 m 317 168 q 322 163 317 163 q 718 263 344 163 l 718 269 q 710 274 718 274 q 319 174 663 263 l 317 168 m 325 109 q 333 106 328 109 q 726 209 711 201 l 726 212 q 718 220 726 216 q 325 117 365 130 l 325 109 m 409 81 q 545 84 503 84 l 574 84 l 569 92 l 569 95 q 645 130 569 120 q 726 157 723 150 q 718 163 726 163 q 409 84 643 146 l 409 81 m 618 87 l 618 81 q 661 95 659 85 l 659 95 l 618 87 z "},"p":{"ha":1014,"x_min":40,"x_max":973,"o":"m 591 1525 q 843 1394 706 1516 q 973 1153 958 1264 l 973 974 q 867 746 973 890 q 764 526 764 671 l 764 494 q 743 420 764 452 l 743 361 q 753 323 753 330 q 748 296 753 317 q 756 274 756 282 l 756 269 q 753 244 756 259 q 764 217 764 225 l 764 212 q 756 182 764 203 q 764 160 764 180 l 764 157 q 737 114 764 134 q 631 33 705 33 l 604 33 q 583 0 586 0 l 450 0 q 431 33 441 0 l 404 33 q 287 98 343 33 q 284 114 287 100 q 290 136 290 134 q 279 165 279 152 l 279 171 q 284 198 279 176 q 273 222 277 198 q 281 252 273 229 q 273 282 273 265 q 290 323 273 284 l 290 404 q 265 570 273 446 q 170 719 227 680 q 40 974 49 860 l 40 1142 q 176 1402 47 1256 q 420 1525 306 1511 l 591 1525 m 81 1061 q 241 722 81 869 q 325 461 325 631 q 338 439 333 439 l 669 439 q 713 483 713 439 l 713 513 q 813 762 713 690 q 932 1058 932 897 q 726 1421 932 1282 q 504 1484 621 1484 q 143 1280 286 1484 q 81 1061 81 1167 m 379 1215 l 615 1215 q 659 1172 659 1208 l 659 879 q 615 836 652 836 l 469 836 l 469 651 q 463 646 469 646 l 379 646 q 374 651 374 646 l 374 1210 q 379 1215 374 1215 m 469 1120 l 469 930 l 564 930 l 564 1120 l 469 1120 m 341 388 l 341 331 l 452 358 q 469 345 464 355 l 469 334 q 363 298 469 318 q 314 279 318 286 l 314 277 q 319 271 315 271 l 691 366 l 691 388 l 341 388 m 314 225 l 314 222 q 322 217 314 217 q 713 317 355 222 l 715 323 q 710 328 715 328 l 707 328 q 317 231 694 328 l 314 225 m 317 168 q 322 163 317 163 q 718 263 344 163 l 718 269 q 710 274 718 274 q 319 174 663 263 l 317 168 m 325 109 q 333 106 328 109 q 726 209 711 201 l 726 212 q 718 220 726 216 q 325 117 365 130 l 325 109 m 409 81 q 545 84 503 84 l 574 84 l 569 92 l 569 95 q 645 130 569 120 q 726 157 723 150 q 718 163 726 163 q 409 84 643 146 l 409 81 m 618 87 l 618 81 q 661 95 659 85 l 659 95 l 618 87 z "},"q":{"ha":1014,"x_min":40,"x_max":973,"o":"m 591 1525 q 843 1394 706 1516 q 973 1153 958 1264 l 973 974 q 867 746 973 890 q 764 526 764 671 l 764 494 q 743 420 764 452 l 743 361 q 753 323 753 330 q 748 296 753 317 q 756 274 756 282 l 756 269 q 753 244 756 259 q 764 217 764 225 l 764 212 q 756 182 764 203 q 764 160 764 180 l 764 157 q 737 114 764 134 q 631 33 705 33 l 604 33 q 583 0 586 0 l 450 0 q 431 33 441 0 l 404 33 q 287 98 343 33 q 284 114 287 100 q 290 136 290 134 q 279 165 279 152 l 279 171 q 284 198 279 176 q 273 222 277 198 q 281 252 273 229 q 273 282 273 265 q 290 323 273 284 l 290 404 q 265 570 273 446 q 170 719 227 680 q 40 974 49 860 l 40 1142 q 176 1402 47 1256 q 420 1525 306 1511 l 591 1525 m 81 1061 q 241 722 81 869 q 325 461 325 631 q 338 439 333 439 l 669 439 q 713 483 713 439 l 713 513 q 813 762 713 690 q 932 1058 932 897 q 726 1421 932 1282 q 504 1484 621 1484 q 143 1280 286 1484 q 81 1061 81 1167 m 420 1213 l 618 1213 q 661 1169 661 1206 l 661 686 q 618 643 654 643 l 566 643 l 566 553 q 561 548 566 548 l 477 548 q 471 553 471 548 l 471 643 l 420 643 q 376 686 376 650 l 376 1169 q 420 1213 383 1213 m 471 1118 l 471 738 l 566 738 l 566 1118 l 471 1118 m 341 388 l 341 331 l 452 358 q 469 345 464 355 l 469 334 q 363 298 469 318 q 314 279 318 286 l 314 277 q 319 271 315 271 l 691 366 l 691 388 l 341 388 m 314 225 l 314 222 q 322 217 314 217 q 713 317 355 222 l 715 323 q 710 328 715 328 l 707 328 q 317 231 694 328 l 314 225 m 317 168 q 322 163 317 163 q 718 263 344 163 l 718 269 q 710 274 718 274 q 319 174 663 263 l 317 168 m 325 109 q 333 106 328 109 q 726 209 711 201 l 726 212 q 718 220 726 216 q 325 117 365 130 l 325 109 m 409 81 q 545 84 503 84 l 574 84 l 569 92 l 569 95 q 645 130 569 120 q 726 157 723 150 q 718 163 726 163 q 409 84 643 146 l 409 81 m 618 87 l 618 81 q 661 95 659 85 l 659 95 l 618 87 z "},"r":{"ha":1014,"x_min":40,"x_max":973,"o":"m 591 1525 q 843 1394 706 1516 q 973 1153 958 1264 l 973 974 q 867 746 973 890 q 764 526 764 671 l 764 494 q 743 420 764 452 l 743 361 q 753 323 753 330 q 748 296 753 317 q 756 274 756 282 l 756 269 q 753 244 756 259 q 764 217 764 225 l 764 212 q 756 182 764 203 q 764 160 764 180 l 764 157 q 737 114 764 134 q 631 33 705 33 l 604 33 q 583 0 586 0 l 450 0 q 431 33 441 0 l 404 33 q 287 98 343 33 q 284 114 287 100 q 290 136 290 134 q 279 165 279 152 l 279 171 q 284 198 279 176 q 273 222 277 198 q 281 252 273 229 q 273 282 273 265 q 290 323 273 284 l 290 404 q 265 570 273 446 q 170 719 227 680 q 40 974 49 860 l 40 1142 q 176 1402 47 1256 q 420 1525 306 1511 l 591 1525 m 81 1061 q 241 722 81 869 q 325 461 325 631 q 338 439 333 439 l 669 439 q 713 483 713 439 l 713 513 q 813 762 713 690 q 932 1058 932 897 q 726 1421 932 1282 q 504 1484 621 1484 q 143 1280 286 1484 q 81 1061 81 1167 m 379 1215 l 615 1215 q 659 1172 659 1208 l 659 879 q 615 836 652 836 l 566 836 l 566 833 l 659 648 l 653 646 l 566 646 q 471 830 559 646 l 469 830 l 469 651 q 463 646 469 646 l 379 646 q 374 651 374 646 l 374 1210 q 379 1215 374 1215 m 469 1120 l 469 930 l 564 930 l 564 1120 l 469 1120 m 341 388 l 341 331 l 452 358 q 469 345 464 355 l 469 334 q 363 298 469 318 q 314 279 318 286 l 314 277 q 319 271 315 271 l 691 366 l 691 388 l 341 388 m 314 225 l 314 222 q 322 217 314 217 q 713 317 355 222 l 715 323 q 710 328 715 328 l 707 328 q 317 231 694 328 l 314 225 m 317 168 q 322 163 317 163 q 718 263 344 163 l 718 269 q 710 274 718 274 q 319 174 663 263 l 317 168 m 325 109 q 333 106 328 109 q 726 209 711 201 l 726 212 q 718 220 726 216 q 325 117 365 130 l 325 109 m 409 81 q 545 84 503 84 l 574 84 l 569 92 l 569 95 q 645 130 569 120 q 726 157 723 150 q 718 163 726 163 q 409 84 643 146 l 409 81 m 618 87 l 618 81 q 661 95 659 85 l 659 95 l 618 87 z "},"s":{"ha":1014,"x_min":40,"x_max":973,"o":"m 591 1525 q 843 1394 706 1516 q 973 1153 958 1264 l 973 974 q 867 746 973 890 q 764 526 764 671 l 764 494 q 743 420 764 452 l 743 361 q 753 323 753 330 q 748 296 753 317 q 756 274 756 282 l 756 269 q 753 244 756 259 q 764 217 764 225 l 764 212 q 756 182 764 203 q 764 160 764 180 l 764 157 q 737 114 764 134 q 631 33 705 33 l 604 33 q 583 0 586 0 l 450 0 q 431 33 441 0 l 404 33 q 287 98 343 33 q 284 114 287 100 q 290 136 290 134 q 279 165 279 152 l 279 171 q 284 198 279 176 q 273 222 277 198 q 281 252 273 229 q 273 282 273 265 q 290 323 273 284 l 290 404 q 265 570 273 446 q 170 719 227 680 q 40 974 49 860 l 40 1142 q 176 1402 47 1256 q 420 1525 306 1511 l 591 1525 m 81 1061 q 241 722 81 869 q 325 461 325 631 q 338 439 333 439 l 669 439 q 713 483 713 439 l 713 513 q 813 762 713 690 q 932 1058 932 897 q 726 1421 932 1282 q 504 1484 621 1484 q 143 1280 286 1484 q 81 1061 81 1167 m 417 1215 l 653 1215 q 659 1210 659 1215 l 659 1126 q 653 1120 659 1120 l 469 1120 l 469 1025 l 615 1025 q 659 982 659 1019 l 659 689 q 615 646 652 646 l 379 646 q 374 651 374 646 l 374 735 q 379 741 374 741 l 564 741 l 564 930 l 417 930 q 374 974 374 937 l 374 1172 q 417 1215 380 1215 m 341 388 l 341 331 l 452 358 q 469 345 464 355 l 469 334 q 363 298 469 318 q 314 279 318 286 l 314 277 q 319 271 315 271 l 691 366 l 691 388 l 341 388 m 314 225 l 314 222 q 322 217 314 217 q 713 317 355 222 l 715 323 q 710 328 715 328 l 707 328 q 317 231 694 328 l 314 225 m 317 168 q 322 163 317 163 q 718 263 344 163 l 718 269 q 710 274 718 274 q 319 174 663 263 l 317 168 m 325 109 q 333 106 328 109 q 726 209 711 201 l 726 212 q 718 220 726 216 q 325 117 365 130 l 325 109 m 409 81 q 545 84 503 84 l 574 84 l 569 92 l 569 95 q 645 130 569 120 q 726 157 723 150 q 718 163 726 163 q 409 84 643 146 l 409 81 m 618 87 l 618 81 q 661 95 659 85 l 659 95 l 618 87 z "},"t":{"ha":1014,"x_min":40,"x_max":973,"o":"m 591 1525 q 843 1394 706 1516 q 973 1153 958 1264 l 973 974 q 867 746 973 890 q 764 526 764 671 l 764 494 q 743 420 764 452 l 743 361 q 753 323 753 330 q 748 296 753 317 q 756 274 756 282 l 756 269 q 753 244 756 259 q 764 217 764 225 l 764 212 q 756 182 764 203 q 764 160 764 180 l 764 157 q 737 114 764 134 q 631 33 705 33 l 604 33 q 583 0 586 0 l 450 0 q 431 33 441 0 l 404 33 q 287 98 343 33 q 284 114 287 100 q 290 136 290 134 q 279 165 279 152 l 279 171 q 284 198 279 176 q 273 222 277 198 q 281 252 273 229 q 273 282 273 265 q 290 323 273 284 l 290 404 q 265 570 273 446 q 170 719 227 680 q 40 974 49 860 l 40 1142 q 176 1402 47 1256 q 420 1525 306 1511 l 591 1525 m 81 1061 q 241 722 81 869 q 325 461 325 631 q 338 439 333 439 l 669 439 q 713 483 713 439 l 713 513 q 813 762 713 690 q 932 1058 932 897 q 726 1421 932 1282 q 504 1484 621 1484 q 143 1280 286 1484 q 81 1061 81 1167 m 379 1215 l 653 1215 q 659 1210 659 1215 l 659 1126 q 653 1120 659 1120 l 564 1120 l 564 651 q 558 646 564 646 l 474 646 q 469 651 469 646 l 469 1120 l 379 1120 q 374 1126 374 1120 l 374 1210 q 379 1215 374 1215 m 341 388 l 341 331 l 452 358 q 469 345 464 355 l 469 334 q 363 298 469 318 q 314 279 318 286 l 314 277 q 319 271 315 271 l 691 366 l 691 388 l 341 388 m 314 225 l 314 222 q 322 217 314 217 q 713 317 355 222 l 715 323 q 710 328 715 328 l 707 328 q 317 231 694 328 l 314 225 m 317 168 q 322 163 317 163 q 718 263 344 163 l 718 269 q 710 274 718 274 q 319 174 663 263 l 317 168 m 325 109 q 333 106 328 109 q 726 209 711 201 l 726 212 q 718 220 726 216 q 325 117 365 130 l 325 109 m 409 81 q 545 84 503 84 l 574 84 l 569 92 l 569 95 q 645 130 569 120 q 726 157 723 150 q 718 163 726 163 q 409 84 643 146 l 409 81 m 618 87 l 618 81 q 661 95 659 85 l 659 95 l 618 87 z "},"u":{"ha":1014,"x_min":40,"x_max":973,"o":"m 591 1525 q 843 1394 706 1516 q 973 1153 958 1264 l 973 974 q 867 746 973 890 q 764 526 764 671 l 764 494 q 743 420 764 452 l 743 361 q 753 323 753 330 q 748 296 753 317 q 756 274 756 282 l 756 269 q 753 244 756 259 q 764 217 764 225 l 764 212 q 756 182 764 203 q 764 160 764 180 l 764 157 q 737 114 764 134 q 631 33 705 33 l 604 33 q 583 0 586 0 l 450 0 q 431 33 441 0 l 404 33 q 287 98 343 33 q 284 114 287 100 q 290 136 290 134 q 279 165 279 152 l 279 171 q 284 198 279 176 q 273 222 277 198 q 281 252 273 229 q 273 282 273 265 q 290 323 273 284 l 290 404 q 265 570 273 446 q 170 719 227 680 q 40 974 49 860 l 40 1142 q 176 1402 47 1256 q 420 1525 306 1511 l 591 1525 m 81 1061 q 241 722 81 869 q 325 461 325 631 q 338 439 333 439 l 669 439 q 713 483 713 439 l 713 513 q 813 762 713 690 q 932 1058 932 897 q 726 1421 932 1282 q 504 1484 621 1484 q 143 1280 286 1484 q 81 1061 81 1167 m 379 1215 l 463 1215 q 469 1210 469 1215 l 469 741 l 564 741 l 564 1210 q 569 1215 564 1215 l 653 1215 q 659 1210 659 1215 l 659 689 q 615 646 652 646 l 417 646 q 374 689 374 652 l 374 1210 q 379 1215 374 1215 m 341 388 l 341 331 l 452 358 q 469 345 464 355 l 469 334 q 363 298 469 318 q 314 279 318 286 l 314 277 q 319 271 315 271 l 691 366 l 691 388 l 341 388 m 314 225 l 314 222 q 322 217 314 217 q 713 317 355 222 l 715 323 q 710 328 715 328 l 707 328 q 317 231 694 328 l 314 225 m 317 168 q 322 163 317 163 q 718 263 344 163 l 718 269 q 710 274 718 274 q 319 174 663 263 l 317 168 m 325 109 q 333 106 328 109 q 726 209 711 201 l 726 212 q 718 220 726 216 q 325 117 365 130 l 325 109 m 409 81 q 545 84 503 84 l 574 84 l 569 92 l 569 95 q 645 130 569 120 q 726 157 723 150 q 718 163 726 163 q 409 84 643 146 l 409 81 m 618 87 l 618 81 q 661 95 659 85 l 659 95 l 618 87 z "},"v":{"ha":1014,"x_min":40,"x_max":973,"o":"m 591 1525 q 843 1394 706 1516 q 973 1153 958 1264 l 973 974 q 867 746 973 890 q 764 526 764 671 l 764 494 q 743 420 764 452 l 743 361 q 753 323 753 330 q 748 296 753 317 q 756 274 756 282 l 756 269 q 753 244 756 259 q 764 217 764 225 l 764 212 q 756 182 764 203 q 764 160 764 180 l 764 157 q 737 114 764 134 q 631 33 705 33 l 604 33 q 583 0 586 0 l 450 0 q 431 33 441 0 l 404 33 q 287 98 343 33 q 284 114 287 100 q 290 136 290 134 q 279 165 279 152 l 279 171 q 284 198 279 176 q 273 222 277 198 q 281 252 273 229 q 273 282 273 265 q 290 323 273 284 l 290 404 q 265 570 273 446 q 170 719 227 680 q 40 974 49 860 l 40 1142 q 176 1402 47 1256 q 420 1525 306 1511 l 591 1525 m 81 1061 q 241 722 81 869 q 325 461 325 631 q 338 439 333 439 l 669 439 q 713 483 713 439 l 713 513 q 813 762 713 690 q 932 1058 932 897 q 726 1421 932 1282 q 504 1484 621 1484 q 143 1280 286 1484 q 81 1061 81 1167 m 379 1215 l 466 1215 q 515 939 473 1215 l 517 939 q 566 1215 559 1215 l 653 1215 q 659 1210 659 1215 q 564 646 569 663 l 471 646 q 428 890 464 646 q 374 1213 425 890 l 379 1215 m 341 388 l 341 331 l 452 358 q 469 345 464 355 l 469 334 q 363 298 469 318 q 314 279 318 286 l 314 277 q 319 271 315 271 l 691 366 l 691 388 l 341 388 m 314 225 l 314 222 q 322 217 314 217 q 713 317 355 222 l 715 323 q 710 328 715 328 l 707 328 q 317 231 694 328 l 314 225 m 317 168 q 322 163 317 163 q 718 263 344 163 l 718 269 q 710 274 718 274 q 319 174 663 263 l 317 168 m 325 109 q 333 106 328 109 q 726 209 711 201 l 726 212 q 718 220 726 216 q 325 117 365 130 l 325 109 m 409 81 q 545 84 503 84 l 574 84 l 569 92 l 569 95 q 645 130 569 120 q 726 157 723 150 q 718 163 726 163 q 409 84 643 146 l 409 81 m 618 87 l 618 81 q 661 95 659 85 l 659 95 l 618 87 z "},"w":{"ha":1014,"x_min":40,"x_max":973,"o":"m 591 1525 q 843 1394 706 1516 q 973 1153 958 1264 l 973 974 q 867 746 973 890 q 764 526 764 671 l 764 494 q 743 420 764 452 l 743 361 q 753 323 753 330 q 748 296 753 317 q 756 274 756 282 l 756 269 q 753 244 756 259 q 764 217 764 225 l 764 212 q 756 182 764 203 q 764 160 764 180 l 764 157 q 737 114 764 134 q 631 33 705 33 l 604 33 q 583 0 586 0 l 450 0 q 431 33 441 0 l 404 33 q 287 98 343 33 q 284 114 287 100 q 290 136 290 134 q 279 165 279 152 l 279 171 q 284 198 279 176 q 273 222 277 198 q 281 252 273 229 q 273 282 273 265 q 290 323 273 284 l 290 404 q 265 570 273 446 q 170 719 227 680 q 40 974 49 860 l 40 1142 q 176 1402 47 1256 q 420 1525 306 1511 l 591 1525 m 81 1061 q 241 722 81 869 q 325 461 325 631 q 338 439 333 439 l 669 439 q 713 483 713 439 l 713 513 q 813 762 713 690 q 932 1058 932 897 q 726 1421 932 1282 q 504 1484 621 1484 q 143 1280 286 1484 q 81 1061 81 1167 m 284 1215 l 371 1215 q 420 939 378 1215 l 422 939 q 471 1215 464 1215 l 561 1215 q 610 939 568 1215 l 612 939 q 661 1215 654 1215 l 748 1215 q 753 1210 753 1215 q 659 646 664 663 l 566 646 q 517 922 559 646 l 515 922 q 466 646 473 646 l 376 646 q 333 890 369 646 q 279 1213 330 890 l 284 1215 m 341 388 l 341 331 l 452 358 q 469 345 464 355 l 469 334 q 363 298 469 318 q 314 279 318 286 l 314 277 q 319 271 315 271 l 691 366 l 691 388 l 341 388 m 314 225 l 314 222 q 322 217 314 217 q 713 317 355 222 l 715 323 q 710 328 715 328 l 707 328 q 317 231 694 328 l 314 225 m 317 168 q 322 163 317 163 q 718 263 344 163 l 718 269 q 710 274 718 274 q 319 174 663 263 l 317 168 m 325 109 q 333 106 328 109 q 726 209 711 201 l 726 212 q 718 220 726 216 q 325 117 365 130 l 325 109 m 409 81 q 545 84 503 84 l 574 84 l 569 92 l 569 95 q 645 130 569 120 q 726 157 723 150 q 718 163 726 163 q 409 84 643 146 l 409 81 m 618 87 l 618 81 q 661 95 659 85 l 659 95 l 618 87 z "},"x":{"ha":1014,"x_min":40,"x_max":973,"o":"m 591 1525 q 843 1394 706 1516 q 973 1153 958 1264 l 973 974 q 867 746 973 890 q 764 526 764 671 l 764 494 q 743 420 764 452 l 743 361 q 753 323 753 330 q 748 296 753 317 q 756 274 756 282 l 756 269 q 753 244 756 259 q 764 217 764 225 l 764 212 q 756 182 764 203 q 764 160 764 180 l 764 157 q 737 114 764 134 q 631 33 705 33 l 604 33 q 583 0 586 0 l 450 0 q 431 33 441 0 l 404 33 q 287 98 343 33 q 284 114 287 100 q 290 136 290 134 q 279 165 279 152 l 279 171 q 284 198 279 176 q 273 222 277 198 q 281 252 273 229 q 273 282 273 265 q 290 323 273 284 l 290 404 q 265 570 273 446 q 170 719 227 680 q 40 974 49 860 l 40 1142 q 176 1402 47 1256 q 420 1525 306 1511 l 591 1525 m 81 1061 q 241 722 81 869 q 325 461 325 631 q 338 439 333 439 l 669 439 q 713 483 713 439 l 713 513 q 813 762 713 690 q 932 1058 932 897 q 726 1421 932 1282 q 504 1484 621 1484 q 143 1280 286 1484 q 81 1061 81 1167 m 379 1215 l 466 1215 q 515 1077 473 1215 l 517 1077 q 566 1215 559 1215 l 653 1215 q 659 1210 659 1215 q 566 928 566 939 l 659 648 l 653 646 l 566 646 q 517 784 559 646 l 515 784 q 466 646 473 646 l 379 646 q 374 651 374 646 q 466 933 466 922 l 374 1213 l 379 1215 m 341 388 l 341 331 l 452 358 q 469 345 464 355 l 469 334 q 363 298 469 318 q 314 279 318 286 l 314 277 q 319 271 315 271 l 691 366 l 691 388 l 341 388 m 314 225 l 314 222 q 322 217 314 217 q 713 317 355 222 l 715 323 q 710 328 715 328 l 707 328 q 317 231 694 328 l 314 225 m 317 168 q 322 163 317 163 q 718 263 344 163 l 718 269 q 710 274 718 274 q 319 174 663 263 l 317 168 m 325 109 q 333 106 328 109 q 726 209 711 201 l 726 212 q 718 220 726 216 q 325 117 365 130 l 325 109 m 409 81 q 545 84 503 84 l 574 84 l 569 92 l 569 95 q 645 130 569 120 q 726 157 723 150 q 718 163 726 163 q 409 84 643 146 l 409 81 m 618 87 l 618 81 q 661 95 659 85 l 659 95 l 618 87 z "},"y":{"ha":1014,"x_min":40,"x_max":973,"o":"m 591 1525 q 843 1394 706 1516 q 973 1153 958 1264 l 973 974 q 867 746 973 890 q 764 526 764 671 l 764 494 q 743 420 764 452 l 743 361 q 753 323 753 330 q 748 296 753 317 q 756 274 756 282 l 756 269 q 753 244 756 259 q 764 217 764 225 l 764 212 q 756 182 764 203 q 764 160 764 180 l 764 157 q 737 114 764 134 q 631 33 705 33 l 604 33 q 583 0 586 0 l 450 0 q 431 33 441 0 l 404 33 q 287 98 343 33 q 284 114 287 100 q 290 136 290 134 q 279 165 279 152 l 279 171 q 284 198 279 176 q 273 222 277 198 q 281 252 273 229 q 273 282 273 265 q 290 323 273 284 l 290 404 q 265 570 273 446 q 170 719 227 680 q 40 974 49 860 l 40 1142 q 176 1402 47 1256 q 420 1525 306 1511 l 591 1525 m 81 1061 q 241 722 81 869 q 325 461 325 631 q 338 439 333 439 l 669 439 q 713 483 713 439 l 713 513 q 813 762 713 690 q 932 1058 932 897 q 726 1421 932 1282 q 504 1484 621 1484 q 143 1280 286 1484 q 81 1061 81 1167 m 379 1215 l 466 1215 q 515 1077 473 1215 l 517 1077 q 566 1215 559 1215 l 653 1215 q 659 1210 659 1215 q 564 920 564 931 l 564 651 q 558 646 564 646 l 474 646 q 469 651 469 646 l 469 920 q 374 1213 469 928 l 379 1215 m 341 388 l 341 331 l 452 358 q 469 345 464 355 l 469 334 q 363 298 469 318 q 314 279 318 286 l 314 277 q 319 271 315 271 l 691 366 l 691 388 l 341 388 m 314 225 l 314 222 q 322 217 314 217 q 713 317 355 222 l 715 323 q 710 328 715 328 l 707 328 q 317 231 694 328 l 314 225 m 317 168 q 322 163 317 163 q 718 263 344 163 l 718 269 q 710 274 718 274 q 319 174 663 263 l 317 168 m 325 109 q 333 106 328 109 q 726 209 711 201 l 726 212 q 718 220 726 216 q 325 117 365 130 l 325 109 m 409 81 q 545 84 503 84 l 574 84 l 569 92 l 569 95 q 645 130 569 120 q 726 157 723 150 q 718 163 726 163 q 409 84 643 146 l 409 81 m 618 87 l 618 81 q 661 95 659 85 l 659 95 l 618 87 z "},"z":{"ha":1014,"x_min":40,"x_max":973,"o":"m 591 1525 q 843 1394 706 1516 q 973 1153 958 1264 l 973 974 q 867 746 973 890 q 764 526 764 671 l 764 494 q 743 420 764 452 l 743 361 q 753 323 753 330 q 748 296 753 317 q 756 274 756 282 l 756 269 q 753 244 756 259 q 764 217 764 225 l 764 212 q 756 182 764 203 q 764 160 764 180 l 764 157 q 737 114 764 134 q 631 33 705 33 l 604 33 q 583 0 586 0 l 450 0 q 431 33 441 0 l 404 33 q 287 98 343 33 q 284 114 287 100 q 290 136 290 134 q 279 165 279 152 l 279 171 q 284 198 279 176 q 273 222 277 198 q 281 252 273 229 q 273 282 273 265 q 290 323 273 284 l 290 404 q 265 570 273 446 q 170 719 227 680 q 40 974 49 860 l 40 1142 q 176 1402 47 1256 q 420 1525 306 1511 l 591 1525 m 81 1061 q 241 722 81 869 q 325 461 325 631 q 338 439 333 439 l 669 439 q 713 483 713 439 l 713 513 q 813 762 713 690 q 932 1058 932 897 q 726 1421 932 1282 q 504 1484 621 1484 q 143 1280 286 1484 q 81 1061 81 1167 m 382 1215 l 656 1215 q 661 1210 661 1215 l 504 741 l 656 741 q 661 735 661 740 l 661 651 q 656 646 661 646 l 382 646 q 376 651 376 646 l 534 1120 l 382 1120 q 376 1126 376 1120 l 376 1210 q 382 1215 377 1215 m 341 388 l 341 331 l 452 358 q 469 345 464 355 l 469 334 q 363 298 469 318 q 314 279 318 286 l 314 277 q 319 271 315 271 l 691 366 l 691 388 l 341 388 m 314 225 l 314 222 q 322 217 314 217 q 713 317 355 222 l 715 323 q 710 328 715 328 l 707 328 q 317 231 694 328 l 314 225 m 317 168 q 322 163 317 163 q 718 263 344 163 l 718 269 q 710 274 718 274 q 319 174 663 263 l 317 168 m 325 109 q 333 106 328 109 q 726 209 711 201 l 726 212 q 718 220 726 216 q 325 117 365 130 l 325 109 m 409 81 q 545 84 503 84 l 574 84 l 569 92 l 569 95 q 645 130 569 120 q 726 157 723 150 q 718 163 726 163 q 409 84 643 146 l 409 81 m 618 87 l 618 81 q 661 95 659 85 l 659 95 l 618 87 z "},"{":{"ha":688,"x_min":0,"x_max":0,"o":""},"|":{"ha":688,"x_min":0,"x_max":0,"o":""},"}":{"ha":688,"x_min":0,"x_max":0,"o":""},"~":{"ha":688,"x_min":0,"x_max":0,"o":""},"":{"ha":456,"x_min":0,"x_max":0,"o":""},"":{"ha":772,"x_min":0,"x_max":0,"o":""},"":{"ha":688,"x_min":0,"x_max":0,"o":""},"":{"ha":688,"x_min":0,"x_max":0,"o":""},"":{"ha":856,"x_min":0,"x_max":0,"o":""},"":{"ha":688,"x_min":0,"x_max":0,"o":""},"":{"ha":688,"x_min":0,"x_max":0,"o":""},"":{"ha":1022,"x_min":44,"x_max":977,"o":"m 595 1525 q 847 1394 710 1516 q 977 1153 962 1264 l 977 974 q 871 746 977 890 q 768 526 768 671 l 768 494 q 747 420 768 452 l 747 361 q 758 323 758 330 q 752 296 758 317 q 760 274 760 282 l 760 269 q 758 244 760 259 q 768 217 768 225 l 768 212 q 760 182 768 203 q 768 160 768 180 l 768 157 q 741 114 768 134 q 635 33 709 33 l 608 33 q 587 0 590 0 l 454 0 q 435 33 446 0 l 408 33 q 291 98 347 33 q 288 114 291 100 q 294 136 294 134 q 283 165 283 152 l 283 171 q 288 198 283 176 q 277 222 281 198 q 286 252 277 229 q 277 282 277 265 q 294 323 277 284 l 294 404 q 269 570 277 446 q 174 719 231 680 q 44 974 53 860 l 44 1142 q 180 1402 52 1256 q 424 1525 310 1511 l 595 1525 m 85 1061 q 245 722 85 869 q 329 461 329 631 q 342 439 337 439 l 673 439 q 717 483 717 439 l 717 513 q 817 762 717 690 q 937 1058 937 897 q 730 1421 937 1282 q 508 1484 625 1484 q 147 1280 290 1484 q 85 1061 85 1167 m 413 1359 l 429 1359 q 470 1318 463 1352 l 470 1302 q 429 1261 463 1268 l 413 1261 q 372 1302 379 1268 l 372 1318 q 413 1359 379 1352 m 606 1359 l 622 1359 q 663 1318 656 1352 l 663 1302 q 622 1261 656 1268 l 606 1261 q 565 1302 572 1268 l 565 1318 q 606 1359 572 1352 m 345 388 l 345 331 l 456 358 q 473 345 468 355 l 473 334 q 367 298 473 318 q 318 279 322 286 l 318 277 q 323 271 319 271 l 695 366 l 695 388 l 345 388 m 318 225 l 318 222 q 326 217 318 217 q 717 317 359 222 l 720 323 q 714 328 720 328 l 711 328 q 321 231 698 328 l 318 225 m 321 168 q 326 163 321 163 q 722 263 348 163 l 722 269 q 714 274 722 274 q 323 174 667 263 l 321 168 m 329 109 q 337 106 332 109 q 730 209 715 201 l 730 212 q 722 220 730 216 q 329 117 369 130 l 329 109 m 413 81 q 549 84 507 84 l 578 84 l 573 92 l 573 95 q 649 130 573 120 q 730 157 727 150 q 722 163 730 163 q 413 84 647 146 l 413 81 m 622 87 l 622 81 q 665 95 663 85 l 663 95 l 622 87 z "},"":{"ha":1135,"x_min":0,"x_max":0,"o":""},"":{"ha":439,"x_min":0,"x_max":0,"o":""},"":{"ha":640,"x_min":0,"x_max":0,"o":""},"":{"ha":688,"x_min":0,"x_max":0,"o":""},"":{"ha":1135,"x_min":0,"x_max":0,"o":""},"":{"ha":454,"x_min":0,"x_max":0,"o":""},"":{"ha":457,"x_min":0,"x_max":0,"o":""},"":{"ha":688,"x_min":0,"x_max":0,"o":""},"":{"ha":688,"x_min":0,"x_max":0,"o":""},"":{"ha":688,"x_min":0,"x_max":0,"o":""},"":{"ha":1019,"x_min":43,"x_max":976,"o":"m 593 1525 q 846 1394 709 1516 q 976 1153 961 1264 l 976 974 q 870 746 976 890 q 767 526 767 671 l 767 494 q 745 420 767 452 l 745 361 q 756 323 756 330 q 751 296 756 317 q 759 274 759 282 l 759 269 q 756 244 759 259 q 767 217 767 225 l 767 212 q 759 182 767 203 q 767 160 767 180 l 767 157 q 740 114 767 134 q 634 33 708 33 l 607 33 q 585 0 589 0 l 452 0 q 433 33 444 0 l 406 33 q 290 98 346 33 q 287 114 290 100 q 292 136 292 134 q 281 165 281 152 l 281 171 q 287 198 281 176 q 276 222 280 198 q 284 252 276 229 q 276 282 276 265 q 292 323 276 284 l 292 404 q 268 570 276 446 q 173 719 229 680 q 43 974 52 860 l 43 1142 q 178 1402 50 1256 q 422 1525 309 1511 l 593 1525 m 83 1061 q 243 722 83 869 q 328 461 328 631 q 341 439 336 439 l 672 439 q 715 483 715 439 l 715 513 q 816 762 715 690 q 935 1058 935 897 q 729 1421 935 1282 q 507 1484 623 1484 q 146 1280 289 1484 q 83 1061 83 1167 m 534 1310 l 626 1310 l 626 1305 q 504 1213 616 1301 l 436 1213 l 436 1215 l 534 1310 m 344 388 l 344 331 l 455 358 q 471 345 467 355 l 471 334 q 366 298 471 318 q 317 279 321 286 l 317 277 q 322 271 317 271 l 694 366 l 694 388 l 344 388 m 317 225 l 317 222 q 325 217 317 217 q 715 317 357 222 l 718 323 q 713 328 718 328 l 710 328 q 319 231 696 328 l 317 225 m 319 168 q 325 163 320 163 q 721 263 347 163 l 721 269 q 713 274 721 274 q 322 174 665 263 l 319 168 m 328 109 q 336 106 330 109 q 729 209 713 201 l 729 212 q 721 220 729 216 q 328 117 368 130 l 328 109 m 412 81 q 547 84 506 84 l 577 84 l 572 92 l 572 95 q 648 130 572 120 q 729 157 726 150 q 721 163 729 163 q 412 84 646 146 l 412 81 m 621 87 l 621 81 q 664 95 662 85 l 661 95 l 621 87 z "},"":{"ha":800,"x_min":0,"x_max":0,"o":""},"":{"ha":694,"x_min":0,"x_max":0,"o":""},"":{"ha":345,"x_min":0,"x_max":0,"o":""},"":{"ha":1025,"x_min":3,"x_max":937,"o":"m 554 1525 q 806 1394 669 1516 q 937 1153 922 1264 l 937 974 q 831 746 937 890 q 728 526 728 671 l 728 494 q 706 420 728 452 l 706 361 q 717 323 717 330 q 711 296 717 317 q 720 274 720 282 l 720 269 q 717 244 720 259 q 728 217 728 225 l 728 212 q 720 182 728 203 q 728 160 728 180 l 728 157 q 701 114 728 134 q 595 33 669 33 l 568 33 q 546 0 549 0 l 413 0 q 394 33 405 0 l 367 33 q 250 98 307 33 q 248 114 250 100 q 253 136 253 134 q 242 165 242 152 l 242 171 q 248 198 242 176 q 237 222 241 198 q 245 252 237 229 q 237 282 237 265 q 253 323 237 284 l 253 404 q 229 570 237 446 q 134 719 190 680 q 3 974 12 860 l 3 1142 q 139 1402 11 1256 q 383 1525 269 1511 l 554 1525 m 44 1061 q 204 722 44 869 q 288 461 288 631 q 302 439 296 439 l 633 439 q 676 483 676 439 l 676 513 q 777 762 676 690 q 896 1058 896 897 q 690 1421 896 1282 q 467 1484 584 1484 q 106 1280 250 1484 q 44 1061 44 1167 m 451 648 l 500 648 q 505 643 505 648 l 505 564 q 486 545 505 545 l 410 545 q 391 564 391 545 l 391 600 q 397 605 392 605 l 446 605 l 446 643 q 451 648 446 648 m 304 388 l 304 331 l 416 358 q 432 345 427 355 l 432 334 q 326 298 432 318 q 277 279 281 286 l 277 277 q 283 271 278 271 l 654 366 l 654 388 l 304 388 m 277 225 l 277 222 q 286 217 277 217 q 676 317 318 222 l 679 323 q 673 328 679 328 l 671 328 q 280 231 657 328 l 277 225 m 280 168 q 286 163 281 163 q 682 263 307 163 l 682 269 q 673 274 682 274 q 283 174 626 263 l 280 168 m 288 109 q 296 106 291 109 q 690 209 674 201 l 690 212 q 682 220 690 216 q 288 117 328 130 l 288 109 m 372 81 q 508 84 467 84 l 538 84 l 532 92 l 532 95 q 608 130 532 120 q 690 157 686 150 q 682 163 690 163 q 372 84 606 146 l 372 81 m 581 87 l 581 81 q 625 95 623 85 l 622 95 l 581 87 z "},"":{"ha":688,"x_min":0,"x_max":0,"o":""},"":{"ha":487,"x_min":0,"x_max":0,"o":""},"":{"ha":640,"x_min":0,"x_max":0,"o":""},"":{"ha":1158,"x_min":0,"x_max":0,"o":""},"":{"ha":1332,"x_min":0,"x_max":0,"o":""},"":{"ha":1158,"x_min":0,"x_max":0,"o":""},"":{"ha":507,"x_min":0,"x_max":0,"o":""},"":{"ha":1014,"x_min":40,"x_max":973,"o":"m 591 1525 q 843 1394 706 1516 q 973 1153 958 1264 l 973 974 q 867 746 973 890 q 764 526 764 671 l 764 494 q 743 420 764 452 l 743 361 q 753 323 753 330 q 748 296 753 317 q 756 274 756 282 l 756 269 q 753 244 756 259 q 764 217 764 225 l 764 212 q 756 182 764 203 q 764 160 764 180 l 764 157 q 737 114 764 134 q 631 33 705 33 l 604 33 q 583 0 586 0 l 450 0 q 431 33 441 0 l 404 33 q 287 98 343 33 q 284 114 287 100 q 290 136 290 134 q 279 165 279 152 l 279 171 q 284 198 279 176 q 273 222 277 198 q 281 252 273 229 q 273 282 273 265 q 290 323 273 284 l 290 404 q 265 570 273 446 q 170 719 227 680 q 40 974 49 860 l 40 1142 q 176 1402 47 1256 q 420 1525 306 1511 l 591 1525 m 81 1061 q 241 722 81 869 q 325 461 325 631 q 338 439 333 439 l 669 439 q 713 483 713 439 l 713 513 q 813 762 713 690 q 932 1058 932 897 q 726 1421 932 1282 q 504 1484 621 1484 q 143 1280 286 1484 q 81 1061 81 1167 m 417 1215 l 615 1215 q 659 1172 659 1208 l 659 651 q 653 646 659 646 l 569 646 q 564 651 564 646 l 564 836 l 469 836 l 469 651 q 463 646 469 646 l 379 646 q 374 651 374 646 l 374 1172 q 417 1215 380 1215 m 469 1120 l 469 930 l 564 930 l 564 1120 l 469 1120 m 341 388 l 341 331 l 452 358 q 469 345 464 355 l 469 334 q 363 298 469 318 q 314 279 318 286 l 314 277 q 319 271 315 271 l 691 366 l 691 388 l 341 388 m 314 225 l 314 222 q 322 217 314 217 q 713 317 355 222 l 715 323 q 710 328 715 328 l 707 328 q 317 231 694 328 l 314 225 m 317 168 q 322 163 317 163 q 718 263 344 163 l 718 269 q 710 274 718 274 q 319 174 663 263 l 317 168 m 325 109 q 333 106 328 109 q 726 209 711 201 l 726 212 q 718 220 726 216 q 325 117 365 130 l 325 109 m 409 81 q 545 84 503 84 l 574 84 l 569 92 l 569 95 q 645 130 569 120 q 726 157 723 150 q 718 163 726 163 q 409 84 643 146 l 409 81 m 618 87 l 618 81 q 661 95 659 85 l 659 95 l 618 87 m 570 1319 l 570 1316 l 502 1316 q 380 1409 389 1404 l 380 1414 l 472 1414 l 570 1319 z "},"":{"ha":1014,"x_min":40,"x_max":973,"o":"m 591 1525 q 843 1394 706 1516 q 973 1153 958 1264 l 973 974 q 867 746 973 890 q 764 526 764 671 l 764 494 q 743 420 764 452 l 743 361 q 753 323 753 330 q 748 296 753 317 q 756 274 756 282 l 756 269 q 753 244 756 259 q 764 217 764 225 l 764 212 q 756 182 764 203 q 764 160 764 180 l 764 157 q 737 114 764 134 q 631 33 705 33 l 604 33 q 583 0 586 0 l 450 0 q 431 33 441 0 l 404 33 q 287 98 343 33 q 284 114 287 100 q 290 136 290 134 q 279 165 279 152 l 279 171 q 284 198 279 176 q 273 222 277 198 q 281 252 273 229 q 273 282 273 265 q 290 323 273 284 l 290 404 q 265 570 273 446 q 170 719 227 680 q 40 974 49 860 l 40 1142 q 176 1402 47 1256 q 420 1525 306 1511 l 591 1525 m 81 1061 q 241 722 81 869 q 325 461 325 631 q 338 439 333 439 l 669 439 q 713 483 713 439 l 713 513 q 813 762 713 690 q 932 1058 932 897 q 726 1421 932 1282 q 504 1484 621 1484 q 143 1280 286 1484 q 81 1061 81 1167 m 417 1215 l 615 1215 q 659 1172 659 1208 l 659 651 q 653 646 659 646 l 569 646 q 564 651 564 646 l 564 836 l 469 836 l 469 651 q 463 646 469 646 l 379 646 q 374 651 374 646 l 374 1172 q 417 1215 380 1215 m 469 1120 l 469 930 l 564 930 l 564 1120 l 469 1120 m 341 388 l 341 331 l 452 358 q 469 345 464 355 l 469 334 q 363 298 469 318 q 314 279 318 286 l 314 277 q 319 271 315 271 l 691 366 l 691 388 l 341 388 m 314 225 l 314 222 q 322 217 314 217 q 713 317 355 222 l 715 323 q 710 328 715 328 l 707 328 q 317 231 694 328 l 314 225 m 317 168 q 322 163 317 163 q 718 263 344 163 l 718 269 q 710 274 718 274 q 319 174 663 263 l 317 168 m 325 109 q 333 106 328 109 q 726 209 711 201 l 726 212 q 718 220 726 216 q 325 117 365 130 l 325 109 m 409 81 q 545 84 503 84 l 574 84 l 569 92 l 569 95 q 645 130 569 120 q 726 157 723 150 q 718 163 726 163 q 409 84 643 146 l 409 81 m 618 87 l 618 81 q 661 95 659 85 l 659 95 l 618 87 m 568 1428 l 661 1428 l 661 1423 q 538 1331 650 1419 l 471 1331 l 471 1333 l 568 1428 z "},"":{"ha":1014,"x_min":40,"x_max":973,"o":"m 591 1525 q 843 1394 706 1516 q 973 1153 958 1264 l 973 974 q 867 746 973 890 q 764 526 764 671 l 764 494 q 743 420 764 452 l 743 361 q 753 323 753 330 q 748 296 753 317 q 756 274 756 282 l 756 269 q 753 244 756 259 q 764 217 764 225 l 764 212 q 756 182 764 203 q 764 160 764 180 l 764 157 q 737 114 764 134 q 631 33 705 33 l 604 33 q 583 0 586 0 l 450 0 q 431 33 441 0 l 404 33 q 287 98 343 33 q 284 114 287 100 q 290 136 290 134 q 279 165 279 152 l 279 171 q 284 198 279 176 q 273 222 277 198 q 281 252 273 229 q 273 282 273 265 q 290 323 273 284 l 290 404 q 265 570 273 446 q 170 719 227 680 q 40 974 49 860 l 40 1142 q 176 1402 47 1256 q 420 1525 306 1511 l 591 1525 m 81 1061 q 241 722 81 869 q 325 461 325 631 q 338 439 333 439 l 669 439 q 713 483 713 439 l 713 513 q 813 762 713 690 q 932 1058 932 897 q 726 1421 932 1282 q 504 1484 621 1484 q 143 1280 286 1484 q 81 1061 81 1167 m 417 1215 l 615 1215 q 659 1172 659 1208 l 659 651 q 653 646 659 646 l 569 646 q 564 651 564 646 l 564 836 l 469 836 l 469 651 q 463 646 469 646 l 379 646 q 374 651 374 646 l 374 1172 q 417 1215 380 1215 m 469 1120 l 469 930 l 564 930 l 564 1120 l 469 1120 m 341 388 l 341 331 l 452 358 q 469 345 464 355 l 469 334 q 363 298 469 318 q 314 279 318 286 l 314 277 q 319 271 315 271 l 691 366 l 691 388 l 341 388 m 314 225 l 314 222 q 322 217 314 217 q 713 317 355 222 l 715 323 q 710 328 715 328 l 707 328 q 317 231 694 328 l 314 225 m 317 168 q 322 163 317 163 q 718 263 344 163 l 718 269 q 710 274 718 274 q 319 174 663 263 l 317 168 m 325 109 q 333 106 328 109 q 726 209 711 201 l 726 212 q 718 220 726 216 q 325 117 365 130 l 325 109 m 409 81 q 545 84 503 84 l 574 84 l 569 92 l 569 95 q 645 130 569 120 q 726 157 723 150 q 718 163 726 163 q 409 84 643 146 l 409 81 m 618 87 l 618 81 q 661 95 659 85 l 659 95 l 618 87 m 481 1432 l 573 1432 l 671 1337 l 671 1334 l 603 1334 q 527 1391 560 1369 q 451 1334 523 1391 l 383 1334 l 383 1337 l 481 1432 z "},"":{"ha":1014,"x_min":40,"x_max":973,"o":"m 591 1525 q 843 1394 706 1516 q 973 1153 958 1264 l 973 974 q 867 746 973 890 q 764 526 764 671 l 764 494 q 743 420 764 452 l 743 361 q 753 323 753 330 q 748 296 753 317 q 756 274 756 282 l 756 269 q 753 244 756 259 q 764 217 764 225 l 764 212 q 756 182 764 203 q 764 160 764 180 l 764 157 q 737 114 764 134 q 631 33 705 33 l 604 33 q 583 0 586 0 l 450 0 q 431 33 441 0 l 404 33 q 287 98 343 33 q 284 114 287 100 q 290 136 290 134 q 279 165 279 152 l 279 171 q 284 198 279 176 q 273 222 277 198 q 281 252 273 229 q 273 282 273 265 q 290 323 273 284 l 290 404 q 265 570 273 446 q 170 719 227 680 q 40 974 49 860 l 40 1142 q 176 1402 47 1256 q 420 1525 306 1511 l 591 1525 m 81 1061 q 241 722 81 869 q 325 461 325 631 q 338 439 333 439 l 669 439 q 713 483 713 439 l 713 513 q 813 762 713 690 q 932 1058 932 897 q 726 1421 932 1282 q 504 1484 621 1484 q 143 1280 286 1484 q 81 1061 81 1167 m 417 1215 l 615 1215 q 659 1172 659 1208 l 659 651 q 653 646 659 646 l 569 646 q 564 651 564 646 l 564 836 l 469 836 l 469 651 q 463 646 469 646 l 379 646 q 374 651 374 646 l 374 1172 q 417 1215 380 1215 m 469 1120 l 469 930 l 564 930 l 564 1120 l 469 1120 m 341 388 l 341 331 l 452 358 q 469 345 464 355 l 469 334 q 363 298 469 318 q 314 279 318 286 l 314 277 q 319 271 315 271 l 691 366 l 691 388 l 341 388 m 314 225 l 314 222 q 322 217 314 217 q 713 317 355 222 l 715 323 q 710 328 715 328 l 707 328 q 317 231 694 328 l 314 225 m 317 168 q 322 163 317 163 q 718 263 344 163 l 718 269 q 710 274 718 274 q 319 174 663 263 l 317 168 m 325 109 q 333 106 328 109 q 726 209 711 201 l 726 212 q 718 220 726 216 q 325 117 365 130 l 325 109 m 409 81 q 545 84 503 84 l 574 84 l 569 92 l 569 95 q 645 130 569 120 q 726 157 723 150 q 718 163 726 163 q 409 84 643 146 l 409 81 m 618 87 l 618 81 q 661 95 659 85 l 659 95 l 618 87 m 511 1439 l 630 1439 q 649 1420 649 1439 l 649 1344 q 630 1325 649 1325 l 595 1325 q 589 1331 589 1325 l 589 1379 l 551 1379 l 551 1347 q 532 1328 551 1328 l 410 1328 q 391 1339 396 1328 l 391 1423 q 405 1436 391 1426 l 437 1436 q 451 1415 451 1430 l 451 1388 l 492 1388 l 492 1428 q 511 1439 496 1439 z "},"":{"ha":1014,"x_min":40,"x_max":973,"o":"m 591 1525 q 843 1394 706 1516 q 973 1153 958 1264 l 973 974 q 867 746 973 890 q 764 526 764 671 l 764 494 q 743 420 764 452 l 743 361 q 753 323 753 330 q 748 296 753 317 q 756 274 756 282 l 756 269 q 753 244 756 259 q 764 217 764 225 l 764 212 q 756 182 764 203 q 764 160 764 180 l 764 157 q 737 114 764 134 q 631 33 705 33 l 604 33 q 583 0 586 0 l 450 0 q 431 33 441 0 l 404 33 q 287 98 343 33 q 284 114 287 100 q 290 136 290 134 q 279 165 279 152 l 279 171 q 284 198 279 176 q 273 222 277 198 q 281 252 273 229 q 273 282 273 265 q 290 323 273 284 l 290 404 q 265 570 273 446 q 170 719 227 680 q 40 974 49 860 l 40 1142 q 176 1402 47 1256 q 420 1525 306 1511 l 591 1525 m 81 1061 q 241 722 81 869 q 325 461 325 631 q 338 439 333 439 l 669 439 q 713 483 713 439 l 713 513 q 813 762 713 690 q 932 1058 932 897 q 726 1421 932 1282 q 504 1484 621 1484 q 143 1280 286 1484 q 81 1061 81 1167 m 417 1215 l 615 1215 q 659 1172 659 1208 l 659 651 q 653 646 659 646 l 569 646 q 564 651 564 646 l 564 836 l 469 836 l 469 651 q 463 646 469 646 l 379 646 q 374 651 374 646 l 374 1172 q 417 1215 380 1215 m 469 1120 l 469 930 l 564 930 l 564 1120 l 469 1120 m 341 388 l 341 331 l 452 358 q 469 345 464 355 l 469 334 q 363 298 469 318 q 314 279 318 286 l 314 277 q 319 271 315 271 l 691 366 l 691 388 l 341 388 m 314 225 l 314 222 q 322 217 314 217 q 713 317 355 222 l 715 323 q 710 328 715 328 l 707 328 q 317 231 694 328 l 314 225 m 317 168 q 322 163 317 163 q 718 263 344 163 l 718 269 q 710 274 718 274 q 319 174 663 263 l 317 168 m 325 109 q 333 106 328 109 q 726 209 711 201 l 726 212 q 718 220 726 216 q 325 117 365 130 l 325 109 m 409 81 q 545 84 503 84 l 574 84 l 569 92 l 569 95 q 645 130 569 120 q 726 157 723 150 q 718 163 726 163 q 409 84 643 146 l 409 81 m 618 87 l 618 81 q 661 95 659 85 l 659 95 l 618 87 m 409 1421 l 425 1421 q 466 1381 459 1415 l 466 1364 q 425 1324 459 1331 l 409 1324 q 368 1364 375 1331 l 368 1381 q 409 1421 375 1415 m 602 1421 l 618 1421 q 659 1381 652 1415 l 659 1364 q 618 1324 652 1331 l 602 1324 q 561 1364 568 1331 l 561 1381 q 602 1421 568 1415 z "},"":{"ha":1014,"x_min":40,"x_max":973,"o":"m 591 1525 q 843 1394 706 1516 q 973 1153 958 1264 l 973 974 q 867 746 973 890 q 764 526 764 671 l 764 494 q 743 420 764 452 l 743 361 q 753 323 753 330 q 748 296 753 317 q 756 274 756 282 l 756 269 q 753 244 756 259 q 764 217 764 225 l 764 212 q 756 182 764 203 q 764 160 764 180 l 764 157 q 737 114 764 134 q 631 33 705 33 l 604 33 q 583 0 586 0 l 450 0 q 431 33 441 0 l 404 33 q 287 98 343 33 q 284 114 287 100 q 290 136 290 134 q 279 165 279 152 l 279 171 q 284 198 279 176 q 273 222 277 198 q 281 252 273 229 q 273 282 273 265 q 290 323 273 284 l 290 404 q 265 570 273 446 q 170 719 227 680 q 40 974 49 860 l 40 1142 q 176 1402 47 1256 q 420 1525 306 1511 l 591 1525 m 81 1061 q 241 722 81 869 q 325 461 325 631 q 338 439 333 439 l 669 439 q 713 483 713 439 l 713 513 q 813 762 713 690 q 932 1058 932 897 q 726 1421 932 1282 q 504 1484 621 1484 q 143 1280 286 1484 q 81 1061 81 1167 m 417 1215 l 615 1215 q 659 1172 659 1208 l 659 651 q 653 646 659 646 l 569 646 q 564 651 564 646 l 564 836 l 469 836 l 469 651 q 463 646 469 646 l 379 646 q 374 651 374 646 l 374 1172 q 417 1215 380 1215 m 469 1120 l 469 930 l 564 930 l 564 1120 l 469 1120 m 341 388 l 341 331 l 452 358 q 469 345 464 355 l 469 334 q 363 298 469 318 q 314 279 318 286 l 314 277 q 319 271 315 271 l 691 366 l 691 388 l 341 388 m 314 225 l 314 222 q 322 217 314 217 q 713 317 355 222 l 715 323 q 710 328 715 328 l 707 328 q 317 231 694 328 l 314 225 m 317 168 q 322 163 317 163 q 718 263 344 163 l 718 269 q 710 274 718 274 q 319 174 663 263 l 317 168 m 325 109 q 333 106 328 109 q 726 209 711 201 l 726 212 q 718 220 726 216 q 325 117 365 130 l 325 109 m 409 81 q 545 84 503 84 l 574 84 l 569 92 l 569 95 q 645 130 569 120 q 726 157 723 150 q 718 163 726 163 q 409 84 643 146 l 409 81 m 618 87 l 618 81 q 661 95 659 85 l 659 95 l 618 87 m 494 1357 l 554 1357 l 621 1293 l 554 1229 l 494 1229 l 428 1293 l 494 1357 m 474 1291 q 522 1255 478 1291 l 526 1255 q 574 1291 570 1291 q 524 1331 565 1302 q 474 1291 484 1302 z "},"":{"ha":1436,"x_min":0,"x_max":0,"o":""},"":{"ha":1014,"x_min":40,"x_max":973,"o":"m 497 646 l 417 646 q 374 689 374 652 l 374 1172 q 417 1215 380 1215 l 653 1215 q 659 1210 659 1215 l 659 1126 q 653 1120 659 1120 l 469 1120 l 469 741 l 653 741 q 659 735 659 740 l 659 651 q 653 646 659 646 l 557 646 l 557 568 q 538 549 557 549 l 462 549 q 443 568 443 549 l 443 604 q 448 609 444 609 l 497 609 l 497 646 m 81 1061 q 241 722 81 869 q 325 461 325 631 q 338 439 333 439 l 669 439 q 713 483 713 439 l 713 513 q 813 762 713 690 q 932 1058 932 897 q 726 1421 932 1282 q 504 1484 621 1484 q 143 1280 286 1484 q 81 1061 81 1167 m 618 87 l 618 81 q 661 95 659 85 l 659 95 l 618 87 m 409 81 q 545 84 503 84 l 574 84 l 569 92 l 569 95 q 645 130 569 120 q 726 157 723 150 q 718 163 726 163 q 409 84 643 146 l 409 81 m 325 109 q 333 106 328 109 q 726 209 711 201 l 726 212 q 718 220 726 216 q 325 117 365 130 l 325 109 m 317 168 q 322 163 317 163 q 718 263 344 163 l 718 269 q 710 274 718 274 q 319 174 663 263 l 317 168 m 314 225 l 314 222 q 322 217 314 217 q 713 317 355 222 l 715 323 q 710 328 715 328 l 707 328 q 317 231 694 328 l 314 225 m 341 388 l 341 331 l 452 358 q 469 345 464 355 l 469 334 q 363 298 469 318 q 314 279 318 286 l 314 277 q 319 271 315 271 l 691 366 l 691 388 l 341 388 m 591 1525 q 843 1394 706 1516 q 973 1153 958 1264 l 973 974 q 867 746 973 890 q 764 526 764 671 l 764 494 q 743 420 764 452 l 743 361 q 753 323 753 330 q 748 296 753 317 q 756 274 756 282 l 756 269 q 753 244 756 259 q 764 217 764 225 l 764 212 q 756 182 764 203 q 764 160 764 180 l 764 157 q 737 114 764 134 q 631 33 705 33 l 604 33 q 583 0 586 0 l 450 0 q 431 33 441 0 l 404 33 q 287 98 343 33 q 284 114 287 100 q 290 136 290 134 q 279 165 279 152 l 279 171 q 284 198 279 176 q 273 222 277 198 q 281 252 273 229 q 273 282 273 265 q 290 323 273 284 l 290 404 q 265 570 273 446 q 170 719 227 680 q 40 974 49 860 l 40 1142 q 176 1402 47 1256 q 420 1525 306 1511 l 591 1525 z "},"":{"ha":1014,"x_min":40,"x_max":973,"o":"m 591 1525 q 843 1394 706 1516 q 973 1153 958 1264 l 973 974 q 867 746 973 890 q 764 526 764 671 l 764 494 q 743 420 764 452 l 743 361 q 753 323 753 330 q 748 296 753 317 q 756 274 756 282 l 756 269 q 753 244 756 259 q 764 217 764 225 l 764 212 q 756 182 764 203 q 764 160 764 180 l 764 157 q 737 114 764 134 q 631 33 705 33 l 604 33 q 583 0 586 0 l 450 0 q 431 33 441 0 l 404 33 q 287 98 343 33 q 284 114 287 100 q 290 136 290 134 q 279 165 279 152 l 279 171 q 284 198 279 176 q 273 222 277 198 q 281 252 273 229 q 273 282 273 265 q 290 323 273 284 l 290 404 q 265 570 273 446 q 170 719 227 680 q 40 974 49 860 l 40 1142 q 176 1402 47 1256 q 420 1525 306 1511 l 591 1525 m 81 1061 q 241 722 81 869 q 325 461 325 631 q 338 439 333 439 l 669 439 q 713 483 713 439 l 713 513 q 813 762 713 690 q 932 1058 932 897 q 726 1421 932 1282 q 504 1484 621 1484 q 143 1280 286 1484 q 81 1061 81 1167 m 379 1215 l 653 1215 q 659 1210 659 1215 l 659 1126 q 653 1120 659 1120 l 469 1120 l 469 1025 l 653 1025 q 659 1020 659 1025 l 659 936 q 653 930 659 930 l 469 930 l 469 741 l 653 741 q 659 735 659 740 l 659 651 q 653 646 659 646 l 379 646 q 374 651 374 646 l 374 1210 q 379 1215 374 1215 m 341 388 l 341 331 l 452 358 q 469 345 464 355 l 469 334 q 363 298 469 318 q 314 279 318 286 l 314 277 q 319 271 315 271 l 691 366 l 691 388 l 341 388 m 314 225 l 314 222 q 322 217 314 217 q 713 317 355 222 l 715 323 q 710 328 715 328 l 707 328 q 317 231 694 328 l 314 225 m 317 168 q 322 163 317 163 q 718 263 344 163 l 718 269 q 710 274 718 274 q 319 174 663 263 l 317 168 m 325 109 q 333 106 328 109 q 726 209 711 201 l 726 212 q 718 220 726 216 q 325 117 365 130 l 325 109 m 409 81 q 545 84 503 84 l 574 84 l 569 92 l 569 95 q 645 130 569 120 q 726 157 723 150 q 718 163 726 163 q 409 84 643 146 l 409 81 m 618 87 l 618 81 q 661 95 659 85 l 659 95 l 618 87 m 570 1319 l 570 1316 l 502 1316 q 380 1409 389 1404 l 380 1414 l 472 1414 l 570 1319 z "},"":{"ha":1014,"x_min":40,"x_max":973,"o":"m 591 1525 q 843 1394 706 1516 q 973 1153 958 1264 l 973 974 q 867 746 973 890 q 764 526 764 671 l 764 494 q 743 420 764 452 l 743 361 q 753 323 753 330 q 748 296 753 317 q 756 274 756 282 l 756 269 q 753 244 756 259 q 764 217 764 225 l 764 212 q 756 182 764 203 q 764 160 764 180 l 764 157 q 737 114 764 134 q 631 33 705 33 l 604 33 q 583 0 586 0 l 450 0 q 431 33 441 0 l 404 33 q 287 98 343 33 q 284 114 287 100 q 290 136 290 134 q 279 165 279 152 l 279 171 q 284 198 279 176 q 273 222 277 198 q 281 252 273 229 q 273 282 273 265 q 290 323 273 284 l 290 404 q 265 570 273 446 q 170 719 227 680 q 40 974 49 860 l 40 1142 q 176 1402 47 1256 q 420 1525 306 1511 l 591 1525 m 81 1061 q 241 722 81 869 q 325 461 325 631 q 338 439 333 439 l 669 439 q 713 483 713 439 l 713 513 q 813 762 713 690 q 932 1058 932 897 q 726 1421 932 1282 q 504 1484 621 1484 q 143 1280 286 1484 q 81 1061 81 1167 m 379 1215 l 653 1215 q 659 1210 659 1215 l 659 1126 q 653 1120 659 1120 l 469 1120 l 469 1025 l 653 1025 q 659 1020 659 1025 l 659 936 q 653 930 659 930 l 469 930 l 469 741 l 653 741 q 659 735 659 740 l 659 651 q 653 646 659 646 l 379 646 q 374 651 374 646 l 374 1210 q 379 1215 374 1215 m 341 388 l 341 331 l 452 358 q 469 345 464 355 l 469 334 q 363 298 469 318 q 314 279 318 286 l 314 277 q 319 271 315 271 l 691 366 l 691 388 l 341 388 m 314 225 l 314 222 q 322 217 314 217 q 713 317 355 222 l 715 323 q 710 328 715 328 l 707 328 q 317 231 694 328 l 314 225 m 317 168 q 322 163 317 163 q 718 263 344 163 l 718 269 q 710 274 718 274 q 319 174 663 263 l 317 168 m 325 109 q 333 106 328 109 q 726 209 711 201 l 726 212 q 718 220 726 216 q 325 117 365 130 l 325 109 m 409 81 q 545 84 503 84 l 574 84 l 569 92 l 569 95 q 645 130 569 120 q 726 157 723 150 q 718 163 726 163 q 409 84 643 146 l 409 81 m 618 87 l 618 81 q 661 95 659 85 l 659 95 l 618 87 m 568 1428 l 661 1428 l 661 1423 q 538 1331 650 1419 l 471 1331 l 471 1333 l 568 1428 z "},"":{"ha":1014,"x_min":40,"x_max":973,"o":"m 591 1525 q 843 1394 706 1516 q 973 1153 958 1264 l 973 974 q 867 746 973 890 q 764 526 764 671 l 764 494 q 743 420 764 452 l 743 361 q 753 323 753 330 q 748 296 753 317 q 756 274 756 282 l 756 269 q 753 244 756 259 q 764 217 764 225 l 764 212 q 756 182 764 203 q 764 160 764 180 l 764 157 q 737 114 764 134 q 631 33 705 33 l 604 33 q 583 0 586 0 l 450 0 q 431 33 441 0 l 404 33 q 287 98 343 33 q 284 114 287 100 q 290 136 290 134 q 279 165 279 152 l 279 171 q 284 198 279 176 q 273 222 277 198 q 281 252 273 229 q 273 282 273 265 q 290 323 273 284 l 290 404 q 265 570 273 446 q 170 719 227 680 q 40 974 49 860 l 40 1142 q 176 1402 47 1256 q 420 1525 306 1511 l 591 1525 m 81 1061 q 241 722 81 869 q 325 461 325 631 q 338 439 333 439 l 669 439 q 713 483 713 439 l 713 513 q 813 762 713 690 q 932 1058 932 897 q 726 1421 932 1282 q 504 1484 621 1484 q 143 1280 286 1484 q 81 1061 81 1167 m 379 1215 l 653 1215 q 659 1210 659 1215 l 659 1126 q 653 1120 659 1120 l 469 1120 l 469 1025 l 653 1025 q 659 1020 659 1025 l 659 936 q 653 930 659 930 l 469 930 l 469 741 l 653 741 q 659 735 659 740 l 659 651 q 653 646 659 646 l 379 646 q 374 651 374 646 l 374 1210 q 379 1215 374 1215 m 341 388 l 341 331 l 452 358 q 469 345 464 355 l 469 334 q 363 298 469 318 q 314 279 318 286 l 314 277 q 319 271 315 271 l 691 366 l 691 388 l 341 388 m 314 225 l 314 222 q 322 217 314 217 q 713 317 355 222 l 715 323 q 710 328 715 328 l 707 328 q 317 231 694 328 l 314 225 m 317 168 q 322 163 317 163 q 718 263 344 163 l 718 269 q 710 274 718 274 q 319 174 663 263 l 317 168 m 325 109 q 333 106 328 109 q 726 209 711 201 l 726 212 q 718 220 726 216 q 325 117 365 130 l 325 109 m 409 81 q 545 84 503 84 l 574 84 l 569 92 l 569 95 q 645 130 569 120 q 726 157 723 150 q 718 163 726 163 q 409 84 643 146 l 409 81 m 618 87 l 618 81 q 661 95 659 85 l 659 95 l 618 87 m 481 1432 l 573 1432 l 671 1337 l 671 1334 l 603 1334 q 527 1391 560 1369 q 451 1334 523 1391 l 383 1334 l 383 1337 l 481 1432 z "},"":{"ha":1014,"x_min":40,"x_max":973,"o":"m 591 1525 q 843 1394 706 1516 q 973 1153 958 1264 l 973 974 q 867 746 973 890 q 764 526 764 671 l 764 494 q 743 420 764 452 l 743 361 q 753 323 753 330 q 748 296 753 317 q 756 274 756 282 l 756 269 q 753 244 756 259 q 764 217 764 225 l 764 212 q 756 182 764 203 q 764 160 764 180 l 764 157 q 737 114 764 134 q 631 33 705 33 l 604 33 q 583 0 586 0 l 450 0 q 431 33 441 0 l 404 33 q 287 98 343 33 q 284 114 287 100 q 290 136 290 134 q 279 165 279 152 l 279 171 q 284 198 279 176 q 273 222 277 198 q 281 252 273 229 q 273 282 273 265 q 290 323 273 284 l 290 404 q 265 570 273 446 q 170 719 227 680 q 40 974 49 860 l 40 1142 q 176 1402 47 1256 q 420 1525 306 1511 l 591 1525 m 81 1061 q 241 722 81 869 q 325 461 325 631 q 338 439 333 439 l 669 439 q 713 483 713 439 l 713 513 q 813 762 713 690 q 932 1058 932 897 q 726 1421 932 1282 q 504 1484 621 1484 q 143 1280 286 1484 q 81 1061 81 1167 m 379 1215 l 653 1215 q 659 1210 659 1215 l 659 1126 q 653 1120 659 1120 l 469 1120 l 469 1025 l 653 1025 q 659 1020 659 1025 l 659 936 q 653 930 659 930 l 469 930 l 469 741 l 653 741 q 659 735 659 740 l 659 651 q 653 646 659 646 l 379 646 q 374 651 374 646 l 374 1210 q 379 1215 374 1215 m 341 388 l 341 331 l 452 358 q 469 345 464 355 l 469 334 q 363 298 469 318 q 314 279 318 286 l 314 277 q 319 271 315 271 l 691 366 l 691 388 l 341 388 m 314 225 l 314 222 q 322 217 314 217 q 713 317 355 222 l 715 323 q 710 328 715 328 l 707 328 q 317 231 694 328 l 314 225 m 317 168 q 322 163 317 163 q 718 263 344 163 l 718 269 q 710 274 718 274 q 319 174 663 263 l 317 168 m 325 109 q 333 106 328 109 q 726 209 711 201 l 726 212 q 718 220 726 216 q 325 117 365 130 l 325 109 m 409 81 q 545 84 503 84 l 574 84 l 569 92 l 569 95 q 645 130 569 120 q 726 157 723 150 q 718 163 726 163 q 409 84 643 146 l 409 81 m 618 87 l 618 81 q 661 95 659 85 l 659 95 l 618 87 m 409 1421 l 425 1421 q 466 1381 459 1415 l 466 1364 q 425 1324 459 1331 l 409 1324 q 368 1364 375 1331 l 368 1381 q 409 1421 375 1415 m 602 1421 l 618 1421 q 659 1381 652 1415 l 659 1364 q 618 1324 652 1331 l 602 1324 q 561 1364 568 1331 l 561 1381 q 602 1421 568 1415 z "},"":{"ha":1014,"x_min":40,"x_max":973,"o":"m 591 1525 q 843 1394 706 1516 q 973 1153 958 1264 l 973 974 q 867 746 973 890 q 764 526 764 671 l 764 494 q 743 420 764 452 l 743 361 q 753 323 753 330 q 748 296 753 317 q 756 274 756 282 l 756 269 q 753 244 756 259 q 764 217 764 225 l 764 212 q 756 182 764 203 q 764 160 764 180 l 764 157 q 737 114 764 134 q 631 33 705 33 l 604 33 q 583 0 586 0 l 450 0 q 431 33 441 0 l 404 33 q 287 98 343 33 q 284 114 287 100 q 290 136 290 134 q 279 165 279 152 l 279 171 q 284 198 279 176 q 273 222 277 198 q 281 252 273 229 q 273 282 273 265 q 290 323 273 284 l 290 404 q 265 570 273 446 q 170 719 227 680 q 40 974 49 860 l 40 1142 q 176 1402 47 1256 q 420 1525 306 1511 l 591 1525 m 81 1061 q 241 722 81 869 q 325 461 325 631 q 338 439 333 439 l 669 439 q 713 483 713 439 l 713 513 q 813 762 713 690 q 932 1058 932 897 q 726 1421 932 1282 q 504 1484 621 1484 q 143 1280 286 1484 q 81 1061 81 1167 m 474 1215 l 558 1215 q 564 1210 564 1215 l 564 651 q 558 646 564 646 l 474 646 q 469 651 469 646 l 469 1210 q 474 1215 469 1215 m 341 388 l 341 331 l 452 358 q 469 345 464 355 l 469 334 q 363 298 469 318 q 314 279 318 286 l 314 277 q 319 271 315 271 l 691 366 l 691 388 l 341 388 m 314 225 l 314 222 q 322 217 314 217 q 713 317 355 222 l 715 323 q 710 328 715 328 l 707 328 q 317 231 694 328 l 314 225 m 317 168 q 322 163 317 163 q 718 263 344 163 l 718 269 q 710 274 718 274 q 319 174 663 263 l 317 168 m 325 109 q 333 106 328 109 q 726 209 711 201 l 726 212 q 718 220 726 216 q 325 117 365 130 l 325 109 m 409 81 q 545 84 503 84 l 574 84 l 569 92 l 569 95 q 645 130 569 120 q 726 157 723 150 q 718 163 726 163 q 409 84 643 146 l 409 81 m 618 87 l 618 81 q 661 95 659 85 l 659 95 l 618 87 m 570 1319 l 570 1316 l 502 1316 q 380 1409 389 1404 l 380 1414 l 472 1414 l 570 1319 z "},"":{"ha":1014,"x_min":40,"x_max":973,"o":"m 591 1525 q 843 1394 706 1516 q 973 1153 958 1264 l 973 974 q 867 746 973 890 q 764 526 764 671 l 764 494 q 743 420 764 452 l 743 361 q 753 323 753 330 q 748 296 753 317 q 756 274 756 282 l 756 269 q 753 244 756 259 q 764 217 764 225 l 764 212 q 756 182 764 203 q 764 160 764 180 l 764 157 q 737 114 764 134 q 631 33 705 33 l 604 33 q 583 0 586 0 l 450 0 q 431 33 441 0 l 404 33 q 287 98 343 33 q 284 114 287 100 q 290 136 290 134 q 279 165 279 152 l 279 171 q 284 198 279 176 q 273 222 277 198 q 281 252 273 229 q 273 282 273 265 q 290 323 273 284 l 290 404 q 265 570 273 446 q 170 719 227 680 q 40 974 49 860 l 40 1142 q 176 1402 47 1256 q 420 1525 306 1511 l 591 1525 m 81 1061 q 241 722 81 869 q 325 461 325 631 q 338 439 333 439 l 669 439 q 713 483 713 439 l 713 513 q 813 762 713 690 q 932 1058 932 897 q 726 1421 932 1282 q 504 1484 621 1484 q 143 1280 286 1484 q 81 1061 81 1167 m 474 1215 l 558 1215 q 564 1210 564 1215 l 564 651 q 558 646 564 646 l 474 646 q 469 651 469 646 l 469 1210 q 474 1215 469 1215 m 341 388 l 341 331 l 452 358 q 469 345 464 355 l 469 334 q 363 298 469 318 q 314 279 318 286 l 314 277 q 319 271 315 271 l 691 366 l 691 388 l 341 388 m 314 225 l 314 222 q 322 217 314 217 q 713 317 355 222 l 715 323 q 710 328 715 328 l 707 328 q 317 231 694 328 l 314 225 m 317 168 q 322 163 317 163 q 718 263 344 163 l 718 269 q 710 274 718 274 q 319 174 663 263 l 317 168 m 325 109 q 333 106 328 109 q 726 209 711 201 l 726 212 q 718 220 726 216 q 325 117 365 130 l 325 109 m 409 81 q 545 84 503 84 l 574 84 l 569 92 l 569 95 q 645 130 569 120 q 726 157 723 150 q 718 163 726 163 q 409 84 643 146 l 409 81 m 618 87 l 618 81 q 661 95 659 85 l 659 95 l 618 87 m 568 1428 l 661 1428 l 661 1423 q 538 1331 650 1419 l 471 1331 l 471 1333 l 568 1428 z "},"":{"ha":1014,"x_min":40,"x_max":973,"o":"m 591 1525 q 843 1394 706 1516 q 973 1153 958 1264 l 973 974 q 867 746 973 890 q 764 526 764 671 l 764 494 q 743 420 764 452 l 743 361 q 753 323 753 330 q 748 296 753 317 q 756 274 756 282 l 756 269 q 753 244 756 259 q 764 217 764 225 l 764 212 q 756 182 764 203 q 764 160 764 180 l 764 157 q 737 114 764 134 q 631 33 705 33 l 604 33 q 583 0 586 0 l 450 0 q 431 33 441 0 l 404 33 q 287 98 343 33 q 284 114 287 100 q 290 136 290 134 q 279 165 279 152 l 279 171 q 284 198 279 176 q 273 222 277 198 q 281 252 273 229 q 273 282 273 265 q 290 323 273 284 l 290 404 q 265 570 273 446 q 170 719 227 680 q 40 974 49 860 l 40 1142 q 176 1402 47 1256 q 420 1525 306 1511 l 591 1525 m 81 1061 q 241 722 81 869 q 325 461 325 631 q 338 439 333 439 l 669 439 q 713 483 713 439 l 713 513 q 813 762 713 690 q 932 1058 932 897 q 726 1421 932 1282 q 504 1484 621 1484 q 143 1280 286 1484 q 81 1061 81 1167 m 474 1215 l 558 1215 q 564 1210 564 1215 l 564 651 q 558 646 564 646 l 474 646 q 469 651 469 646 l 469 1210 q 474 1215 469 1215 m 341 388 l 341 331 l 452 358 q 469 345 464 355 l 469 334 q 363 298 469 318 q 314 279 318 286 l 314 277 q 319 271 315 271 l 691 366 l 691 388 l 341 388 m 314 225 l 314 222 q 322 217 314 217 q 713 317 355 222 l 715 323 q 710 328 715 328 l 707 328 q 317 231 694 328 l 314 225 m 317 168 q 322 163 317 163 q 718 263 344 163 l 718 269 q 710 274 718 274 q 319 174 663 263 l 317 168 m 325 109 q 333 106 328 109 q 726 209 711 201 l 726 212 q 718 220 726 216 q 325 117 365 130 l 325 109 m 409 81 q 545 84 503 84 l 574 84 l 569 92 l 569 95 q 645 130 569 120 q 726 157 723 150 q 718 163 726 163 q 409 84 643 146 l 409 81 m 618 87 l 618 81 q 661 95 659 85 l 659 95 l 618 87 m 481 1432 l 573 1432 l 671 1337 l 671 1334 l 603 1334 q 527 1391 560 1369 q 451 1334 523 1391 l 383 1334 l 383 1337 l 481 1432 z "},"":{"ha":1014,"x_min":40,"x_max":973,"o":"m 591 1525 q 843 1394 706 1516 q 973 1153 958 1264 l 973 974 q 867 746 973 890 q 764 526 764 671 l 764 494 q 743 420 764 452 l 743 361 q 753 323 753 330 q 748 296 753 317 q 756 274 756 282 l 756 269 q 753 244 756 259 q 764 217 764 225 l 764 212 q 756 182 764 203 q 764 160 764 180 l 764 157 q 737 114 764 134 q 631 33 705 33 l 604 33 q 583 0 586 0 l 450 0 q 431 33 441 0 l 404 33 q 287 98 343 33 q 284 114 287 100 q 290 136 290 134 q 279 165 279 152 l 279 171 q 284 198 279 176 q 273 222 277 198 q 281 252 273 229 q 273 282 273 265 q 290 323 273 284 l 290 404 q 265 570 273 446 q 170 719 227 680 q 40 974 49 860 l 40 1142 q 176 1402 47 1256 q 420 1525 306 1511 l 591 1525 m 81 1061 q 241 722 81 869 q 325 461 325 631 q 338 439 333 439 l 669 439 q 713 483 713 439 l 713 513 q 813 762 713 690 q 932 1058 932 897 q 726 1421 932 1282 q 504 1484 621 1484 q 143 1280 286 1484 q 81 1061 81 1167 m 474 1215 l 558 1215 q 564 1210 564 1215 l 564 651 q 558 646 564 646 l 474 646 q 469 651 469 646 l 469 1210 q 474 1215 469 1215 m 341 388 l 341 331 l 452 358 q 469 345 464 355 l 469 334 q 363 298 469 318 q 314 279 318 286 l 314 277 q 319 271 315 271 l 691 366 l 691 388 l 341 388 m 314 225 l 314 222 q 322 217 314 217 q 713 317 355 222 l 715 323 q 710 328 715 328 l 707 328 q 317 231 694 328 l 314 225 m 317 168 q 322 163 317 163 q 718 263 344 163 l 718 269 q 710 274 718 274 q 319 174 663 263 l 317 168 m 325 109 q 333 106 328 109 q 726 209 711 201 l 726 212 q 718 220 726 216 q 325 117 365 130 l 325 109 m 409 81 q 545 84 503 84 l 574 84 l 569 92 l 569 95 q 645 130 569 120 q 726 157 723 150 q 718 163 726 163 q 409 84 643 146 l 409 81 m 618 87 l 618 81 q 661 95 659 85 l 659 95 l 618 87 m 409 1421 l 425 1421 q 466 1381 459 1415 l 466 1364 q 425 1324 459 1331 l 409 1324 q 368 1364 375 1331 l 368 1381 q 409 1421 375 1415 m 602 1421 l 618 1421 q 659 1381 652 1415 l 659 1364 q 618 1324 652 1331 l 602 1324 q 561 1364 568 1331 l 561 1381 q 602 1421 568 1415 z "},"":{"ha":1029,"x_min":0,"x_max":0,"o":""},"":{"ha":1014,"x_min":40,"x_max":973,"o":"m 591 1525 q 843 1394 706 1516 q 973 1153 958 1264 l 973 974 q 867 746 973 890 q 764 526 764 671 l 764 494 q 743 420 764 452 l 743 361 q 753 323 753 330 q 748 296 753 317 q 756 274 756 282 l 756 269 q 753 244 756 259 q 764 217 764 225 l 764 212 q 756 182 764 203 q 764 160 764 180 l 764 157 q 737 114 764 134 q 631 33 705 33 l 604 33 q 583 0 586 0 l 450 0 q 431 33 441 0 l 404 33 q 287 98 343 33 q 284 114 287 100 q 290 136 290 134 q 279 165 279 152 l 279 171 q 284 198 279 176 q 273 222 277 198 q 281 252 273 229 q 273 282 273 265 q 290 323 273 284 l 290 404 q 265 570 273 446 q 170 719 227 680 q 40 974 49 860 l 40 1142 q 176 1402 47 1256 q 420 1525 306 1511 l 591 1525 m 81 1061 q 241 722 81 869 q 325 461 325 631 q 338 439 333 439 l 669 439 q 713 483 713 439 l 713 513 q 813 762 713 690 q 932 1058 932 897 q 726 1421 932 1282 q 504 1484 621 1484 q 143 1280 286 1484 q 81 1061 81 1167 m 382 1215 l 469 1215 q 564 939 476 1215 l 566 939 l 566 1210 q 572 1215 567 1215 l 656 1215 q 661 1210 661 1215 l 661 651 q 656 646 661 646 l 569 646 q 474 922 562 646 l 471 922 l 471 651 q 466 646 471 646 l 382 646 q 376 651 376 646 l 376 1210 q 382 1215 377 1215 m 341 388 l 341 331 l 452 358 q 469 345 464 355 l 469 334 q 363 298 469 318 q 314 279 318 286 l 314 277 q 319 271 315 271 l 691 366 l 691 388 l 341 388 m 314 225 l 314 222 q 322 217 314 217 q 713 317 355 222 l 715 323 q 710 328 715 328 l 707 328 q 317 231 694 328 l 314 225 m 317 168 q 322 163 317 163 q 718 263 344 163 l 718 269 q 710 274 718 274 q 319 174 663 263 l 317 168 m 325 109 q 333 106 328 109 q 726 209 711 201 l 726 212 q 718 220 726 216 q 325 117 365 130 l 325 109 m 409 81 q 545 84 503 84 l 574 84 l 569 92 l 569 95 q 645 130 569 120 q 726 157 723 150 q 718 163 726 163 q 409 84 643 146 l 409 81 m 618 87 l 618 81 q 661 95 659 85 l 659 95 l 618 87 m 511 1439 l 630 1439 q 649 1420 649 1439 l 649 1344 q 630 1325 649 1325 l 595 1325 q 589 1331 589 1325 l 589 1379 l 551 1379 l 551 1347 q 532 1328 551 1328 l 410 1328 q 391 1339 396 1328 l 391 1423 q 405 1436 391 1426 l 437 1436 q 451 1415 451 1430 l 451 1388 l 492 1388 l 492 1428 q 511 1439 496 1439 z "},"":{"ha":1014,"x_min":40,"x_max":973,"o":"m 591 1525 q 843 1394 706 1516 q 973 1153 958 1264 l 973 974 q 867 746 973 890 q 764 526 764 671 l 764 494 q 743 420 764 452 l 743 361 q 753 323 753 330 q 748 296 753 317 q 756 274 756 282 l 756 269 q 753 244 756 259 q 764 217 764 225 l 764 212 q 756 182 764 203 q 764 160 764 180 l 764 157 q 737 114 764 134 q 631 33 705 33 l 604 33 q 583 0 586 0 l 450 0 q 431 33 441 0 l 404 33 q 287 98 343 33 q 284 114 287 100 q 290 136 290 134 q 279 165 279 152 l 279 171 q 284 198 279 176 q 273 222 277 198 q 281 252 273 229 q 273 282 273 265 q 290 323 273 284 l 290 404 q 265 570 273 446 q 170 719 227 680 q 40 974 49 860 l 40 1142 q 176 1402 47 1256 q 420 1525 306 1511 l 591 1525 m 81 1061 q 241 722 81 869 q 325 461 325 631 q 338 439 333 439 l 669 439 q 713 483 713 439 l 713 513 q 813 762 713 690 q 932 1058 932 897 q 726 1421 932 1282 q 504 1484 621 1484 q 143 1280 286 1484 q 81 1061 81 1167 m 417 1215 l 615 1215 q 659 1172 659 1208 l 659 689 q 615 646 652 646 l 417 646 q 374 689 374 652 l 374 1172 q 417 1215 380 1215 m 469 1120 l 469 741 l 564 741 l 564 1120 l 469 1120 m 341 388 l 341 331 l 452 358 q 469 345 464 355 l 469 334 q 363 298 469 318 q 314 279 318 286 l 314 277 q 319 271 315 271 l 691 366 l 691 388 l 341 388 m 314 225 l 314 222 q 322 217 314 217 q 713 317 355 222 l 715 323 q 710 328 715 328 l 707 328 q 317 231 694 328 l 314 225 m 317 168 q 322 163 317 163 q 718 263 344 163 l 718 269 q 710 274 718 274 q 319 174 663 263 l 317 168 m 325 109 q 333 106 328 109 q 726 209 711 201 l 726 212 q 718 220 726 216 q 325 117 365 130 l 325 109 m 409 81 q 545 84 503 84 l 574 84 l 569 92 l 569 95 q 645 130 569 120 q 726 157 723 150 q 718 163 726 163 q 409 84 643 146 l 409 81 m 618 87 l 618 81 q 661 95 659 85 l 659 95 l 618 87 m 570 1319 l 570 1316 l 502 1316 q 380 1409 389 1404 l 380 1414 l 472 1414 l 570 1319 z "},"":{"ha":1014,"x_min":40,"x_max":973,"o":"m 591 1525 q 843 1394 706 1516 q 973 1153 958 1264 l 973 974 q 867 746 973 890 q 764 526 764 671 l 764 494 q 743 420 764 452 l 743 361 q 753 323 753 330 q 748 296 753 317 q 756 274 756 282 l 756 269 q 753 244 756 259 q 764 217 764 225 l 764 212 q 756 182 764 203 q 764 160 764 180 l 764 157 q 737 114 764 134 q 631 33 705 33 l 604 33 q 583 0 586 0 l 450 0 q 431 33 441 0 l 404 33 q 287 98 343 33 q 284 114 287 100 q 290 136 290 134 q 279 165 279 152 l 279 171 q 284 198 279 176 q 273 222 277 198 q 281 252 273 229 q 273 282 273 265 q 290 323 273 284 l 290 404 q 265 570 273 446 q 170 719 227 680 q 40 974 49 860 l 40 1142 q 176 1402 47 1256 q 420 1525 306 1511 l 591 1525 m 81 1061 q 241 722 81 869 q 325 461 325 631 q 338 439 333 439 l 669 439 q 713 483 713 439 l 713 513 q 813 762 713 690 q 932 1058 932 897 q 726 1421 932 1282 q 504 1484 621 1484 q 143 1280 286 1484 q 81 1061 81 1167 m 417 1215 l 615 1215 q 659 1172 659 1208 l 659 689 q 615 646 652 646 l 417 646 q 374 689 374 652 l 374 1172 q 417 1215 380 1215 m 469 1120 l 469 741 l 564 741 l 564 1120 l 469 1120 m 341 388 l 341 331 l 452 358 q 469 345 464 355 l 469 334 q 363 298 469 318 q 314 279 318 286 l 314 277 q 319 271 315 271 l 691 366 l 691 388 l 341 388 m 314 225 l 314 222 q 322 217 314 217 q 713 317 355 222 l 715 323 q 710 328 715 328 l 707 328 q 317 231 694 328 l 314 225 m 317 168 q 322 163 317 163 q 718 263 344 163 l 718 269 q 710 274 718 274 q 319 174 663 263 l 317 168 m 325 109 q 333 106 328 109 q 726 209 711 201 l 726 212 q 718 220 726 216 q 325 117 365 130 l 325 109 m 409 81 q 545 84 503 84 l 574 84 l 569 92 l 569 95 q 645 130 569 120 q 726 157 723 150 q 718 163 726 163 q 409 84 643 146 l 409 81 m 618 87 l 618 81 q 661 95 659 85 l 659 95 l 618 87 m 568 1428 l 661 1428 l 661 1423 q 538 1331 650 1419 l 471 1331 l 471 1333 l 568 1428 z "},"":{"ha":1014,"x_min":40,"x_max":973,"o":"m 591 1525 q 843 1394 706 1516 q 973 1153 958 1264 l 973 974 q 867 746 973 890 q 764 526 764 671 l 764 494 q 743 420 764 452 l 743 361 q 753 323 753 330 q 748 296 753 317 q 756 274 756 282 l 756 269 q 753 244 756 259 q 764 217 764 225 l 764 212 q 756 182 764 203 q 764 160 764 180 l 764 157 q 737 114 764 134 q 631 33 705 33 l 604 33 q 583 0 586 0 l 450 0 q 431 33 441 0 l 404 33 q 287 98 343 33 q 284 114 287 100 q 290 136 290 134 q 279 165 279 152 l 279 171 q 284 198 279 176 q 273 222 277 198 q 281 252 273 229 q 273 282 273 265 q 290 323 273 284 l 290 404 q 265 570 273 446 q 170 719 227 680 q 40 974 49 860 l 40 1142 q 176 1402 47 1256 q 420 1525 306 1511 l 591 1525 m 81 1061 q 241 722 81 869 q 325 461 325 631 q 338 439 333 439 l 669 439 q 713 483 713 439 l 713 513 q 813 762 713 690 q 932 1058 932 897 q 726 1421 932 1282 q 504 1484 621 1484 q 143 1280 286 1484 q 81 1061 81 1167 m 417 1215 l 615 1215 q 659 1172 659 1208 l 659 689 q 615 646 652 646 l 417 646 q 374 689 374 652 l 374 1172 q 417 1215 380 1215 m 469 1120 l 469 741 l 564 741 l 564 1120 l 469 1120 m 341 388 l 341 331 l 452 358 q 469 345 464 355 l 469 334 q 363 298 469 318 q 314 279 318 286 l 314 277 q 319 271 315 271 l 691 366 l 691 388 l 341 388 m 314 225 l 314 222 q 322 217 314 217 q 713 317 355 222 l 715 323 q 710 328 715 328 l 707 328 q 317 231 694 328 l 314 225 m 317 168 q 322 163 317 163 q 718 263 344 163 l 718 269 q 710 274 718 274 q 319 174 663 263 l 317 168 m 325 109 q 333 106 328 109 q 726 209 711 201 l 726 212 q 718 220 726 216 q 325 117 365 130 l 325 109 m 409 81 q 545 84 503 84 l 574 84 l 569 92 l 569 95 q 645 130 569 120 q 726 157 723 150 q 718 163 726 163 q 409 84 643 146 l 409 81 m 618 87 l 618 81 q 661 95 659 85 l 659 95 l 618 87 m 481 1432 l 573 1432 l 671 1337 l 671 1334 l 603 1334 q 527 1391 560 1369 q 451 1334 523 1391 l 383 1334 l 383 1337 l 481 1432 z "},"":{"ha":1014,"x_min":40,"x_max":973,"o":"m 591 1525 q 843 1394 706 1516 q 973 1153 958 1264 l 973 974 q 867 746 973 890 q 764 526 764 671 l 764 494 q 743 420 764 452 l 743 361 q 753 323 753 330 q 748 296 753 317 q 756 274 756 282 l 756 269 q 753 244 756 259 q 764 217 764 225 l 764 212 q 756 182 764 203 q 764 160 764 180 l 764 157 q 737 114 764 134 q 631 33 705 33 l 604 33 q 583 0 586 0 l 450 0 q 431 33 441 0 l 404 33 q 287 98 343 33 q 284 114 287 100 q 290 136 290 134 q 279 165 279 152 l 279 171 q 284 198 279 176 q 273 222 277 198 q 281 252 273 229 q 273 282 273 265 q 290 323 273 284 l 290 404 q 265 570 273 446 q 170 719 227 680 q 40 974 49 860 l 40 1142 q 176 1402 47 1256 q 420 1525 306 1511 l 591 1525 m 81 1061 q 241 722 81 869 q 325 461 325 631 q 338 439 333 439 l 669 439 q 713 483 713 439 l 713 513 q 813 762 713 690 q 932 1058 932 897 q 726 1421 932 1282 q 504 1484 621 1484 q 143 1280 286 1484 q 81 1061 81 1167 m 417 1215 l 615 1215 q 659 1172 659 1208 l 659 689 q 615 646 652 646 l 417 646 q 374 689 374 652 l 374 1172 q 417 1215 380 1215 m 469 1120 l 469 741 l 564 741 l 564 1120 l 469 1120 m 341 388 l 341 331 l 452 358 q 469 345 464 355 l 469 334 q 363 298 469 318 q 314 279 318 286 l 314 277 q 319 271 315 271 l 691 366 l 691 388 l 341 388 m 314 225 l 314 222 q 322 217 314 217 q 713 317 355 222 l 715 323 q 710 328 715 328 l 707 328 q 317 231 694 328 l 314 225 m 317 168 q 322 163 317 163 q 718 263 344 163 l 718 269 q 710 274 718 274 q 319 174 663 263 l 317 168 m 325 109 q 333 106 328 109 q 726 209 711 201 l 726 212 q 718 220 726 216 q 325 117 365 130 l 325 109 m 409 81 q 545 84 503 84 l 574 84 l 569 92 l 569 95 q 645 130 569 120 q 726 157 723 150 q 718 163 726 163 q 409 84 643 146 l 409 81 m 618 87 l 618 81 q 661 95 659 85 l 659 95 l 618 87 m 511 1439 l 630 1439 q 649 1420 649 1439 l 649 1344 q 630 1325 649 1325 l 595 1325 q 589 1331 589 1325 l 589 1379 l 551 1379 l 551 1347 q 532 1328 551 1328 l 410 1328 q 391 1339 396 1328 l 391 1423 q 405 1436 391 1426 l 437 1436 q 451 1415 451 1430 l 451 1388 l 492 1388 l 492 1428 q 511 1439 496 1439 z "},"":{"ha":1014,"x_min":40,"x_max":973,"o":"m 591 1525 q 843 1394 706 1516 q 973 1153 958 1264 l 973 974 q 867 746 973 890 q 764 526 764 671 l 764 494 q 743 420 764 452 l 743 361 q 753 323 753 330 q 748 296 753 317 q 756 274 756 282 l 756 269 q 753 244 756 259 q 764 217 764 225 l 764 212 q 756 182 764 203 q 764 160 764 180 l 764 157 q 737 114 764 134 q 631 33 705 33 l 604 33 q 583 0 586 0 l 450 0 q 431 33 441 0 l 404 33 q 287 98 343 33 q 284 114 287 100 q 290 136 290 134 q 279 165 279 152 l 279 171 q 284 198 279 176 q 273 222 277 198 q 281 252 273 229 q 273 282 273 265 q 290 323 273 284 l 290 404 q 265 570 273 446 q 170 719 227 680 q 40 974 49 860 l 40 1142 q 176 1402 47 1256 q 420 1525 306 1511 l 591 1525 m 81 1061 q 241 722 81 869 q 325 461 325 631 q 338 439 333 439 l 669 439 q 713 483 713 439 l 713 513 q 813 762 713 690 q 932 1058 932 897 q 726 1421 932 1282 q 504 1484 621 1484 q 143 1280 286 1484 q 81 1061 81 1167 m 417 1215 l 615 1215 q 659 1172 659 1208 l 659 689 q 615 646 652 646 l 417 646 q 374 689 374 652 l 374 1172 q 417 1215 380 1215 m 469 1120 l 469 741 l 564 741 l 564 1120 l 469 1120 m 341 388 l 341 331 l 452 358 q 469 345 464 355 l 469 334 q 363 298 469 318 q 314 279 318 286 l 314 277 q 319 271 315 271 l 691 366 l 691 388 l 341 388 m 314 225 l 314 222 q 322 217 314 217 q 713 317 355 222 l 715 323 q 710 328 715 328 l 707 328 q 317 231 694 328 l 314 225 m 317 168 q 322 163 317 163 q 718 263 344 163 l 718 269 q 710 274 718 274 q 319 174 663 263 l 317 168 m 325 109 q 333 106 328 109 q 726 209 711 201 l 726 212 q 718 220 726 216 q 325 117 365 130 l 325 109 m 409 81 q 545 84 503 84 l 574 84 l 569 92 l 569 95 q 645 130 569 120 q 726 157 723 150 q 718 163 726 163 q 409 84 643 146 l 409 81 m 618 87 l 618 81 q 661 95 659 85 l 659 95 l 618 87 m 409 1421 l 425 1421 q 466 1381 459 1415 l 466 1364 q 425 1324 459 1331 l 409 1324 q 368 1364 375 1331 l 368 1381 q 409 1421 375 1415 m 602 1421 l 618 1421 q 659 1381 652 1415 l 659 1364 q 618 1324 652 1331 l 602 1324 q 561 1364 568 1331 l 561 1381 q 602 1421 568 1415 z "},"":{"ha":688,"x_min":0,"x_max":0,"o":""},"":{"ha":1095,"x_min":0,"x_max":0,"o":""},"":{"ha":1014,"x_min":40,"x_max":973,"o":"m 591 1525 q 843 1394 706 1516 q 973 1153 958 1264 l 973 974 q 867 746 973 890 q 764 526 764 671 l 764 494 q 743 420 764 452 l 743 361 q 753 323 753 330 q 748 296 753 317 q 756 274 756 282 l 756 269 q 753 244 756 259 q 764 217 764 225 l 764 212 q 756 182 764 203 q 764 160 764 180 l 764 157 q 737 114 764 134 q 631 33 705 33 l 604 33 q 583 0 586 0 l 450 0 q 431 33 441 0 l 404 33 q 287 98 343 33 q 284 114 287 100 q 290 136 290 134 q 279 165 279 152 l 279 171 q 284 198 279 176 q 273 222 277 198 q 281 252 273 229 q 273 282 273 265 q 290 323 273 284 l 290 404 q 265 570 273 446 q 170 719 227 680 q 40 974 49 860 l 40 1142 q 176 1402 47 1256 q 420 1525 306 1511 l 591 1525 m 81 1061 q 241 722 81 869 q 325 461 325 631 q 338 439 333 439 l 669 439 q 713 483 713 439 l 713 513 q 813 762 713 690 q 932 1058 932 897 q 726 1421 932 1282 q 504 1484 621 1484 q 143 1280 286 1484 q 81 1061 81 1167 m 379 1215 l 463 1215 q 469 1210 469 1215 l 469 741 l 564 741 l 564 1210 q 569 1215 564 1215 l 653 1215 q 659 1210 659 1215 l 659 689 q 615 646 652 646 l 417 646 q 374 689 374 652 l 374 1210 q 379 1215 374 1215 m 341 388 l 341 331 l 452 358 q 469 345 464 355 l 469 334 q 363 298 469 318 q 314 279 318 286 l 314 277 q 319 271 315 271 l 691 366 l 691 388 l 341 388 m 314 225 l 314 222 q 322 217 314 217 q 713 317 355 222 l 715 323 q 710 328 715 328 l 707 328 q 317 231 694 328 l 314 225 m 317 168 q 322 163 317 163 q 718 263 344 163 l 718 269 q 710 274 718 274 q 319 174 663 263 l 317 168 m 325 109 q 333 106 328 109 q 726 209 711 201 l 726 212 q 718 220 726 216 q 325 117 365 130 l 325 109 m 409 81 q 545 84 503 84 l 574 84 l 569 92 l 569 95 q 645 130 569 120 q 726 157 723 150 q 718 163 726 163 q 409 84 643 146 l 409 81 m 618 87 l 618 81 q 661 95 659 85 l 659 95 l 618 87 m 570 1319 l 570 1316 l 502 1316 q 380 1409 389 1404 l 380 1414 l 472 1414 l 570 1319 z "},"":{"ha":1014,"x_min":40,"x_max":973,"o":"m 591 1525 q 843 1394 706 1516 q 973 1153 958 1264 l 973 974 q 867 746 973 890 q 764 526 764 671 l 764 494 q 743 420 764 452 l 743 361 q 753 323 753 330 q 748 296 753 317 q 756 274 756 282 l 756 269 q 753 244 756 259 q 764 217 764 225 l 764 212 q 756 182 764 203 q 764 160 764 180 l 764 157 q 737 114 764 134 q 631 33 705 33 l 604 33 q 583 0 586 0 l 450 0 q 431 33 441 0 l 404 33 q 287 98 343 33 q 284 114 287 100 q 290 136 290 134 q 279 165 279 152 l 279 171 q 284 198 279 176 q 273 222 277 198 q 281 252 273 229 q 273 282 273 265 q 290 323 273 284 l 290 404 q 265 570 273 446 q 170 719 227 680 q 40 974 49 860 l 40 1142 q 176 1402 47 1256 q 420 1525 306 1511 l 591 1525 m 81 1061 q 241 722 81 869 q 325 461 325 631 q 338 439 333 439 l 669 439 q 713 483 713 439 l 713 513 q 813 762 713 690 q 932 1058 932 897 q 726 1421 932 1282 q 504 1484 621 1484 q 143 1280 286 1484 q 81 1061 81 1167 m 379 1215 l 463 1215 q 469 1210 469 1215 l 469 741 l 564 741 l 564 1210 q 569 1215 564 1215 l 653 1215 q 659 1210 659 1215 l 659 689 q 615 646 652 646 l 417 646 q 374 689 374 652 l 374 1210 q 379 1215 374 1215 m 341 388 l 341 331 l 452 358 q 469 345 464 355 l 469 334 q 363 298 469 318 q 314 279 318 286 l 314 277 q 319 271 315 271 l 691 366 l 691 388 l 341 388 m 314 225 l 314 222 q 322 217 314 217 q 713 317 355 222 l 715 323 q 710 328 715 328 l 707 328 q 317 231 694 328 l 314 225 m 317 168 q 322 163 317 163 q 718 263 344 163 l 718 269 q 710 274 718 274 q 319 174 663 263 l 317 168 m 325 109 q 333 106 328 109 q 726 209 711 201 l 726 212 q 718 220 726 216 q 325 117 365 130 l 325 109 m 409 81 q 545 84 503 84 l 574 84 l 569 92 l 569 95 q 645 130 569 120 q 726 157 723 150 q 718 163 726 163 q 409 84 643 146 l 409 81 m 618 87 l 618 81 q 661 95 659 85 l 659 95 l 618 87 m 568 1428 l 661 1428 l 661 1423 q 538 1331 650 1419 l 471 1331 l 471 1333 l 568 1428 z "},"":{"ha":1014,"x_min":40,"x_max":973,"o":"m 591 1525 q 843 1394 706 1516 q 973 1153 958 1264 l 973 974 q 867 746 973 890 q 764 526 764 671 l 764 494 q 743 420 764 452 l 743 361 q 753 323 753 330 q 748 296 753 317 q 756 274 756 282 l 756 269 q 753 244 756 259 q 764 217 764 225 l 764 212 q 756 182 764 203 q 764 160 764 180 l 764 157 q 737 114 764 134 q 631 33 705 33 l 604 33 q 583 0 586 0 l 450 0 q 431 33 441 0 l 404 33 q 287 98 343 33 q 284 114 287 100 q 290 136 290 134 q 279 165 279 152 l 279 171 q 284 198 279 176 q 273 222 277 198 q 281 252 273 229 q 273 282 273 265 q 290 323 273 284 l 290 404 q 265 570 273 446 q 170 719 227 680 q 40 974 49 860 l 40 1142 q 176 1402 47 1256 q 420 1525 306 1511 l 591 1525 m 81 1061 q 241 722 81 869 q 325 461 325 631 q 338 439 333 439 l 669 439 q 713 483 713 439 l 713 513 q 813 762 713 690 q 932 1058 932 897 q 726 1421 932 1282 q 504 1484 621 1484 q 143 1280 286 1484 q 81 1061 81 1167 m 379 1215 l 463 1215 q 469 1210 469 1215 l 469 741 l 564 741 l 564 1210 q 569 1215 564 1215 l 653 1215 q 659 1210 659 1215 l 659 689 q 615 646 652 646 l 417 646 q 374 689 374 652 l 374 1210 q 379 1215 374 1215 m 341 388 l 341 331 l 452 358 q 469 345 464 355 l 469 334 q 363 298 469 318 q 314 279 318 286 l 314 277 q 319 271 315 271 l 691 366 l 691 388 l 341 388 m 314 225 l 314 222 q 322 217 314 217 q 713 317 355 222 l 715 323 q 710 328 715 328 l 707 328 q 317 231 694 328 l 314 225 m 317 168 q 322 163 317 163 q 718 263 344 163 l 718 269 q 710 274 718 274 q 319 174 663 263 l 317 168 m 325 109 q 333 106 328 109 q 726 209 711 201 l 726 212 q 718 220 726 216 q 325 117 365 130 l 325 109 m 409 81 q 545 84 503 84 l 574 84 l 569 92 l 569 95 q 645 130 569 120 q 726 157 723 150 q 718 163 726 163 q 409 84 643 146 l 409 81 m 618 87 l 618 81 q 661 95 659 85 l 659 95 l 618 87 m 481 1432 l 573 1432 l 671 1337 l 671 1334 l 603 1334 q 527 1391 560 1369 q 451 1334 523 1391 l 383 1334 l 383 1337 l 481 1432 z "},"":{"ha":1014,"x_min":40,"x_max":973,"o":"m 591 1525 q 843 1394 706 1516 q 973 1153 958 1264 l 973 974 q 867 746 973 890 q 764 526 764 671 l 764 494 q 743 420 764 452 l 743 361 q 753 323 753 330 q 748 296 753 317 q 756 274 756 282 l 756 269 q 753 244 756 259 q 764 217 764 225 l 764 212 q 756 182 764 203 q 764 160 764 180 l 764 157 q 737 114 764 134 q 631 33 705 33 l 604 33 q 583 0 586 0 l 450 0 q 431 33 441 0 l 404 33 q 287 98 343 33 q 284 114 287 100 q 290 136 290 134 q 279 165 279 152 l 279 171 q 284 198 279 176 q 273 222 277 198 q 281 252 273 229 q 273 282 273 265 q 290 323 273 284 l 290 404 q 265 570 273 446 q 170 719 227 680 q 40 974 49 860 l 40 1142 q 176 1402 47 1256 q 420 1525 306 1511 l 591 1525 m 81 1061 q 241 722 81 869 q 325 461 325 631 q 338 439 333 439 l 669 439 q 713 483 713 439 l 713 513 q 813 762 713 690 q 932 1058 932 897 q 726 1421 932 1282 q 504 1484 621 1484 q 143 1280 286 1484 q 81 1061 81 1167 m 379 1215 l 463 1215 q 469 1210 469 1215 l 469 741 l 564 741 l 564 1210 q 569 1215 564 1215 l 653 1215 q 659 1210 659 1215 l 659 689 q 615 646 652 646 l 417 646 q 374 689 374 652 l 374 1210 q 379 1215 374 1215 m 341 388 l 341 331 l 452 358 q 469 345 464 355 l 469 334 q 363 298 469 318 q 314 279 318 286 l 314 277 q 319 271 315 271 l 691 366 l 691 388 l 341 388 m 314 225 l 314 222 q 322 217 314 217 q 713 317 355 222 l 715 323 q 710 328 715 328 l 707 328 q 317 231 694 328 l 314 225 m 317 168 q 322 163 317 163 q 718 263 344 163 l 718 269 q 710 274 718 274 q 319 174 663 263 l 317 168 m 325 109 q 333 106 328 109 q 726 209 711 201 l 726 212 q 718 220 726 216 q 325 117 365 130 l 325 109 m 409 81 q 545 84 503 84 l 574 84 l 569 92 l 569 95 q 645 130 569 120 q 726 157 723 150 q 718 163 726 163 q 409 84 643 146 l 409 81 m 618 87 l 618 81 q 661 95 659 85 l 659 95 l 618 87 m 409 1421 l 425 1421 q 466 1381 459 1415 l 466 1364 q 425 1324 459 1331 l 409 1324 q 368 1364 375 1331 l 368 1381 q 409 1421 375 1415 m 602 1421 l 618 1421 q 659 1381 652 1415 l 659 1364 q 618 1324 652 1331 l 602 1324 q 561 1364 568 1331 l 561 1381 q 602 1421 568 1415 z "},"":{"ha":1014,"x_min":40,"x_max":973,"o":"m 591 1525 q 843 1394 706 1516 q 973 1153 958 1264 l 973 974 q 867 746 973 890 q 764 526 764 671 l 764 494 q 743 420 764 452 l 743 361 q 753 323 753 330 q 748 296 753 317 q 756 274 756 282 l 756 269 q 753 244 756 259 q 764 217 764 225 l 764 212 q 756 182 764 203 q 764 160 764 180 l 764 157 q 737 114 764 134 q 631 33 705 33 l 604 33 q 583 0 586 0 l 450 0 q 431 33 441 0 l 404 33 q 287 98 343 33 q 284 114 287 100 q 290 136 290 134 q 279 165 279 152 l 279 171 q 284 198 279 176 q 273 222 277 198 q 281 252 273 229 q 273 282 273 265 q 290 323 273 284 l 290 404 q 265 570 273 446 q 170 719 227 680 q 40 974 49 860 l 40 1142 q 176 1402 47 1256 q 420 1525 306 1511 l 591 1525 m 81 1061 q 241 722 81 869 q 325 461 325 631 q 338 439 333 439 l 669 439 q 713 483 713 439 l 713 513 q 813 762 713 690 q 932 1058 932 897 q 726 1421 932 1282 q 504 1484 621 1484 q 143 1280 286 1484 q 81 1061 81 1167 m 379 1215 l 466 1215 q 515 1077 473 1215 l 517 1077 q 566 1215 559 1215 l 653 1215 q 659 1210 659 1215 q 564 920 564 931 l 564 651 q 558 646 564 646 l 474 646 q 469 651 469 646 l 469 920 q 374 1213 469 928 l 379 1215 m 341 388 l 341 331 l 452 358 q 469 345 464 355 l 469 334 q 363 298 469 318 q 314 279 318 286 l 314 277 q 319 271 315 271 l 691 366 l 691 388 l 341 388 m 314 225 l 314 222 q 322 217 314 217 q 713 317 355 222 l 715 323 q 710 328 715 328 l 707 328 q 317 231 694 328 l 314 225 m 317 168 q 322 163 317 163 q 718 263 344 163 l 718 269 q 710 274 718 274 q 319 174 663 263 l 317 168 m 325 109 q 333 106 328 109 q 726 209 711 201 l 726 212 q 718 220 726 216 q 325 117 365 130 l 325 109 m 409 81 q 545 84 503 84 l 574 84 l 569 92 l 569 95 q 645 130 569 120 q 726 157 723 150 q 718 163 726 163 q 409 84 643 146 l 409 81 m 618 87 l 618 81 q 661 95 659 85 l 659 95 l 618 87 m 568 1428 l 661 1428 l 661 1423 q 538 1331 650 1419 l 471 1331 l 471 1333 l 568 1428 z "},"":{"ha":760,"x_min":0,"x_max":0,"o":""},"":{"ha":848,"x_min":0,"x_max":0,"o":""},"":{"ha":1014,"x_min":40,"x_max":973,"o":"m 591 1525 q 843 1394 706 1516 q 973 1153 958 1264 l 973 974 q 867 746 973 890 q 764 526 764 671 l 764 494 q 743 420 764 452 l 743 361 q 753 323 753 330 q 748 296 753 317 q 756 274 756 282 l 756 269 q 753 244 756 259 q 764 217 764 225 l 764 212 q 756 182 764 203 q 764 160 764 180 l 764 157 q 737 114 764 134 q 631 33 705 33 l 604 33 q 583 0 586 0 l 450 0 q 431 33 441 0 l 404 33 q 287 98 343 33 q 284 114 287 100 q 290 136 290 134 q 279 165 279 152 l 279 171 q 284 198 279 176 q 273 222 277 198 q 281 252 273 229 q 273 282 273 265 q 290 323 273 284 l 290 404 q 265 570 273 446 q 170 719 227 680 q 40 974 49 860 l 40 1142 q 176 1402 47 1256 q 420 1525 306 1511 l 591 1525 m 81 1061 q 241 722 81 869 q 325 461 325 631 q 338 439 333 439 l 669 439 q 713 483 713 439 l 713 513 q 813 762 713 690 q 932 1058 932 897 q 726 1421 932 1282 q 504 1484 621 1484 q 143 1280 286 1484 q 81 1061 81 1167 m 417 1215 l 615 1215 q 659 1172 659 1208 l 659 651 q 653 646 659 646 l 569 646 q 564 651 564 646 l 564 836 l 469 836 l 469 651 q 463 646 469 646 l 379 646 q 374 651 374 646 l 374 1172 q 417 1215 380 1215 m 469 1120 l 469 930 l 564 930 l 564 1120 l 469 1120 m 341 388 l 341 331 l 452 358 q 469 345 464 355 l 469 334 q 363 298 469 318 q 314 279 318 286 l 314 277 q 319 271 315 271 l 691 366 l 691 388 l 341 388 m 314 225 l 314 222 q 322 217 314 217 q 713 317 355 222 l 715 323 q 710 328 715 328 l 707 328 q 317 231 694 328 l 314 225 m 317 168 q 322 163 317 163 q 718 263 344 163 l 718 269 q 710 274 718 274 q 319 174 663 263 l 317 168 m 325 109 q 333 106 328 109 q 726 209 711 201 l 726 212 q 718 220 726 216 q 325 117 365 130 l 325 109 m 409 81 q 545 84 503 84 l 574 84 l 569 92 l 569 95 q 645 130 569 120 q 726 157 723 150 q 718 163 726 163 q 409 84 643 146 l 409 81 m 618 87 l 618 81 q 661 95 659 85 l 659 95 l 618 87 m 570 1319 l 570 1316 l 502 1316 q 380 1409 389 1404 l 380 1414 l 472 1414 l 570 1319 z "},"":{"ha":1014,"x_min":40,"x_max":973,"o":"m 591 1525 q 843 1394 706 1516 q 973 1153 958 1264 l 973 974 q 867 746 973 890 q 764 526 764 671 l 764 494 q 743 420 764 452 l 743 361 q 753 323 753 330 q 748 296 753 317 q 756 274 756 282 l 756 269 q 753 244 756 259 q 764 217 764 225 l 764 212 q 756 182 764 203 q 764 160 764 180 l 764 157 q 737 114 764 134 q 631 33 705 33 l 604 33 q 583 0 586 0 l 450 0 q 431 33 441 0 l 404 33 q 287 98 343 33 q 284 114 287 100 q 290 136 290 134 q 279 165 279 152 l 279 171 q 284 198 279 176 q 273 222 277 198 q 281 252 273 229 q 273 282 273 265 q 290 323 273 284 l 290 404 q 265 570 273 446 q 170 719 227 680 q 40 974 49 860 l 40 1142 q 176 1402 47 1256 q 420 1525 306 1511 l 591 1525 m 81 1061 q 241 722 81 869 q 325 461 325 631 q 338 439 333 439 l 669 439 q 713 483 713 439 l 713 513 q 813 762 713 690 q 932 1058 932 897 q 726 1421 932 1282 q 504 1484 621 1484 q 143 1280 286 1484 q 81 1061 81 1167 m 417 1215 l 615 1215 q 659 1172 659 1208 l 659 651 q 653 646 659 646 l 569 646 q 564 651 564 646 l 564 836 l 469 836 l 469 651 q 463 646 469 646 l 379 646 q 374 651 374 646 l 374 1172 q 417 1215 380 1215 m 469 1120 l 469 930 l 564 930 l 564 1120 l 469 1120 m 341 388 l 341 331 l 452 358 q 469 345 464 355 l 469 334 q 363 298 469 318 q 314 279 318 286 l 314 277 q 319 271 315 271 l 691 366 l 691 388 l 341 388 m 314 225 l 314 222 q 322 217 314 217 q 713 317 355 222 l 715 323 q 710 328 715 328 l 707 328 q 317 231 694 328 l 314 225 m 317 168 q 322 163 317 163 q 718 263 344 163 l 718 269 q 710 274 718 274 q 319 174 663 263 l 317 168 m 325 109 q 333 106 328 109 q 726 209 711 201 l 726 212 q 718 220 726 216 q 325 117 365 130 l 325 109 m 409 81 q 545 84 503 84 l 574 84 l 569 92 l 569 95 q 645 130 569 120 q 726 157 723 150 q 718 163 726 163 q 409 84 643 146 l 409 81 m 618 87 l 618 81 q 661 95 659 85 l 659 95 l 618 87 m 568 1428 l 661 1428 l 661 1423 q 538 1331 650 1419 l 471 1331 l 471 1333 l 568 1428 z "},"":{"ha":1014,"x_min":40,"x_max":973,"o":"m 591 1525 q 843 1394 706 1516 q 973 1153 958 1264 l 973 974 q 867 746 973 890 q 764 526 764 671 l 764 494 q 743 420 764 452 l 743 361 q 753 323 753 330 q 748 296 753 317 q 756 274 756 282 l 756 269 q 753 244 756 259 q 764 217 764 225 l 764 212 q 756 182 764 203 q 764 160 764 180 l 764 157 q 737 114 764 134 q 631 33 705 33 l 604 33 q 583 0 586 0 l 450 0 q 431 33 441 0 l 404 33 q 287 98 343 33 q 284 114 287 100 q 290 136 290 134 q 279 165 279 152 l 279 171 q 284 198 279 176 q 273 222 277 198 q 281 252 273 229 q 273 282 273 265 q 290 323 273 284 l 290 404 q 265 570 273 446 q 170 719 227 680 q 40 974 49 860 l 40 1142 q 176 1402 47 1256 q 420 1525 306 1511 l 591 1525 m 81 1061 q 241 722 81 869 q 325 461 325 631 q 338 439 333 439 l 669 439 q 713 483 713 439 l 713 513 q 813 762 713 690 q 932 1058 932 897 q 726 1421 932 1282 q 504 1484 621 1484 q 143 1280 286 1484 q 81 1061 81 1167 m 417 1215 l 615 1215 q 659 1172 659 1208 l 659 651 q 653 646 659 646 l 569 646 q 564 651 564 646 l 564 836 l 469 836 l 469 651 q 463 646 469 646 l 379 646 q 374 651 374 646 l 374 1172 q 417 1215 380 1215 m 469 1120 l 469 930 l 564 930 l 564 1120 l 469 1120 m 341 388 l 341 331 l 452 358 q 469 345 464 355 l 469 334 q 363 298 469 318 q 314 279 318 286 l 314 277 q 319 271 315 271 l 691 366 l 691 388 l 341 388 m 314 225 l 314 222 q 322 217 314 217 q 713 317 355 222 l 715 323 q 710 328 715 328 l 707 328 q 317 231 694 328 l 314 225 m 317 168 q 322 163 317 163 q 718 263 344 163 l 718 269 q 710 274 718 274 q 319 174 663 263 l 317 168 m 325 109 q 333 106 328 109 q 726 209 711 201 l 726 212 q 718 220 726 216 q 325 117 365 130 l 325 109 m 409 81 q 545 84 503 84 l 574 84 l 569 92 l 569 95 q 645 130 569 120 q 726 157 723 150 q 718 163 726 163 q 409 84 643 146 l 409 81 m 618 87 l 618 81 q 661 95 659 85 l 659 95 l 618 87 m 481 1432 l 573 1432 l 671 1337 l 671 1334 l 603 1334 q 527 1391 560 1369 q 451 1334 523 1391 l 383 1334 l 383 1337 l 481 1432 z "},"":{"ha":1014,"x_min":40,"x_max":973,"o":"m 591 1525 q 843 1394 706 1516 q 973 1153 958 1264 l 973 974 q 867 746 973 890 q 764 526 764 671 l 764 494 q 743 420 764 452 l 743 361 q 753 323 753 330 q 748 296 753 317 q 756 274 756 282 l 756 269 q 753 244 756 259 q 764 217 764 225 l 764 212 q 756 182 764 203 q 764 160 764 180 l 764 157 q 737 114 764 134 q 631 33 705 33 l 604 33 q 583 0 586 0 l 450 0 q 431 33 441 0 l 404 33 q 287 98 343 33 q 284 114 287 100 q 290 136 290 134 q 279 165 279 152 l 279 171 q 284 198 279 176 q 273 222 277 198 q 281 252 273 229 q 273 282 273 265 q 290 323 273 284 l 290 404 q 265 570 273 446 q 170 719 227 680 q 40 974 49 860 l 40 1142 q 176 1402 47 1256 q 420 1525 306 1511 l 591 1525 m 81 1061 q 241 722 81 869 q 325 461 325 631 q 338 439 333 439 l 669 439 q 713 483 713 439 l 713 513 q 813 762 713 690 q 932 1058 932 897 q 726 1421 932 1282 q 504 1484 621 1484 q 143 1280 286 1484 q 81 1061 81 1167 m 417 1215 l 615 1215 q 659 1172 659 1208 l 659 651 q 653 646 659 646 l 569 646 q 564 651 564 646 l 564 836 l 469 836 l 469 651 q 463 646 469 646 l 379 646 q 374 651 374 646 l 374 1172 q 417 1215 380 1215 m 469 1120 l 469 930 l 564 930 l 564 1120 l 469 1120 m 341 388 l 341 331 l 452 358 q 469 345 464 355 l 469 334 q 363 298 469 318 q 314 279 318 286 l 314 277 q 319 271 315 271 l 691 366 l 691 388 l 341 388 m 314 225 l 314 222 q 322 217 314 217 q 713 317 355 222 l 715 323 q 710 328 715 328 l 707 328 q 317 231 694 328 l 314 225 m 317 168 q 322 163 317 163 q 718 263 344 163 l 718 269 q 710 274 718 274 q 319 174 663 263 l 317 168 m 325 109 q 333 106 328 109 q 726 209 711 201 l 726 212 q 718 220 726 216 q 325 117 365 130 l 325 109 m 409 81 q 545 84 503 84 l 574 84 l 569 92 l 569 95 q 645 130 569 120 q 726 157 723 150 q 718 163 726 163 q 409 84 643 146 l 409 81 m 618 87 l 618 81 q 661 95 659 85 l 659 95 l 618 87 m 511 1439 l 630 1439 q 649 1420 649 1439 l 649 1344 q 630 1325 649 1325 l 595 1325 q 589 1331 589 1325 l 589 1379 l 551 1379 l 551 1347 q 532 1328 551 1328 l 410 1328 q 391 1339 396 1328 l 391 1423 q 405 1436 391 1426 l 437 1436 q 451 1415 451 1430 l 451 1388 l 492 1388 l 492 1428 q 511 1439 496 1439 z "},"":{"ha":1014,"x_min":40,"x_max":973,"o":"m 591 1525 q 843 1394 706 1516 q 973 1153 958 1264 l 973 974 q 867 746 973 890 q 764 526 764 671 l 764 494 q 743 420 764 452 l 743 361 q 753 323 753 330 q 748 296 753 317 q 756 274 756 282 l 756 269 q 753 244 756 259 q 764 217 764 225 l 764 212 q 756 182 764 203 q 764 160 764 180 l 764 157 q 737 114 764 134 q 631 33 705 33 l 604 33 q 583 0 586 0 l 450 0 q 431 33 441 0 l 404 33 q 287 98 343 33 q 284 114 287 100 q 290 136 290 134 q 279 165 279 152 l 279 171 q 284 198 279 176 q 273 222 277 198 q 281 252 273 229 q 273 282 273 265 q 290 323 273 284 l 290 404 q 265 570 273 446 q 170 719 227 680 q 40 974 49 860 l 40 1142 q 176 1402 47 1256 q 420 1525 306 1511 l 591 1525 m 81 1061 q 241 722 81 869 q 325 461 325 631 q 338 439 333 439 l 669 439 q 713 483 713 439 l 713 513 q 813 762 713 690 q 932 1058 932 897 q 726 1421 932 1282 q 504 1484 621 1484 q 143 1280 286 1484 q 81 1061 81 1167 m 417 1215 l 615 1215 q 659 1172 659 1208 l 659 651 q 653 646 659 646 l 569 646 q 564 651 564 646 l 564 836 l 469 836 l 469 651 q 463 646 469 646 l 379 646 q 374 651 374 646 l 374 1172 q 417 1215 380 1215 m 469 1120 l 469 930 l 564 930 l 564 1120 l 469 1120 m 341 388 l 341 331 l 452 358 q 469 345 464 355 l 469 334 q 363 298 469 318 q 314 279 318 286 l 314 277 q 319 271 315 271 l 691 366 l 691 388 l 341 388 m 314 225 l 314 222 q 322 217 314 217 q 713 317 355 222 l 715 323 q 710 328 715 328 l 707 328 q 317 231 694 328 l 314 225 m 317 168 q 322 163 317 163 q 718 263 344 163 l 718 269 q 710 274 718 274 q 319 174 663 263 l 317 168 m 325 109 q 333 106 328 109 q 726 209 711 201 l 726 212 q 718 220 726 216 q 325 117 365 130 l 325 109 m 409 81 q 545 84 503 84 l 574 84 l 569 92 l 569 95 q 645 130 569 120 q 726 157 723 150 q 718 163 726 163 q 409 84 643 146 l 409 81 m 618 87 l 618 81 q 661 95 659 85 l 659 95 l 618 87 m 409 1421 l 425 1421 q 466 1381 459 1415 l 466 1364 q 425 1324 459 1331 l 409 1324 q 368 1364 375 1331 l 368 1381 q 409 1421 375 1415 m 602 1421 l 618 1421 q 659 1381 652 1415 l 659 1364 q 618 1324 652 1331 l 602 1324 q 561 1364 568 1331 l 561 1381 q 602 1421 568 1415 z "},"":{"ha":1014,"x_min":40,"x_max":973,"o":"m 591 1525 q 843 1394 706 1516 q 973 1153 958 1264 l 973 974 q 867 746 973 890 q 764 526 764 671 l 764 494 q 743 420 764 452 l 743 361 q 753 323 753 330 q 748 296 753 317 q 756 274 756 282 l 756 269 q 753 244 756 259 q 764 217 764 225 l 764 212 q 756 182 764 203 q 764 160 764 180 l 764 157 q 737 114 764 134 q 631 33 705 33 l 604 33 q 583 0 586 0 l 450 0 q 431 33 441 0 l 404 33 q 287 98 343 33 q 284 114 287 100 q 290 136 290 134 q 279 165 279 152 l 279 171 q 284 198 279 176 q 273 222 277 198 q 281 252 273 229 q 273 282 273 265 q 290 323 273 284 l 290 404 q 265 570 273 446 q 170 719 227 680 q 40 974 49 860 l 40 1142 q 176 1402 47 1256 q 420 1525 306 1511 l 591 1525 m 81 1061 q 241 722 81 869 q 325 461 325 631 q 338 439 333 439 l 669 439 q 713 483 713 439 l 713 513 q 813 762 713 690 q 932 1058 932 897 q 726 1421 932 1282 q 504 1484 621 1484 q 143 1280 286 1484 q 81 1061 81 1167 m 417 1215 l 615 1215 q 659 1172 659 1208 l 659 651 q 653 646 659 646 l 569 646 q 564 651 564 646 l 564 836 l 469 836 l 469 651 q 463 646 469 646 l 379 646 q 374 651 374 646 l 374 1172 q 417 1215 380 1215 m 469 1120 l 469 930 l 564 930 l 564 1120 l 469 1120 m 341 388 l 341 331 l 452 358 q 469 345 464 355 l 469 334 q 363 298 469 318 q 314 279 318 286 l 314 277 q 319 271 315 271 l 691 366 l 691 388 l 341 388 m 314 225 l 314 222 q 322 217 314 217 q 713 317 355 222 l 715 323 q 710 328 715 328 l 707 328 q 317 231 694 328 l 314 225 m 317 168 q 322 163 317 163 q 718 263 344 163 l 718 269 q 710 274 718 274 q 319 174 663 263 l 317 168 m 325 109 q 333 106 328 109 q 726 209 711 201 l 726 212 q 718 220 726 216 q 325 117 365 130 l 325 109 m 409 81 q 545 84 503 84 l 574 84 l 569 92 l 569 95 q 645 130 569 120 q 726 157 723 150 q 718 163 726 163 q 409 84 643 146 l 409 81 m 618 87 l 618 81 q 661 95 659 85 l 659 95 l 618 87 m 494 1357 l 554 1357 l 621 1293 l 554 1229 l 494 1229 l 428 1293 l 494 1357 m 474 1291 q 522 1255 478 1291 l 526 1255 q 574 1291 570 1291 q 524 1331 565 1302 q 474 1291 484 1302 z "},"":{"ha":986,"x_min":0,"x_max":0,"o":""},"":{"ha":1014,"x_min":40,"x_max":973,"o":"m 497 646 l 417 646 q 374 689 374 652 l 374 1172 q 417 1215 380 1215 l 653 1215 q 659 1210 659 1215 l 659 1126 q 653 1120 659 1120 l 469 1120 l 469 741 l 653 741 q 659 735 659 740 l 659 651 q 653 646 659 646 l 557 646 l 557 568 q 538 549 557 549 l 462 549 q 443 568 443 549 l 443 604 q 448 609 444 609 l 497 609 l 497 646 m 81 1061 q 241 722 81 869 q 325 461 325 631 q 338 439 333 439 l 669 439 q 713 483 713 439 l 713 513 q 813 762 713 690 q 932 1058 932 897 q 726 1421 932 1282 q 504 1484 621 1484 q 143 1280 286 1484 q 81 1061 81 1167 m 618 87 l 618 81 q 661 95 659 85 l 659 95 l 618 87 m 409 81 q 545 84 503 84 l 574 84 l 569 92 l 569 95 q 645 130 569 120 q 726 157 723 150 q 718 163 726 163 q 409 84 643 146 l 409 81 m 325 109 q 333 106 328 109 q 726 209 711 201 l 726 212 q 718 220 726 216 q 325 117 365 130 l 325 109 m 317 168 q 322 163 317 163 q 718 263 344 163 l 718 269 q 710 274 718 274 q 319 174 663 263 l 317 168 m 314 225 l 314 222 q 322 217 314 217 q 713 317 355 222 l 715 323 q 710 328 715 328 l 707 328 q 317 231 694 328 l 314 225 m 341 388 l 341 331 l 452 358 q 469 345 464 355 l 469 334 q 363 298 469 318 q 314 279 318 286 l 314 277 q 319 271 315 271 l 691 366 l 691 388 l 341 388 m 591 1525 q 843 1394 706 1516 q 973 1153 958 1264 l 973 974 q 867 746 973 890 q 764 526 764 671 l 764 494 q 743 420 764 452 l 743 361 q 753 323 753 330 q 748 296 753 317 q 756 274 756 282 l 756 269 q 753 244 756 259 q 764 217 764 225 l 764 212 q 756 182 764 203 q 764 160 764 180 l 764 157 q 737 114 764 134 q 631 33 705 33 l 604 33 q 583 0 586 0 l 450 0 q 431 33 441 0 l 404 33 q 287 98 343 33 q 284 114 287 100 q 290 136 290 134 q 279 165 279 152 l 279 171 q 284 198 279 176 q 273 222 277 198 q 281 252 273 229 q 273 282 273 265 q 290 323 273 284 l 290 404 q 265 570 273 446 q 170 719 227 680 q 40 974 49 860 l 40 1142 q 176 1402 47 1256 q 420 1525 306 1511 l 591 1525 z "},"":{"ha":1014,"x_min":40,"x_max":973,"o":"m 591 1525 q 843 1394 706 1516 q 973 1153 958 1264 l 973 974 q 867 746 973 890 q 764 526 764 671 l 764 494 q 743 420 764 452 l 743 361 q 753 323 753 330 q 748 296 753 317 q 756 274 756 282 l 756 269 q 753 244 756 259 q 764 217 764 225 l 764 212 q 756 182 764 203 q 764 160 764 180 l 764 157 q 737 114 764 134 q 631 33 705 33 l 604 33 q 583 0 586 0 l 450 0 q 431 33 441 0 l 404 33 q 287 98 343 33 q 284 114 287 100 q 290 136 290 134 q 279 165 279 152 l 279 171 q 284 198 279 176 q 273 222 277 198 q 281 252 273 229 q 273 282 273 265 q 290 323 273 284 l 290 404 q 265 570 273 446 q 170 719 227 680 q 40 974 49 860 l 40 1142 q 176 1402 47 1256 q 420 1525 306 1511 l 591 1525 m 81 1061 q 241 722 81 869 q 325 461 325 631 q 338 439 333 439 l 669 439 q 713 483 713 439 l 713 513 q 813 762 713 690 q 932 1058 932 897 q 726 1421 932 1282 q 504 1484 621 1484 q 143 1280 286 1484 q 81 1061 81 1167 m 379 1215 l 653 1215 q 659 1210 659 1215 l 659 1126 q 653 1120 659 1120 l 469 1120 l 469 1025 l 653 1025 q 659 1020 659 1025 l 659 936 q 653 930 659 930 l 469 930 l 469 741 l 653 741 q 659 735 659 740 l 659 651 q 653 646 659 646 l 379 646 q 374 651 374 646 l 374 1210 q 379 1215 374 1215 m 341 388 l 341 331 l 452 358 q 469 345 464 355 l 469 334 q 363 298 469 318 q 314 279 318 286 l 314 277 q 319 271 315 271 l 691 366 l 691 388 l 341 388 m 314 225 l 314 222 q 322 217 314 217 q 713 317 355 222 l 715 323 q 710 328 715 328 l 707 328 q 317 231 694 328 l 314 225 m 317 168 q 322 163 317 163 q 718 263 344 163 l 718 269 q 710 274 718 274 q 319 174 663 263 l 317 168 m 325 109 q 333 106 328 109 q 726 209 711 201 l 726 212 q 718 220 726 216 q 325 117 365 130 l 325 109 m 409 81 q 545 84 503 84 l 574 84 l 569 92 l 569 95 q 645 130 569 120 q 726 157 723 150 q 718 163 726 163 q 409 84 643 146 l 409 81 m 618 87 l 618 81 q 661 95 659 85 l 659 95 l 618 87 m 570 1319 l 570 1316 l 502 1316 q 380 1409 389 1404 l 380 1414 l 472 1414 l 570 1319 z "}}}
